advent_pro_fmm_bld_krn.ufo
<glyph name="exclam" format="1">
  <advance width="212"/>
  <unicode hex="0021"/>
  <outline>
    <contour>
      <point x="48" y="640" type="curve" smooth="yes"/>
      <point x="66" y="120" type="line"/>
      <point x="142" y="120" type="line"/>
      <point x="164" y="641" type="line" smooth="yes"/>
      <point x="164" y="686"/>
      <point x="144" y="708"/>
      <point x="104" y="708" type="curve" smooth="yes"/>
      <point x="66" y="708"/>
      <point x="48" y="686"/>
    </contour>
    <contour>
      <point x="106" y="105" type="curve" smooth="yes"/>
      <point x="74" y="105"/>
      <point x="47" y="78"/>
      <point x="47" y="45" type="curve" smooth="yes"/>
      <point x="47" y="12"/>
      <point x="74" y="-15"/>
      <point x="106" y="-15" type="curve" smooth="yes"/>
      <point x="139" y="-15"/>
      <point x="165" y="12"/>
      <point x="165" y="45" type="curve" smooth="yes"/>
      <point x="165" y="78"/>
      <point x="139" y="105"/>
    </contour>
  </outline>
</glyph>
<glyph name="quotedbl" format="1">
  <advance width="293"/>
  <unicode hex="0022"/>
  <outline>
    <contour>
      <point x="167" y="694" type="curve"/>
      <point x="180" y="587" type="line"/>
      <point x="243" y="587" type="line"/>
      <point x="256" y="694" type="line"/>
      <point x="256" y="751"/>
      <point x="166" y="751"/>
    </contour>
    <contour>
      <point x="31" y="694" type="curve"/>
      <point x="45" y="587" type="line"/>
      <point x="107" y="587" type="line"/>
      <point x="121" y="694" type="line"/>
      <point x="121" y="751"/>
      <point x="31" y="751"/>
    </contour>
  </outline>
</glyph>
<glyph name="parenleft" format="1">
  <advance width="261"/>
  <unicode hex="0028"/>
  <outline>
    <contour>
      <point x="223" y="729" type="curve"/>
      <point x="168" y="816" type="line"/>
      <point x="77" y="763"/>
      <point x="49" y="684"/>
      <point x="49" y="604" type="curve" smooth="yes"/>
      <point x="49" y="94" type="line" smooth="yes"/>
      <point x="49" y="13"/>
      <point x="71" y="-61"/>
      <point x="169" y="-116" type="curve"/>
      <point x="224" y="-35" type="line"/>
      <point x="224" y="-35"/>
      <point x="158" y="0"/>
      <point x="158" y="103" type="curve" smooth="yes"/>
      <point x="158" y="182"/>
      <point x="158" y="324"/>
      <point x="158" y="606" type="curve" smooth="yes"/>
      <point x="158" y="701"/>
      <point x="223" y="729"/>
    </contour>
  </outline>
</glyph>
<glyph name="parenright" format="1">
  <advance width="260"/>
  <unicode hex="0029"/>
  <outline>
    <contour>
      <point x="38" y="729" type="curve"/>
      <point x="93" y="816" type="line"/>
      <point x="185" y="763"/>
      <point x="212" y="684"/>
      <point x="212" y="604" type="curve" smooth="yes"/>
      <point x="212" y="94" type="line" smooth="yes"/>
      <point x="212" y="13"/>
      <point x="190" y="-61"/>
      <point x="92" y="-116" type="curve"/>
      <point x="37" y="-35" type="line"/>
      <point x="37" y="-35"/>
      <point x="103" y="0"/>
      <point x="103" y="103" type="curve" smooth="yes"/>
      <point x="103" y="182"/>
      <point x="103" y="324"/>
      <point x="103" y="606" type="curve" smooth="yes"/>
      <point x="103" y="701"/>
      <point x="38" y="729"/>
    </contour>
  </outline>
</glyph>
<glyph name="plus" format="1">
  <advance width="395"/>
  <unicode hex="002B"/>
  <outline>
    <contour>
      <point x="252" y="529" type="line"/>
      <point x="141" y="529" type="line"/>
      <point x="141" y="419" type="line"/>
      <point x="37" y="419" type="line"/>
      <point x="37" y="313" type="line"/>
      <point x="141" y="313" type="line"/>
      <point x="141" y="210" type="line"/>
      <point x="252" y="210" type="line"/>
      <point x="252" y="313" type="line"/>
      <point x="357" y="313" type="line"/>
      <point x="357" y="419" type="line"/>
      <point x="252" y="419" type="line"/>
    </contour>
  </outline>
</glyph>
<glyph name="comma" format="1">
  <advance width="191"/>
  <unicode hex="002C"/>
  <outline>
    <contour>
      <point x="65" y="-66" type="curve"/>
      <point x="89" y="-83" type="line"/>
      <point x="89" y="-83"/>
      <point x="156" y="-41"/>
      <point x="156" y="50" type="curve" smooth="yes"/>
      <point x="156" y="82"/>
      <point x="130" y="109"/>
      <point x="98" y="109" type="curve" smooth="yes"/>
      <point x="65" y="109"/>
      <point x="38" y="82"/>
      <point x="38" y="50" type="curve" smooth="yes"/>
      <point x="38" y="22"/>
      <point x="56" y="-1"/>
      <point x="83" y="-8" type="curve"/>
      <point x="79" y="-28"/>
      <point x="75" y="-48"/>
    </contour>
  </outline>
</glyph>
<glyph name="hyphen" format="1">
  <advance width="394"/>
  <unicode hex="002D"/>
  <outline>
    <contour>
      <point x="37" y="306" type="line"/>
      <point x="356" y="306" type="line"/>
      <point x="356" y="413" type="line"/>
      <point x="37" y="413" type="line"/>
    </contour>
  </outline>
</glyph>
<glyph name="one" format="1">
  <advance width="301"/>
  <unicode hex="0031"/>
  <outline>
    <contour>
      <point x="28" y="627" type="curve"/>
      <point x="61" y="531" type="line"/>
      <point x="61" y="531"/>
      <point x="119" y="541"/>
      <point x="142" y="557" type="curve"/>
      <point x="141" y="0" type="line"/>
      <point x="252" y="0" type="line"/>
      <point x="252" y="698" type="line"/>
      <point x="142" y="698" type="line"/>
      <point x="103" y="643"/>
      <point x="28" y="627"/>
    </contour>
  </outline>
</glyph>
<glyph name="three" format="1">
  <advance width="468"/>
  <unicode hex="0033"/>
  <outline>
    <contour>
      <point x="258" y="411" type="curve"/>
      <point x="255" y="413" type="line"/>
      <point x="374" y="588" type="line"/>
      <point x="374" y="698" type="line"/>
      <point x="84" y="698" type="line"/>
      <point x="84" y="588" type="line"/>
      <point x="252" y="588" type="line"/>
      <point x="65" y="306" type="line"/>
      <point x="174" y="306" type="line" smooth="yes"/>
      <point x="216" y="306"/>
      <point x="249" y="297"/>
      <point x="272" y="284" type="curve" smooth="yes"/>
      <point x="304" y="266"/>
      <point x="319" y="239"/>
      <point x="319" y="201" type="curve" smooth="yes"/>
      <point x="319" y="170"/>
      <point x="310" y="144"/>
      <point x="291" y="124" type="curve" smooth="yes"/>
      <point x="273" y="106"/>
      <point x="247" y="95"/>
      <point x="214" y="95" type="curve" smooth="yes"/>
      <point x="170" y="95"/>
      <point x="127" y="122"/>
      <point x="108" y="161" type="curve"/>
      <point x="40" y="82" type="line"/>
      <point x="80" y="24"/>
      <point x="145" y="-12"/>
      <point x="216" y="-12" type="curve" smooth="yes"/>
      <point x="276" y="-12"/>
      <point x="325" y="9"/>
      <point x="366" y="50" type="curve" smooth="yes"/>
      <point x="409" y="91"/>
      <point x="430" y="142"/>
      <point x="430" y="201" type="curve" smooth="yes"/>
      <point x="430" y="256"/>
      <point x="412" y="302"/>
      <point x="377" y="341" type="curve" smooth="yes"/>
      <point x="343" y="378"/>
      <point x="303" y="403"/>
    </contour>
  </outline>
</glyph>
<glyph name="six" format="1">
  <advance width="504"/>
  <unicode hex="0036"/>
  <outline>
    <contour>
      <point x="282" y="598" type="curve" smooth="yes"/>
      <point x="321" y="598" type="line"/>
      <point x="321" y="698" type="line"/>
      <point x="287" y="698" type="line" smooth="yes"/>
      <point x="197" y="698"/>
      <point x="129" y="664"/>
      <point x="94" y="615" type="curve" smooth="yes"/>
      <point x="58" y="564"/>
      <point x="43" y="513"/>
      <point x="43" y="460" type="curve" smooth="yes"/>
      <point x="43" y="204" type="line" smooth="yes"/>
      <point x="43" y="144"/>
      <point x="64" y="94"/>
      <point x="105" y="52" type="curve" smooth="yes"/>
      <point x="145" y="11"/>
      <point x="195" y="-10"/>
      <point x="255" y="-10" type="curve" smooth="yes"/>
      <point x="313" y="-10"/>
      <point x="364" y="11"/>
      <point x="405" y="52" type="curve" smooth="yes"/>
      <point x="446" y="94"/>
      <point x="467" y="144"/>
      <point x="467" y="204" type="curve" smooth="yes"/>
      <point x="467" y="262"/>
      <point x="446" y="312"/>
      <point x="405" y="353" type="curve" smooth="yes"/>
      <point x="364" y="394"/>
      <point x="313" y="413"/>
      <point x="255" y="413" type="curve" smooth="yes"/>
      <point x="189" y="413"/>
      <point x="151" y="384"/>
      <point x="151" y="384" type="curve"/>
      <point x="151" y="437" type="line" smooth="yes"/>
      <point x="151" y="488"/>
      <point x="164" y="530"/>
      <point x="189" y="558" type="curve" smooth="yes"/>
      <point x="211" y="584"/>
      <point x="243" y="598"/>
    </contour>
    <contour>
      <point x="255" y="305" type="curve" smooth="yes"/>
      <point x="312" y="305"/>
      <point x="358" y="258"/>
      <point x="358" y="202" type="curve" smooth="yes"/>
      <point x="358" y="145"/>
      <point x="312" y="98"/>
      <point x="255" y="98" type="curve" smooth="yes"/>
      <point x="199" y="98"/>
      <point x="151" y="145"/>
      <point x="151" y="202" type="curve" smooth="yes"/>
      <point x="151" y="258"/>
      <point x="199" y="305"/>
    </contour>
  </outline>
</glyph>
<glyph name="eight" format="1">
  <advance width="504"/>
  <unicode hex="0038"/>
  <outline>
    <contour>
      <point x="253" y="708" type="curve" smooth="yes"/>
      <point x="203" y="708"/>
      <point x="162" y="691"/>
      <point x="129" y="656" type="curve" smooth="yes"/>
      <point x="95" y="621"/>
      <point x="79" y="581"/>
      <point x="79" y="532" type="curve" smooth="yes"/>
      <point x="79" y="498"/>
      <point x="85" y="468"/>
      <point x="102" y="442" type="curve"/>
      <point x="114" y="421"/>
      <point x="131" y="404"/>
      <point x="153" y="389" type="curve"/>
      <point x="126" y="375"/>
      <point x="104" y="356"/>
      <point x="87" y="334" type="curve" smooth="yes"/>
      <point x="57" y="297"/>
      <point x="39" y="251"/>
      <point x="39" y="201" type="curve" smooth="yes"/>
      <point x="39" y="142"/>
      <point x="60" y="91"/>
      <point x="102" y="50" type="curve" smooth="yes"/>
      <point x="143" y="9"/>
      <point x="192" y="-12"/>
      <point x="252" y="-12" type="curve" smooth="yes"/>
      <point x="311" y="-12"/>
      <point x="360" y="9"/>
      <point x="401" y="50" type="curve" smooth="yes"/>
      <point x="443" y="91"/>
      <point x="465" y="142"/>
      <point x="465" y="201" type="curve" smooth="yes"/>
      <point x="465" y="258"/>
      <point x="442" y="311"/>
      <point x="402" y="350" type="curve" smooth="yes"/>
      <point x="388" y="365"/>
      <point x="370" y="377"/>
      <point x="352" y="388" type="curve"/>
      <point x="375" y="403"/>
      <point x="392" y="421"/>
      <point x="406" y="442" type="curve"/>
      <point x="421" y="468"/>
      <point x="429" y="498"/>
      <point x="429" y="532" type="curve" smooth="yes"/>
      <point x="429" y="581"/>
      <point x="411" y="621"/>
      <point x="377" y="656" type="curve" smooth="yes"/>
      <point x="343" y="691"/>
      <point x="301" y="708"/>
    </contour>
    <contour>
      <point x="252" y="466" type="curve" smooth="yes"/>
      <point x="232" y="466"/>
      <point x="213" y="476"/>
      <point x="202" y="490" type="curve"/>
      <point x="191" y="502"/>
      <point x="185" y="517"/>
      <point x="185" y="533" type="curve" smooth="yes"/>
      <point x="185" y="571"/>
      <point x="215" y="599"/>
      <point x="252" y="599" type="curve" smooth="yes"/>
      <point x="289" y="599"/>
      <point x="319" y="571"/>
      <point x="319" y="533" type="curve" smooth="yes"/>
      <point x="319" y="517"/>
      <point x="311" y="501"/>
      <point x="301" y="490" type="curve" smooth="yes"/>
      <point x="289" y="476"/>
      <point x="271" y="466"/>
    </contour>
    <contour>
      <point x="252" y="96" type="curve" smooth="yes"/>
      <point x="193" y="96"/>
      <point x="147" y="143"/>
      <point x="147" y="201" type="curve" smooth="yes"/>
      <point x="147" y="228"/>
      <point x="158" y="253"/>
      <point x="174" y="272" type="curve" smooth="yes"/>
      <point x="193" y="293"/>
      <point x="222" y="306"/>
      <point x="252" y="306" type="curve" smooth="yes"/>
      <point x="278" y="306"/>
      <point x="300" y="297"/>
      <point x="319" y="282" type="curve" smooth="yes"/>
      <point x="342" y="263"/>
      <point x="356" y="234"/>
      <point x="356" y="201" type="curve" smooth="yes"/>
      <point x="356" y="143"/>
      <point x="310" y="96"/>
    </contour>
  </outline>
</glyph>
<glyph name="nine" format="1">
  <advance width="502"/>
  <unicode hex="0039"/>
  <outline>
    <contour>
      <point x="249" y="708" type="curve" smooth="yes"/>
      <point x="190" y="708"/>
      <point x="140" y="687"/>
      <point x="98" y="647" type="curve" smooth="yes"/>
      <point x="58" y="606"/>
      <point x="37" y="554"/>
      <point x="37" y="496" type="curve" smooth="yes"/>
      <point x="37" y="437"/>
      <point x="58" y="387"/>
      <point x="98" y="345" type="curve" smooth="yes"/>
      <point x="139" y="305"/>
      <point x="191" y="286"/>
      <point x="249" y="286" type="curve" smooth="yes"/>
      <point x="316" y="286"/>
      <point x="351" y="315"/>
      <point x="351" y="315" type="curve"/>
      <point x="351" y="262" type="line" smooth="yes"/>
      <point x="351" y="211"/>
      <point x="339" y="169"/>
      <point x="315" y="140" type="curve"/>
      <point x="293" y="116"/>
      <point x="262" y="100"/>
      <point x="221" y="100" type="curve" smooth="yes"/>
      <point x="182" y="100" type="line"/>
      <point x="182" y="-1" type="line"/>
      <point x="217" y="-1" type="line" smooth="yes"/>
      <point x="306" y="-1"/>
      <point x="374" y="34"/>
      <point x="410" y="82" type="curve" smooth="yes"/>
      <point x="446" y="134"/>
      <point x="460" y="185"/>
      <point x="460" y="238" type="curve" smooth="yes"/>
      <point x="460" y="496" type="line" smooth="yes"/>
      <point x="460" y="554"/>
      <point x="439" y="606"/>
      <point x="399" y="647" type="curve" smooth="yes"/>
      <point x="358" y="687"/>
      <point x="307" y="708"/>
    </contour>
    <contour>
      <point x="249" y="599" type="curve" smooth="yes"/>
      <point x="306" y="599"/>
      <point x="351" y="554"/>
      <point x="351" y="497" type="curve" smooth="yes"/>
      <point x="351" y="440"/>
      <point x="306" y="394"/>
      <point x="249" y="394" type="curve" smooth="yes"/>
      <point x="192" y="394"/>
      <point x="145" y="440"/>
      <point x="145" y="497" type="curve" smooth="yes"/>
      <point x="145" y="554"/>
      <point x="192" y="599"/>
    </contour>
  </outline>
</glyph>
<glyph name="colon" format="1">
  <advance width="201"/>
  <unicode hex="003A"/>
  <outline>
    <contour>
      <point x="161" y="143" type="curve" smooth="yes"/>
      <point x="161" y="176"/>
      <point x="133" y="204"/>
      <point x="100" y="204" type="curve" smooth="yes"/>
      <point x="67" y="204"/>
      <point x="42" y="176"/>
      <point x="42" y="143" type="curve" smooth="yes"/>
      <point x="42" y="110"/>
      <point x="67" y="84"/>
      <point x="100" y="84" type="curve" smooth="yes"/>
      <point x="133" y="84"/>
      <point x="161" y="110"/>
    </contour>
    <contour>
      <point x="161" y="385" type="curve" smooth="yes"/>
      <point x="161" y="417"/>
      <point x="133" y="444"/>
      <point x="100" y="444" type="curve" smooth="yes"/>
      <point x="67" y="444"/>
      <point x="42" y="417"/>
      <point x="42" y="385" type="curve" smooth="yes"/>
      <point x="42" y="352"/>
      <point x="67" y="324"/>
      <point x="100" y="324" type="curve" smooth="yes"/>
      <point x="133" y="324"/>
      <point x="161" y="352"/>
    </contour>
  </outline>
</glyph>
<glyph name="question" format="1">
  <advance width="442"/>
  <unicode hex="003F"/>
  <outline>
    <contour>
      <point x="34" y="531" type="curve"/>
      <point x="147" y="531" type="line"/>
      <point x="147" y="580"/>
      <point x="180" y="603"/>
      <point x="215" y="603" type="curve" smooth="yes"/>
      <point x="263" y="603"/>
      <point x="293" y="565"/>
      <point x="293" y="525" type="curve" smooth="yes"/>
      <point x="293" y="481"/>
      <point x="258" y="444"/>
      <point x="223" y="400" type="curve" smooth="yes"/>
      <point x="185" y="354"/>
      <point x="147" y="298"/>
      <point x="147" y="212" type="curve" smooth="yes"/>
      <point x="147" y="119" type="line"/>
      <point x="256" y="119" type="line"/>
      <point x="256" y="156"/>
      <point x="256" y="183"/>
      <point x="256" y="210" type="curve" smooth="yes"/>
      <point x="259" y="282"/>
      <point x="273" y="306"/>
      <point x="326" y="365" type="curve" smooth="yes"/>
      <point x="369" y="413"/>
      <point x="404" y="455"/>
      <point x="404" y="521" type="curve" smooth="yes"/>
      <point x="404" y="634"/>
      <point x="317" y="708"/>
      <point x="214" y="708" type="curve" smooth="yes"/>
      <point x="126" y="708"/>
      <point x="34" y="652"/>
    </contour>
    <contour>
      <point x="202" y="103" type="curve" smooth="yes"/>
      <point x="169" y="103"/>
      <point x="142" y="76"/>
      <point x="142" y="43" type="curve" smooth="yes"/>
      <point x="142" y="10"/>
      <point x="169" y="-17"/>
      <point x="202" y="-17" type="curve" smooth="yes"/>
      <point x="235" y="-17"/>
      <point x="261" y="10"/>
      <point x="261" y="43" type="curve" smooth="yes"/>
      <point x="261" y="76"/>
      <point x="235" y="103"/>
    </contour>
  </outline>
</glyph>
<glyph name="A" format="1">
  <advance width="563"/>
  <unicode hex="0041"/>
  <outline>
    <contour>
      <point x="531" y="0" type="line"/>
      <point x="359" y="698" type="line"/>
      <point x="204" y="698" type="line"/>
      <point x="35" y="0" type="line"/>
      <point x="159" y="0" type="line"/>
      <point x="199" y="183" type="line"/>
      <point x="360" y="183" type="line"/>
      <point x="400" y="0" type="line"/>
    </contour>
    <contour>
      <point x="226" y="300" type="line"/>
      <point x="280" y="515" type="line"/>
      <point x="335" y="300" type="line"/>
    </contour>
  </outline>
</glyph>
<glyph name="C" format="1">
  <advance width="444"/>
  <unicode hex="0043"/>
  <outline>
    <contour>
      <point x="351" y="582" type="curve"/>
      <point x="381" y="675" type="line"/>
      <point x="334" y="698"/>
      <point x="285" y="710"/>
      <point x="237" y="710" type="curve" smooth="yes"/>
      <point x="126" y="710"/>
      <point x="45" y="640"/>
      <point x="45" y="509" type="curve" smooth="yes"/>
      <point x="45" y="183" type="line" smooth="yes"/>
      <point x="45" y="113"/>
      <point x="68" y="64"/>
      <point x="104" y="32" type="curve" smooth="yes"/>
      <point x="139" y="2"/>
      <point x="188" y="-12"/>
      <point x="242" y="-12" type="curve" smooth="yes"/>
      <point x="293" y="-11"/>
      <point x="348" y="1"/>
      <point x="405" y="23" type="curve"/>
      <point x="389" y="127" type="line"/>
      <point x="377" y="127"/>
      <point x="309" y="100"/>
      <point x="248" y="100" type="curve" smooth="yes"/>
      <point x="188" y="100"/>
      <point x="155" y="123"/>
      <point x="155" y="185" type="curve" smooth="yes"/>
      <point x="155" y="512" type="line" smooth="yes"/>
      <point x="155" y="575"/>
      <point x="191" y="599"/>
      <point x="257" y="599" type="curve" smooth="yes"/>
      <point x="287" y="599"/>
      <point x="324" y="592"/>
    </contour>
  </outline>
</glyph>
<glyph name="D" format="1">
  <advance width="512"/>
  <unicode hex="0044"/>
  <outline>
    <contour>
      <point x="237" y="700" type="curve" smooth="yes"/>
      <point x="49" y="700" type="line"/>
      <point x="49" y="0" type="line"/>
      <point x="257" y="0" type="line" smooth="yes"/>
      <point x="398" y="0"/>
      <point x="469" y="74"/>
      <point x="469" y="206" type="curve" smooth="yes"/>
      <point x="469" y="473" type="line" smooth="yes"/>
      <point x="469" y="609"/>
      <point x="388" y="700"/>
    </contour>
    <contour>
      <point x="242" y="101" type="curve" smooth="yes"/>
      <point x="159" y="101" type="line"/>
      <point x="159" y="588" type="line"/>
      <point x="247" y="588" type="line" smooth="yes"/>
      <point x="323" y="588"/>
      <point x="359" y="555"/>
      <point x="359" y="483" type="curve" smooth="yes"/>
      <point x="359" y="196" type="line" smooth="yes"/>
      <point x="359" y="156"/>
      <point x="353" y="101"/>
    </contour>
  </outline>
</glyph>
<glyph name="J" format="1">
  <advance width="300"/>
  <unicode hex="004A"/>
  <outline>
    <contour>
      <point x="251" y="139" type="curve" smooth="yes"/>
      <point x="251" y="698" type="line"/>
      <point x="83" y="698" type="line"/>
      <point x="83" y="593" type="line"/>
      <point x="144" y="591" type="line"/>
      <point x="144" y="156" type="line" smooth="yes"/>
      <point x="144" y="90"/>
      <point x="108" y="57"/>
      <point x="38" y="57" type="curve"/>
      <point x="74" y="-37" type="line"/>
      <point x="111" y="-36"/>
      <point x="158" y="-28"/>
      <point x="195" y="3" type="curve" smooth="yes"/>
      <point x="227" y="29"/>
      <point x="251" y="71"/>
    </contour>
  </outline>
</glyph>
<glyph name="L" format="1">
  <advance width="446"/>
  <unicode hex="004C"/>
  <outline>
    <contour>
      <point x="49" y="0" type="line"/>
      <point x="410" y="0" type="line"/>
      <point x="410" y="101" type="line"/>
      <point x="159" y="101" type="line"/>
      <point x="159" y="698" type="line"/>
      <point x="49" y="698" type="line"/>
    </contour>
  </outline>
</glyph>
<glyph name="M" format="1">
  <advance width="634"/>
  <unicode hex="004D"/>
  <outline>
    <contour>
      <point x="159" y="698" type="line"/>
      <point x="49" y="698" type="line"/>
      <point x="49" y="0" type="line"/>
      <point x="159" y="0" type="line"/>
      <point x="159" y="369" type="line"/>
      <point x="275" y="0" type="line"/>
      <point x="358" y="0" type="line"/>
      <point x="475" y="370" type="line"/>
      <point x="475" y="0" type="line"/>
      <point x="585" y="0" type="line"/>
      <point x="585" y="698" type="line"/>
      <point x="475" y="698" type="line"/>
      <point x="316" y="237" type="line"/>
    </contour>
  </outline>
</glyph>
<glyph name="R" format="1">
  <advance width="527"/>
  <unicode hex="0052"/>
  <outline>
    <contour>
      <point x="266" y="698" type="curve" smooth="yes"/>
      <point x="49" y="698" type="line"/>
      <point x="49" y="0" type="line"/>
      <point x="159" y="0" type="line"/>
      <point x="159" y="195" type="line"/>
      <point x="266" y="195" type="line" smooth="yes"/>
      <point x="278" y="195"/>
      <point x="290" y="195"/>
      <point x="302" y="196" type="curve"/>
      <point x="372" y="0" type="line"/>
      <point x="484" y="0" type="line"/>
      <point x="403" y="232" type="line"/>
      <point x="451" y="267"/>
      <point x="484" y="333"/>
      <point x="484" y="451" type="curve" smooth="yes"/>
      <point x="484" y="648"/>
      <point x="371" y="698"/>
    </contour>
    <contour>
      <point x="225" y="300" type="curve" smooth="yes"/>
      <point x="159" y="300" type="line"/>
      <point x="159" y="588" type="line"/>
      <point x="225" y="588" type="line" smooth="yes"/>
      <point x="327" y="588"/>
      <point x="373" y="576"/>
      <point x="373" y="451" type="curve" smooth="yes"/>
      <point x="373" y="317"/>
      <point x="328" y="300"/>
    </contour>
  </outline>
</glyph>
<glyph name="U" format="1">
  <advance width="516"/>
  <unicode hex="0055"/>
  <outline>
    <contour>
      <point x="468" y="185" type="curve" smooth="yes"/>
      <point x="468" y="698" type="line"/>
      <point x="358" y="698" type="line"/>
      <point x="358" y="206" type="line" smooth="yes"/>
      <point x="358" y="172"/>
      <point x="347" y="144"/>
      <point x="328" y="127" type="curve"/>
      <point x="311" y="110"/>
      <point x="287" y="101"/>
      <point x="258" y="101" type="curve" smooth="yes"/>
      <point x="228" y="101"/>
      <point x="205" y="108"/>
      <point x="190" y="122" type="curve" smooth="yes"/>
      <point x="169" y="140"/>
      <point x="158" y="168"/>
      <point x="158" y="204" type="curve" smooth="yes"/>
      <point x="158" y="698" type="line"/>
      <point x="48" y="698" type="line"/>
      <point x="48" y="185" type="line" smooth="yes"/>
      <point x="48" y="118"/>
      <point x="70" y="68"/>
      <point x="110" y="36" type="curve" smooth="yes"/>
      <point x="152" y="5"/>
      <point x="202" y="-11"/>
      <point x="259" y="-11" type="curve" smooth="yes"/>
      <point x="316" y="-11"/>
      <point x="366" y="5"/>
      <point x="406" y="36" type="curve" smooth="yes"/>
      <point x="447" y="68"/>
      <point x="468" y="118"/>
    </contour>
  </outline>
</glyph>
<glyph name="V" format="1">
  <advance width="540"/>
  <unicode hex="0056"/>
  <outline>
    <contour>
      <point x="28" y="698" type="line"/>
      <point x="203" y="0" type="line"/>
      <point x="331" y="0" type="line"/>
      <point x="506" y="698" type="line"/>
      <point x="379" y="698" type="line"/>
      <point x="267" y="216" type="line"/>
      <point x="152" y="698" type="line"/>
    </contour>
  </outline>
</glyph>
<glyph name="W" format="1">
  <advance width="765"/>
  <unicode hex="0057"/>
  <outline>
    <contour>
      <point x="420" y="698" type="line"/>
      <point x="341" y="698" type="line"/>
      <point x="235" y="252" type="line"/>
      <point x="152" y="698" type="line"/>
      <point x="31" y="698" type="line"/>
      <point x="165" y="0" type="line"/>
      <point x="293" y="0" type="line"/>
      <point x="380" y="353" type="line"/>
      <point x="469" y="0" type="line"/>
      <point x="593" y="0" type="line"/>
      <point x="728" y="698" type="line"/>
      <point x="601" y="698" type="line"/>
      <point x="526" y="252" type="line"/>
    </contour>
  </outline>
</glyph>
<glyph name="Y" format="1">
  <advance width="536"/>
  <unicode hex="0059"/>
  <outline>
    <contour>
      <point x="488" y="156" type="curve" smooth="yes"/>
      <point x="488" y="698" type="line"/>
      <point x="378" y="698" type="line"/>
      <point x="378" y="405" type="line" smooth="yes"/>
      <point x="378" y="375"/>
      <point x="364" y="346"/>
      <point x="345" y="328" type="curve" smooth="yes"/>
      <point x="325" y="310"/>
      <point x="301" y="300"/>
      <point x="273" y="300" type="curve" smooth="yes"/>
      <point x="237" y="300"/>
      <point x="206" y="309"/>
      <point x="187" y="327" type="curve" smooth="yes"/>
      <point x="164" y="348"/>
      <point x="153" y="380"/>
      <point x="153" y="422" type="curve" smooth="yes"/>
      <point x="153" y="698" type="line"/>
      <point x="43" y="698" type="line"/>
      <point x="43" y="413" type="line" smooth="yes"/>
      <point x="43" y="345"/>
      <point x="64" y="293"/>
      <point x="106" y="254" type="curve" smooth="yes"/>
      <point x="152" y="210"/>
      <point x="207" y="198"/>
      <point x="266" y="198" type="curve" smooth="yes"/>
      <point x="333" y="201"/>
      <point x="378" y="237"/>
      <point x="378" y="237" type="curve"/>
      <point x="378" y="164" type="line" smooth="yes"/>
      <point x="378" y="94"/>
      <point x="346" y="70"/>
      <point x="302" y="65" type="curve"/>
      <point x="337" y="-19" type="line"/>
      <point x="446" y="-8"/>
      <point x="488" y="51"/>
    </contour>
  </outline>
</glyph>
<glyph name="Z" format="1">
  <advance width="577"/>
  <unicode hex="005A"/>
  <outline>
    <contour>
      <point x="526" y="698" type="line"/>
      <point x="58" y="698" type="line"/>
      <point x="58" y="588" type="line"/>
      <point x="387" y="588" type="line"/>
      <point x="44" y="101" type="line"/>
      <point x="44" y="0" type="line"/>
      <point x="532" y="0" type="line"/>
      <point x="532" y="105" type="line"/>
      <point x="182" y="105" type="line"/>
      <point x="526" y="588" type="line"/>
    </contour>
  </outline>
</glyph>
<glyph name="backslash" format="1">
  <advance width="484"/>
  <unicode hex="005C"/>
  <outline>
    <contour>
      <point x="346" y="-114" type="line"/>
      <point x="463" y="-114" type="line"/>
      <point x="139" y="816" type="line"/>
      <point x="19" y="816" type="line"/>
    </contour>
  </outline>
</glyph>
<glyph name="bracketright" format="1">
  <advance width="251"/>
  <unicode hex="005D"/>
  <outline>
    <contour>
      <point x="41" y="-114" type="line"/>
      <point x="201" y="-114" type="line"/>
      <point x="201" y="816" type="line"/>
      <point x="41" y="816" type="line"/>
      <point x="41" y="711" type="line"/>
      <point x="91" y="701" type="line"/>
      <point x="91" y="1" type="line"/>
      <point x="41" y="-9" type="line"/>
    </contour>
  </outline>
</glyph>
<glyph name="a" format="1">
  <advance width="466"/>
  <unicode hex="0061"/>
  <outline>
    <contour>
      <point x="314" y="334" type="curve"/>
      <point x="283" y="378"/>
      <point x="220" y="400"/>
      <point x="174" y="400" type="curve" smooth="yes"/>
      <point x="101" y="400"/>
      <point x="39" y="354"/>
      <point x="39" y="252" type="curve"/>
      <point x="39" y="252"/>
      <point x="39" y="155"/>
      <point x="39" y="155" type="curve"/>
      <point x="43" y="28"/>
      <point x="130" y="-11"/>
      <point x="244" y="-11" type="curve" smooth="yes"/>
      <point x="311" y="-11"/>
      <point x="369" y="-8"/>
      <point x="424" y="0" type="curve"/>
      <point x="424" y="0"/>
      <point x="424" y="194"/>
      <point x="424" y="306" type="curve" smooth="yes"/>
      <point x="424" y="398"/>
      <point x="401" y="442"/>
      <point x="377" y="464" type="curve" smooth="yes"/>
      <point x="333" y="504"/>
      <point x="269" y="508"/>
      <point x="216" y="508" type="curve"/>
      <point x="207" y="433" type="line"/>
      <point x="249" y="433"/>
      <point x="278" y="422"/>
      <point x="295" y="406" type="curve" smooth="yes"/>
      <point x="307" y="395"/>
      <point x="314" y="377"/>
    </contour>
    <contour>
      <point x="314" y="252" type="curve"/>
      <point x="314" y="252"/>
      <point x="314" y="94"/>
      <point x="314" y="94" type="curve"/>
      <point x="314" y="94"/>
      <point x="270" y="90"/>
      <point x="253" y="90" type="curve" smooth="yes"/>
      <point x="163" y="90"/>
      <point x="150" y="123"/>
      <point x="150" y="173" type="curve" smooth="yes"/>
      <point x="150" y="190"/>
      <point x="150" y="218"/>
      <point x="150" y="238" type="curve" smooth="yes"/>
      <point x="150" y="275"/>
      <point x="174" y="287"/>
      <point x="205" y="287" type="curve" smooth="yes"/>
      <point x="251" y="287"/>
      <point x="302" y="260"/>
    </contour>
  </outline>
</glyph>
<glyph name="b" format="1">
  <advance width="473"/>
  <unicode hex="0062"/>
  <outline>
    <contour>
      <point x="159" y="482" type="curve"/>
      <point x="159" y="698" type="line"/>
      <point x="49" y="698" type="line"/>
      <point x="49" y="0" type="line"/>
      <point x="108" y="-4"/>
      <point x="167" y="-11"/>
      <point x="225" y="-11" type="curve" smooth="yes"/>
      <point x="339" y="-11"/>
      <point x="427" y="25"/>
      <point x="433" y="155" type="curve" smooth="yes"/>
      <point x="433" y="156"/>
      <point x="433" y="359"/>
      <point x="433" y="359" type="curve"/>
      <point x="433" y="461"/>
      <point x="359" y="508"/>
      <point x="284" y="508" type="curve" smooth="yes"/>
      <point x="239" y="508"/>
      <point x="202" y="501"/>
    </contour>
    <contour>
      <point x="159" y="94" type="curve"/>
      <point x="159" y="94"/>
      <point x="159" y="370"/>
      <point x="159" y="370" type="curve"/>
      <point x="170" y="377"/>
      <point x="207" y="394"/>
      <point x="254" y="394" type="curve" smooth="yes"/>
      <point x="284" y="394"/>
      <point x="323" y="382"/>
      <point x="323" y="345" type="curve" smooth="yes"/>
      <point x="323" y="324"/>
      <point x="323" y="193"/>
      <point x="323" y="174" type="curve" smooth="yes"/>
      <point x="323" y="123"/>
      <point x="310" y="91"/>
      <point x="218" y="91" type="curve" smooth="yes"/>
      <point x="202" y="91"/>
      <point x="159" y="94"/>
    </contour>
  </outline>
</glyph>
<glyph name="f" format="1">
  <advance width="298"/>
  <unicode hex="0066"/>
  <outline>
    <contour>
      <point x="239" y="606" type="curve"/>
      <point x="257" y="706" type="line"/>
      <point x="238" y="708"/>
      <point x="213" y="711"/>
      <point x="195" y="711" type="curve" smooth="yes"/>
      <point x="114" y="711"/>
      <point x="48" y="659"/>
      <point x="48" y="548" type="curve" smooth="yes"/>
      <point x="48" y="0" type="line"/>
      <point x="161" y="0" type="line"/>
      <point x="161" y="396" type="line"/>
      <point x="224" y="396" type="line"/>
      <point x="248" y="499" type="line"/>
      <point x="161" y="499" type="line"/>
      <point x="161" y="555"/>
      <point x="161" y="557"/>
      <point x="161" y="558" type="curve" smooth="yes"/>
      <point x="161" y="594"/>
      <point x="174" y="612"/>
      <point x="200" y="612" type="curve" smooth="yes"/>
      <point x="213" y="612"/>
      <point x="228" y="609"/>
    </contour>
  </outline>
</glyph>
<glyph name="h" format="1">
  <advance width="461"/>
  <unicode hex="0068"/>
  <outline>
    <contour>
      <point x="158" y="476" type="curve"/>
      <point x="158" y="698" type="line"/>
      <point x="49" y="698" type="line"/>
      <point x="49" y="0" type="line"/>
      <point x="158" y="0" type="line"/>
      <point x="158" y="386" type="line"/>
      <point x="190" y="402"/>
      <point x="215" y="409"/>
      <point x="238" y="409" type="curve" smooth="yes"/>
      <point x="280" y="409"/>
      <point x="310" y="381"/>
      <point x="310" y="343" type="curve" smooth="yes"/>
      <point x="310" y="0" type="line"/>
      <point x="419" y="0" type="line"/>
      <point x="419" y="345" type="line" smooth="yes"/>
      <point x="419" y="473"/>
      <point x="337" y="509"/>
      <point x="258" y="509" type="curve" smooth="yes"/>
      <point x="217" y="509"/>
      <point x="175" y="488"/>
    </contour>
  </outline>
</glyph>
<glyph name="i" format="1">
  <advance width="214"/>
  <unicode hex="0069"/>
  <outline>
    <contour>
      <point x="52" y="0" type="line"/>
      <point x="162" y="0" type="line"/>
      <point x="162" y="499" type="line"/>
      <point x="52" y="499" type="line"/>
    </contour>
    <contour>
      <point x="107" y="708" type="curve" smooth="yes"/>
      <point x="74" y="708"/>
      <point x="48" y="683"/>
      <point x="48" y="650" type="curve" smooth="yes"/>
      <point x="48" y="617"/>
      <point x="74" y="590"/>
      <point x="107" y="590" type="curve" smooth="yes"/>
      <point x="140" y="590"/>
      <point x="167" y="617"/>
      <point x="167" y="650" type="curve" smooth="yes"/>
      <point x="167" y="683"/>
      <point x="140" y="708"/>
    </contour>
  </outline>
</glyph>
<glyph name="j" format="1">
  <advance width="274"/>
  <unicode hex="006A"/>
  <outline>
    <contour>
      <point x="221" y="-61" type="curve" smooth="yes"/>
      <point x="221" y="499" type="line"/>
      <point x="38" y="499" type="line"/>
      <point x="38" y="410" type="line"/>
      <point x="111" y="400" type="line"/>
      <point x="111" y="-50" type="line" smooth="yes"/>
      <point x="111" y="-74"/>
      <point x="102" y="-91"/>
      <point x="90" y="-102" type="curve"/>
      <point x="77" y="-116"/>
      <point x="62" y="-120"/>
      <point x="39" y="-125" type="curve"/>
      <point x="69" y="-215" type="line"/>
      <point x="98" y="-215"/>
      <point x="145" y="-202"/>
      <point x="173" y="-177" type="curve" smooth="yes"/>
      <point x="202" y="-151"/>
      <point x="221" y="-116"/>
    </contour>
    <contour>
      <point x="227" y="649" type="curve" smooth="yes"/>
      <point x="227" y="682"/>
      <point x="200" y="708"/>
      <point x="167" y="708" type="curve" smooth="yes"/>
      <point x="134" y="708"/>
      <point x="107" y="682"/>
      <point x="107" y="649" type="curve" smooth="yes"/>
      <point x="107" y="617"/>
      <point x="134" y="590"/>
      <point x="167" y="590" type="curve" smooth="yes"/>
      <point x="200" y="590"/>
      <point x="227" y="617"/>
    </contour>
  </outline>
</glyph>
<glyph name="k" format="1">
  <advance width="491"/>
  <unicode hex="006B"/>
  <outline>
    <contour>
      <point x="258" y="332" type="curve"/>
      <point x="389" y="443" type="line"/>
      <point x="309" y="519" type="line"/>
      <point x="159" y="382" type="line"/>
      <point x="159" y="698" type="line"/>
      <point x="49" y="698" type="line"/>
      <point x="49" y="0" type="line"/>
      <point x="159" y="0" type="line"/>
      <point x="159" y="240" type="line"/>
      <point x="173" y="254" type="line"/>
      <point x="323" y="0" type="line"/>
      <point x="462" y="0" type="line"/>
      <point x="423" y="61"/>
      <point x="355" y="170"/>
    </contour>
  </outline>
</glyph>
<glyph name="m" format="1">
  <advance width="731"/>
  <unicode hex="006D"/>
  <outline>
    <contour>
      <point x="579" y="341" type="curve" smooth="yes"/>
      <point x="579" y="0" type="line"/>
      <point x="689" y="0" type="line"/>
      <point x="689" y="344" type="line" smooth="yes"/>
      <point x="689" y="472"/>
      <point x="600" y="507"/>
      <point x="521" y="507" type="curve" smooth="yes"/>
      <point x="487" y="507"/>
      <point x="426" y="488"/>
      <point x="384" y="459" type="curve"/>
      <point x="350" y="495"/>
      <point x="302" y="507"/>
      <point x="255" y="507" type="curve" smooth="yes"/>
      <point x="214" y="507"/>
      <point x="172" y="486"/>
      <point x="156" y="475" type="curve"/>
      <point x="156" y="499" type="line"/>
      <point x="46" y="499" type="line"/>
      <point x="46" y="0" type="line"/>
      <point x="156" y="0" type="line"/>
      <point x="156" y="384" type="line"/>
      <point x="187" y="400"/>
      <point x="213" y="408"/>
      <point x="236" y="408" type="curve" smooth="yes"/>
      <point x="278" y="408"/>
      <point x="312" y="380"/>
      <point x="312" y="341" type="curve" smooth="yes"/>
      <point x="312" y="0" type="line"/>
      <point x="422" y="0" type="line"/>
      <point x="422" y="344" type="line" smooth="yes"/>
      <point x="422" y="359"/>
      <point x="421" y="372"/>
      <point x="419" y="384" type="curve"/>
      <point x="450" y="400"/>
      <point x="483" y="408"/>
      <point x="501" y="408" type="curve" smooth="yes"/>
      <point x="543" y="408"/>
      <point x="579" y="381"/>
    </contour>
  </outline>
</glyph>
<glyph name="n" format="1">
  <advance width="457"/>
  <unicode hex="006E"/>
  <outline>
    <contour>
      <point x="306" y="342" type="curve" smooth="yes"/>
      <point x="306" y="-1" type="line"/>
      <point x="415" y="-1" type="line"/>
      <point x="415" y="345" type="line" smooth="yes"/>
      <point x="415" y="473"/>
      <point x="334" y="508"/>
      <point x="255" y="508" type="curve" smooth="yes"/>
      <point x="214" y="508"/>
      <point x="172" y="487"/>
      <point x="155" y="476" type="curve"/>
      <point x="155" y="499" type="line"/>
      <point x="46" y="499" type="line"/>
      <point x="46" y="-1" type="line"/>
      <point x="155" y="-1" type="line"/>
      <point x="155" y="385" type="line"/>
      <point x="187" y="402"/>
      <point x="212" y="409"/>
      <point x="235" y="409" type="curve" smooth="yes"/>
      <point x="277" y="409"/>
      <point x="306" y="380"/>
    </contour>
  </outline>
</glyph>
<glyph name="r" format="1">
  <advance width="389"/>
  <unicode hex="0072"/>
  <outline>
    <contour>
      <point x="338" y="409" type="curve"/>
      <point x="354" y="499" type="line"/>
      <point x="333" y="507"/>
      <point x="305" y="514"/>
      <point x="275" y="514" type="curve" smooth="yes"/>
      <point x="232" y="514"/>
      <point x="189" y="501"/>
      <point x="156" y="479" type="curve"/>
      <point x="156" y="499" type="line"/>
      <point x="46" y="499" type="line"/>
      <point x="46" y="0" type="line"/>
      <point x="156" y="0" type="line"/>
      <point x="156" y="388" type="line"/>
      <point x="198" y="407"/>
      <point x="241" y="416"/>
      <point x="286" y="416" type="curve" smooth="yes"/>
      <point x="322" y="416"/>
      <point x="338" y="409"/>
    </contour>
  </outline>
</glyph>
<glyph name="t" format="1">
  <advance width="293"/>
  <unicode hex="0074"/>
  <outline>
    <contour>
      <point x="160" y="132" type="curve" smooth="yes"/>
      <point x="160" y="398" type="line"/>
      <point x="232" y="398" type="line"/>
      <point x="255" y="499" type="line"/>
      <point x="160" y="499" type="line"/>
      <point x="160" y="698" type="line"/>
      <point x="48" y="698" type="line"/>
      <point x="48" y="132" type="line" smooth="yes"/>
      <point x="48" y="37"/>
      <point x="99" y="-11"/>
      <point x="200" y="-13" type="curve"/>
      <point x="233" y="75" type="line"/>
      <point x="186" y="75"/>
      <point x="160" y="87"/>
    </contour>
  </outline>
</glyph>
<glyph name="x" format="1">
  <advance width="530"/>
  <unicode hex="0078"/>
  <outline>
    <contour>
      <point x="267" y="356" type="line"/>
      <point x="181" y="499" type="line"/>
      <point x="41" y="499" type="line"/>
      <point x="197" y="248" type="line"/>
      <point x="41" y="0" type="line"/>
      <point x="179" y="0" type="line"/>
      <point x="266" y="140" type="line"/>
      <point x="354" y="0" type="line"/>
      <point x="485" y="0" type="line"/>
      <point x="334" y="249" type="line"/>
      <point x="492" y="499" type="line"/>
      <point x="356" y="499" type="line"/>
    </contour>
  </outline>
</glyph>
<glyph name="z" format="1">
  <advance width="454"/>
  <unicode hex="007A"/>
  <outline>
    <contour>
      <point x="402" y="499" type="line"/>
      <point x="53" y="499" type="line"/>
      <point x="53" y="397" type="line"/>
      <point x="253" y="397" type="line"/>
      <point x="44" y="105" type="line"/>
      <point x="44" y="0" type="line"/>
      <point x="412" y="0" type="line"/>
      <point x="412" y="105" type="line"/>
      <point x="192" y="105" type="line"/>
      <point x="402" y="400" type="line"/>
    </contour>
  </outline>
</glyph>
<glyph name="bar" format="1">
  <advance width="210"/>
  <unicode hex="007C"/>
  <outline>
    <contour>
      <point x="50" y="-114" type="line"/>
      <point x="160" y="-114" type="line"/>
      <point x="160" y="816" type="line"/>
      <point x="50" y="816" type="line"/>
    </contour>
  </outline>
</glyph>
<glyph name="exclamdown" format="1">
  <advance width="212"/>
  <unicode hex="00A1"/>
  <outline>
    <contour>
      <point x="164" y="68" type="curve" smooth="yes"/>
      <point x="142" y="588" type="line"/>
      <point x="66" y="588" type="line"/>
      <point x="48" y="69" type="line"/>
      <point x="48" y="23"/>
      <point x="66" y="0"/>
      <point x="104" y="0" type="curve" smooth="yes"/>
      <point x="144" y="0"/>
      <point x="164" y="23"/>
    </contour>
    <contour>
      <point x="165" y="664" type="curve" smooth="yes"/>
      <point x="165" y="697"/>
      <point x="139" y="724"/>
      <point x="106" y="724" type="curve" smooth="yes"/>
      <point x="74" y="724"/>
      <point x="47" y="697"/>
      <point x="47" y="664" type="curve" smooth="yes"/>
      <point x="47" y="631"/>
      <point x="74" y="605"/>
      <point x="106" y="605" type="curve" smooth="yes"/>
      <point x="139" y="605"/>
      <point x="165" y="631"/>
    </contour>
  </outline>
</glyph>
<glyph name="cent" format="1">
  <advance width="403"/>
  <unicode hex="00A2"/>
  <outline>
    <contour>
      <point x="203" y="-113" type="line"/>
      <point x="309" y="-113" type="line"/>
      <point x="309" y="623" type="line"/>
      <point x="203" y="623" type="line"/>
    </contour>
    <contour>
      <point x="336" y="392" type="curve"/>
      <point x="361" y="477" type="line"/>
      <point x="303" y="503"/>
      <point x="239" y="518"/>
      <point x="179" y="505" type="curve" smooth="yes"/>
      <point x="134" y="495"/>
      <point x="95" y="471"/>
      <point x="69" y="427" type="curve" smooth="yes"/>
      <point x="50" y="395"/>
      <point x="43" y="363"/>
      <point x="41" y="319" type="curve"/>
      <point x="41" y="173" type="line" smooth="yes"/>
      <point x="41" y="75"/>
      <point x="85" y="23"/>
      <point x="153" y="1" type="curve" smooth="yes"/>
      <point x="223" y="-20"/>
      <point x="297" y="-12"/>
      <point x="363" y="5" type="curve"/>
      <point x="343" y="94" type="line"/>
      <point x="343" y="94"/>
      <point x="297" y="84"/>
      <point x="254" y="84" type="curve" smooth="yes"/>
      <point x="192" y="84"/>
      <point x="150" y="113"/>
      <point x="150" y="174" type="curve" smooth="yes"/>
      <point x="150" y="331" type="line" smooth="yes"/>
      <point x="150" y="351"/>
      <point x="156" y="367"/>
      <point x="163" y="380" type="curve"/>
      <point x="175" y="398"/>
      <point x="196" y="409"/>
      <point x="219" y="413" type="curve" smooth="yes"/>
      <point x="258" y="420"/>
      <point x="301" y="408"/>
    </contour>
  </outline>
</glyph>
<glyph name="sterling" format="1">
  <advance width="450"/>
  <unicode hex="00A3"/>
  <outline>
    <contour>
      <point x="145" y="100" type="curve"/>
      <point x="46" y="100" type="line"/>
      <point x="46" y="0" type="line"/>
      <point x="406" y="0" type="line"/>
      <point x="406" y="100" type="line"/>
      <point x="302" y="100" type="line"/>
      <point x="310" y="108"/>
      <point x="317" y="116"/>
      <point x="324" y="125" type="curve"/>
      <point x="361" y="182"/>
      <point x="352" y="252"/>
      <point x="330" y="311" type="curve" smooth="yes"/>
      <point x="326" y="321"/>
      <point x="322" y="330"/>
      <point x="316" y="340" type="curve"/>
      <point x="406" y="340" type="line"/>
      <point x="406" y="443" type="line"/>
      <point x="252" y="443" type="line"/>
      <point x="242" y="454"/>
      <point x="233" y="465"/>
      <point x="226" y="476" type="curve" smooth="yes"/>
      <point x="200" y="514"/>
      <point x="189" y="548"/>
      <point x="189" y="565" type="curve" smooth="yes"/>
      <point x="189" y="594"/>
      <point x="221" y="603"/>
      <point x="243" y="603" type="curve" smooth="yes"/>
      <point x="282" y="603"/>
      <point x="313" y="594"/>
      <point x="338" y="582" type="curve"/>
      <point x="372" y="672" type="line"/>
      <point x="339" y="695"/>
      <point x="283" y="708"/>
      <point x="248" y="708" type="curve" smooth="yes"/>
      <point x="157" y="708"/>
      <point x="76" y="661"/>
      <point x="71" y="569" type="curve"/>
      <point x="71" y="532"/>
      <point x="84" y="497"/>
      <point x="103" y="463" type="curve" smooth="yes"/>
      <point x="107" y="455"/>
      <point x="111" y="449"/>
      <point x="115" y="443" type="curve"/>
      <point x="46" y="443" type="line"/>
      <point x="46" y="340" type="line"/>
      <point x="182" y="340" type="line"/>
      <point x="185" y="333"/>
      <point x="190" y="328"/>
      <point x="193" y="323" type="curve" smooth="yes"/>
      <point x="231" y="263"/>
      <point x="255" y="189"/>
      <point x="208" y="131" type="curve" smooth="yes"/>
      <point x="191" y="112"/>
      <point x="166" y="103"/>
    </contour>
  </outline>
</glyph>
<glyph name="ordfeminine" format="1">
  <advance width="348"/>
  <unicode hex="00AA"/>
  <outline>
    <contour>
      <point x="305" y="391" type="curve"/>
      <point x="305" y="389"/>
      <point x="305" y="554"/>
      <point x="305" y="554" type="curve"/>
      <point x="305" y="617"/>
      <point x="294" y="662"/>
      <point x="261" y="687" type="curve" smooth="yes"/>
      <point x="227" y="714"/>
      <point x="175" y="713"/>
      <point x="139" y="708" type="curve"/>
      <point x="129" y="647" type="line"/>
      <point x="146" y="649"/>
      <point x="160" y="650"/>
      <point x="171" y="650" type="curve" smooth="yes"/>
      <point x="217" y="650"/>
      <point x="217" y="634"/>
      <point x="217" y="609" type="curve"/>
      <point x="192" y="624"/>
      <point x="165" y="631"/>
      <point x="141" y="631" type="curve" smooth="yes"/>
      <point x="74" y="630"/>
      <point x="37" y="581"/>
      <point x="36" y="518" type="curve"/>
      <point x="36" y="406"/>
      <point x="96" y="378"/>
      <point x="184" y="378" type="curve" smooth="yes"/>
      <point x="218" y="378"/>
      <point x="261" y="384"/>
    </contour>
    <contour>
      <point x="217" y="533" type="curve"/>
      <point x="217" y="460" type="line"/>
      <point x="207" y="460"/>
      <point x="196" y="458"/>
      <point x="181" y="458" type="curve" smooth="yes"/>
      <point x="152" y="458"/>
      <point x="120" y="466"/>
      <point x="119" y="507" type="curve" smooth="yes"/>
      <point x="119" y="533"/>
      <point x="130" y="555"/>
      <point x="156" y="555" type="curve" smooth="yes"/>
      <point x="177" y="555"/>
      <point x="201" y="543"/>
    </contour>
  </outline>
</glyph>
<glyph name="degree" format="1">
  <advance width="365"/>
  <unicode hex="00B0"/>
  <outline>
    <contour>
      <point x="327" y="564" type="curve" smooth="yes"/>
      <point x="327" y="645"/>
      <point x="262" y="710"/>
      <point x="181" y="710" type="curve" smooth="yes"/>
      <point x="100" y="710"/>
      <point x="35" y="645"/>
      <point x="35" y="564" type="curve" smooth="yes"/>
      <point x="35" y="484"/>
      <point x="100" y="419"/>
      <point x="181" y="419" type="curve" smooth="yes"/>
      <point x="262" y="419"/>
      <point x="327" y="484"/>
    </contour>
    <contour>
      <point x="181" y="617" type="curve" smooth="yes"/>
      <point x="209" y="617"/>
      <point x="234" y="593"/>
      <point x="234" y="564" type="curve" smooth="yes"/>
      <point x="234" y="536"/>
      <point x="209" y="512"/>
      <point x="181" y="512" type="curve" smooth="yes"/>
      <point x="152" y="512"/>
      <point x="129" y="536"/>
      <point x="129" y="564" type="curve" smooth="yes"/>
      <point x="129" y="593"/>
      <point x="152" y="617"/>
    </contour>
  </outline>
</glyph>
<glyph name="guillemotright" format="1">
  <advance width="555"/>
  <unicode hex="00BB"/>
  <outline>
    <contour>
      <point x="160" y="267" type="line"/>
      <point x="42" y="148" type="line"/>
      <point x="113" y="80" type="line"/>
      <point x="300" y="267" type="line"/>
      <point x="113" y="454" type="line"/>
      <point x="41" y="383" type="line"/>
    </contour>
    <contour>
      <point x="381" y="267" type="line"/>
      <point x="262" y="148" type="line"/>
      <point x="333" y="80" type="line"/>
      <point x="520" y="267" type="line"/>
      <point x="333" y="454" type="line"/>
      <point x="261" y="383" type="line"/>
    </contour>
  </outline>
</glyph>
<glyph name="Agrave" format="1">
  <advance width="567"/>
  <unicode hex="00C0"/>
  <outline>
    <contour>
      <point x="535" y="0" type="line"/>
      <point x="363" y="698" type="line"/>
      <point x="208" y="698" type="line"/>
      <point x="39" y="0" type="line"/>
      <point x="163" y="0" type="line"/>
      <point x="203" y="183" type="line"/>
      <point x="364" y="183" type="line"/>
      <point x="404" y="0" type="line"/>
    </contour>
    <contour>
      <point x="230" y="300" type="line"/>
      <point x="284" y="515" type="line"/>
      <point x="339" y="300" type="line"/>
    </contour>
    <contour>
      <point x="146" y="704" type="line"/>
      <point x="135" y="730"/>
      <point x="107" y="749"/>
      <point x="80" y="734" type="curve" smooth="yes"/>
      <point x="51" y="718"/>
      <point x="56" y="682"/>
      <point x="74" y="663" type="curve"/>
      <point x="132" y="587" type="line"/>
      <point x="176" y="587" type="line"/>
    </contour>
  </outline>
</glyph>
<glyph name="Aacute" format="1">
  <advance width="563"/>
  <unicode hex="00C1"/>
  <outline>
    <contour>
      <point x="531" y="0" type="line"/>
      <point x="359" y="698" type="line"/>
      <point x="204" y="698" type="line"/>
      <point x="35" y="0" type="line"/>
      <point x="159" y="0" type="line"/>
      <point x="199" y="183" type="line"/>
      <point x="360" y="183" type="line"/>
      <point x="400" y="0" type="line"/>
    </contour>
    <contour>
      <point x="226" y="300" type="line"/>
      <point x="280" y="515" type="line"/>
      <point x="335" y="300" type="line"/>
    </contour>
    <contour>
      <point x="218" y="671" type="line" smooth="yes"/>
      <point x="236" y="693"/>
      <point x="236" y="727"/>
      <point x="211" y="741" type="curve" smooth="yes"/>
      <point x="185" y="757"/>
      <point x="153" y="738"/>
      <point x="146" y="712" type="curve" smooth="yes"/>
      <point x="116" y="596" type="line"/>
      <point x="160" y="596" type="line"/>
    </contour>
  </outline>
</glyph>
<glyph name="Aring" format="1">
  <advance width="574"/>
  <unicode hex="00C5"/>
  <outline>
    <contour>
      <point x="542" y="0" type="line"/>
      <point x="370" y="698" type="line"/>
      <point x="215" y="698" type="line"/>
      <point x="46" y="0" type="line"/>
      <point x="170" y="0" type="line"/>
      <point x="210" y="183" type="line"/>
      <point x="371" y="183" type="line"/>
      <point x="411" y="0" type="line"/>
    </contour>
    <contour>
      <point x="237" y="300" type="line"/>
      <point x="291" y="515" type="line"/>
      <point x="346" y="300" type="line"/>
    </contour>
    <contour>
      <point x="155" y="774" type="curve" smooth="yes"/>
      <point x="92" y="774"/>
      <point x="41" y="724"/>
      <point x="41" y="661" type="curve" smooth="yes"/>
      <point x="41" y="598"/>
      <point x="92" y="547"/>
      <point x="155" y="547" type="curve" smooth="yes"/>
      <point x="218" y="547"/>
      <point x="269" y="598"/>
      <point x="269" y="661" type="curve" smooth="yes"/>
      <point x="269" y="724"/>
      <point x="218" y="774"/>
    </contour>
    <contour>
      <point x="155" y="692" type="curve" smooth="yes"/>
      <point x="172" y="692"/>
      <point x="186" y="678"/>
      <point x="186" y="661" type="curve" smooth="yes"/>
      <point x="186" y="642"/>
      <point x="172" y="629"/>
      <point x="155" y="629" type="curve" smooth="yes"/>
      <point x="139" y="629"/>
      <point x="124" y="642"/>
      <point x="124" y="661" type="curve" smooth="yes"/>
      <point x="124" y="678"/>
      <point x="139" y="692"/>
    </contour>
  </outline>
</glyph>
<glyph name="AE" format="1">
  <advance width="779"/>
  <unicode hex="00C6"/>
  <outline>
    <contour>
      <point x="399" y="0" type="line"/>
      <point x="731" y="0" type="line"/>
      <point x="731" y="100" type="line"/>
      <point x="507" y="100" type="line"/>
      <point x="507" y="306" type="line"/>
      <point x="625" y="306" type="line"/>
      <point x="659" y="413" type="line"/>
      <point x="507" y="413" type="line"/>
      <point x="507" y="588" type="line"/>
      <point x="733" y="588" type="line"/>
      <point x="733" y="698" type="line"/>
      <point x="304" y="698" type="line"/>
      <point x="33" y="0" type="line"/>
      <point x="162" y="0" type="line"/>
      <point x="237" y="193" type="line"/>
      <point x="399" y="193" type="line"/>
    </contour>
    <contour>
      <point x="278" y="300" type="line"/>
      <point x="386" y="588" type="line"/>
      <point x="398" y="588" type="line"/>
      <point x="398" y="300" type="line"/>
    </contour>
  </outline>
</glyph>
<glyph name="Ecircumflex" format="1">
  <advance width="455"/>
  <unicode hex="00CA"/>
  <outline>
    <contour>
      <point x="75" y="0" type="line"/>
      <point x="407" y="0" type="line"/>
      <point x="407" y="100" type="line"/>
      <point x="185" y="100" type="line"/>
      <point x="185" y="308" type="line"/>
      <point x="291" y="308" type="line"/>
      <point x="322" y="413" type="line"/>
      <point x="185" y="413" type="line"/>
      <point x="185" y="588" type="line"/>
      <point x="409" y="588" type="line"/>
      <point x="409" y="698" type="line"/>
      <point x="75" y="698" type="line"/>
    </contour>
    <contour>
      <point x="297" y="643" type="line"/>
      <point x="169" y="770" type="line"/>
      <point x="37" y="642" type="line"/>
      <point x="89" y="591" type="line"/>
      <point x="169" y="673" type="line"/>
      <point x="244" y="592" type="line"/>
    </contour>
  </outline>
</glyph>
<glyph name="Igrave" format="1">
  <advance width="255"/>
  <unicode hex="00CC"/>
  <outline>
    <contour>
      <point x="33" y="593" type="line"/>
      <point x="96" y="591" type="line"/>
      <point x="96" y="0" type="line"/>
      <point x="206" y="0" type="line"/>
      <point x="206" y="698" type="line"/>
      <point x="33" y="698" type="line"/>
    </contour>
    <contour>
      <point x="141" y="704" type="line"/>
      <point x="130" y="730"/>
      <point x="102" y="749"/>
      <point x="75" y="734" type="curve" smooth="yes"/>
      <point x="46" y="718"/>
      <point x="51" y="682"/>
      <point x="69" y="663" type="curve"/>
      <point x="127" y="587" type="line"/>
      <point x="171" y="587" type="line"/>
    </contour>
  </outline>
</glyph>
<glyph name="Eth" format="1">
  <advance width="511"/>
  <unicode hex="00D0"/>
  <outline>
    <contour>
      <point x="236" y="700" type="curve" smooth="yes"/>
      <point x="49" y="700" type="line"/>
      <point x="49" y="0" type="line"/>
      <point x="256" y="0" type="line" smooth="yes"/>
      <point x="397" y="0"/>
      <point x="468" y="74"/>
      <point x="468" y="206" type="curve" smooth="yes"/>
      <point x="468" y="473" type="line" smooth="yes"/>
      <point x="468" y="609"/>
      <point x="387" y="700"/>
    </contour>
    <contour>
      <point x="240" y="101" type="curve" smooth="yes"/>
      <point x="159" y="101" type="line"/>
      <point x="159" y="310" type="line"/>
      <point x="260" y="310" type="line"/>
      <point x="288" y="413" type="line"/>
      <point x="159" y="413" type="line"/>
      <point x="159" y="588" type="line"/>
      <point x="246" y="588" type="line" smooth="yes"/>
      <point x="322" y="588"/>
      <point x="358" y="555"/>
      <point x="358" y="483" type="curve" smooth="yes"/>
      <point x="358" y="196" type="line" smooth="yes"/>
      <point x="358" y="156"/>
      <point x="353" y="101"/>
    </contour>
  </outline>
</glyph>
<glyph name="Otilde" format="1">
  <advance width="535"/>
  <unicode hex="00D5"/>
  <outline>
    <contour>
      <point x="71" y="506" type="curve" smooth="yes"/>
      <point x="71" y="185" type="line" smooth="yes"/>
      <point x="71" y="56"/>
      <point x="163" y="-11"/>
      <point x="282" y="-11" type="curve" smooth="yes"/>
      <point x="407" y="-11"/>
      <point x="491" y="63"/>
      <point x="491" y="185" type="curve" smooth="yes"/>
      <point x="491" y="505" type="line" smooth="yes"/>
      <point x="491" y="636"/>
      <point x="415" y="715"/>
      <point x="283" y="715" type="curve" smooth="yes"/>
      <point x="151" y="715"/>
      <point x="71" y="642"/>
    </contour>
    <contour>
      <point x="181" y="204" type="curve" smooth="yes"/>
      <point x="181" y="470" type="line" smooth="yes"/>
      <point x="181" y="557"/>
      <point x="211" y="598"/>
      <point x="281" y="598" type="curve" smooth="yes"/>
      <point x="358" y="598"/>
      <point x="381" y="554"/>
      <point x="381" y="469" type="curve" smooth="yes"/>
      <point x="381" y="206" type="line" smooth="yes"/>
      <point x="381" y="143"/>
      <point x="344" y="101"/>
      <point x="281" y="101" type="curve" smooth="yes"/>
      <point x="214" y="101"/>
      <point x="181" y="140"/>
    </contour>
    <contour>
      <point x="231" y="708" type="line"/>
      <point x="231" y="700" type="line" smooth="yes"/>
      <point x="231" y="688"/>
      <point x="231" y="672"/>
      <point x="217" y="672" type="curve" smooth="yes"/>
      <point x="209" y="672"/>
      <point x="196" y="680"/>
      <point x="189" y="684" type="curve" smooth="yes"/>
      <point x="175" y="692"/>
      <point x="170" y="696"/>
      <point x="158" y="702" type="curve" smooth="yes"/>
      <point x="137" y="712"/>
      <point x="114" y="715"/>
      <point x="91" y="708" type="curve" smooth="yes"/>
      <point x="51" y="696"/>
      <point x="37" y="658"/>
      <point x="37" y="619" type="curve" smooth="yes"/>
      <point x="37" y="611" type="line"/>
      <point x="104" y="611" type="line"/>
      <point x="104" y="619" type="line" smooth="yes"/>
      <point x="104" y="632"/>
      <point x="103" y="645"/>
      <point x="119" y="645" type="curve" smooth="yes"/>
      <point x="126" y="645"/>
      <point x="136" y="641"/>
      <point x="145" y="635" type="curve" smooth="yes"/>
      <point x="151" y="631"/>
      <point x="172" y="618"/>
      <point x="178" y="615" type="curve"/>
      <point x="190" y="610"/>
      <point x="203" y="605"/>
      <point x="216" y="605" type="curve" smooth="yes"/>
      <point x="271" y="605"/>
      <point x="298" y="649"/>
      <point x="298" y="700" type="curve" smooth="yes"/>
      <point x="298" y="708" type="line"/>
    </contour>
  </outline>
</glyph>
<glyph name="Odieresis" format="1">
  <advance width="540"/>
  <unicode hex="00D6"/>
  <outline>
    <contour>
      <point x="76" y="506" type="curve" smooth="yes"/>
      <point x="76" y="185" type="line" smooth="yes"/>
      <point x="76" y="56"/>
      <point x="168" y="-11"/>
      <point x="287" y="-11" type="curve" smooth="yes"/>
      <point x="412" y="-11"/>
      <point x="496" y="63"/>
      <point x="496" y="185" type="curve" smooth="yes"/>
      <point x="496" y="505" type="line" smooth="yes"/>
      <point x="496" y="636"/>
      <point x="420" y="715"/>
      <point x="288" y="715" type="curve" smooth="yes"/>
      <point x="156" y="715"/>
      <point x="76" y="642"/>
    </contour>
    <contour>
      <point x="186" y="204" type="curve" smooth="yes"/>
      <point x="186" y="470" type="line" smooth="yes"/>
      <point x="186" y="557"/>
      <point x="216" y="598"/>
      <point x="286" y="598" type="curve" smooth="yes"/>
      <point x="363" y="598"/>
      <point x="386" y="554"/>
      <point x="386" y="469" type="curve" smooth="yes"/>
      <point x="386" y="206" type="line" smooth="yes"/>
      <point x="386" y="143"/>
      <point x="349" y="101"/>
      <point x="286" y="101" type="curve" smooth="yes"/>
      <point x="219" y="101"/>
      <point x="186" y="140"/>
    </contour>
    <contour>
      <point x="94" y="767" type="curve" smooth="yes"/>
      <point x="61" y="767"/>
      <point x="34" y="740"/>
      <point x="34" y="708" type="curve" smooth="yes"/>
      <point x="34" y="675"/>
      <point x="61" y="648"/>
      <point x="94" y="648" type="curve" smooth="yes"/>
      <point x="127" y="648"/>
      <point x="153" y="675"/>
      <point x="153" y="708" type="curve" smooth="yes"/>
      <point x="153" y="740"/>
      <point x="127" y="767"/>
    </contour>
    <contour>
      <point x="252" y="767" type="curve" smooth="yes"/>
      <point x="219" y="767"/>
      <point x="192" y="740"/>
      <point x="192" y="708" type="curve" smooth="yes"/>
      <point x="192" y="675"/>
      <point x="219" y="648"/>
      <point x="252" y="648" type="curve" smooth="yes"/>
      <point x="285" y="648"/>
      <point x="312" y="675"/>
      <point x="312" y="708" type="curve" smooth="yes"/>
      <point x="312" y="740"/>
      <point x="285" y="767"/>
    </contour>
  </outline>
</glyph>
<glyph name="Oslash" format="1">
  <advance width="525"/>
  <unicode hex="00D8"/>
  <outline>
    <contour>
      <point x="46" y="-114" type="line"/>
      <point x="163" y="-114" type="line"/>
      <point x="490" y="816" type="line"/>
      <point x="370" y="816" type="line"/>
    </contour>
    <contour>
      <point x="47" y="506" type="curve" smooth="yes"/>
      <point x="47" y="185" type="line" smooth="yes"/>
      <point x="47" y="56"/>
      <point x="139" y="-11"/>
      <point x="258" y="-11" type="curve" smooth="yes"/>
      <point x="383" y="-11"/>
      <point x="467" y="63"/>
      <point x="467" y="185" type="curve" smooth="yes"/>
      <point x="467" y="505" type="line" smooth="yes"/>
      <point x="467" y="636"/>
      <point x="391" y="715"/>
      <point x="259" y="715" type="curve" smooth="yes"/>
      <point x="127" y="715"/>
      <point x="47" y="642"/>
    </contour>
    <contour>
      <point x="157" y="204" type="curve" smooth="yes"/>
      <point x="157" y="470" type="line" smooth="yes"/>
      <point x="157" y="557"/>
      <point x="187" y="598"/>
      <point x="257" y="598" type="curve" smooth="yes"/>
      <point x="334" y="598"/>
      <point x="357" y="554"/>
      <point x="357" y="469" type="curve" smooth="yes"/>
      <point x="357" y="206" type="line" smooth="yes"/>
      <point x="357" y="143"/>
      <point x="320" y="101"/>
      <point x="257" y="101" type="curve" smooth="yes"/>
      <point x="190" y="101"/>
      <point x="157" y="140"/>
    </contour>
  </outline>
</glyph>
<glyph name="Ugrave" format="1">
  <advance width="517"/>
  <unicode hex="00D9"/>
  <outline>
    <contour>
      <point x="469" y="185" type="curve" smooth="yes"/>
      <point x="469" y="698" type="line"/>
      <point x="359" y="698" type="line"/>
      <point x="359" y="206" type="line" smooth="yes"/>
      <point x="359" y="172"/>
      <point x="348" y="144"/>
      <point x="329" y="127" type="curve"/>
      <point x="312" y="110"/>
      <point x="288" y="101"/>
      <point x="259" y="101" type="curve" smooth="yes"/>
      <point x="229" y="101"/>
      <point x="206" y="108"/>
      <point x="191" y="122" type="curve" smooth="yes"/>
      <point x="170" y="140"/>
      <point x="159" y="168"/>
      <point x="159" y="204" type="curve" smooth="yes"/>
      <point x="159" y="698" type="line"/>
      <point x="49" y="698" type="line"/>
      <point x="49" y="185" type="line" smooth="yes"/>
      <point x="49" y="118"/>
      <point x="71" y="68"/>
      <point x="111" y="36" type="curve" smooth="yes"/>
      <point x="153" y="5"/>
      <point x="203" y="-11"/>
      <point x="260" y="-11" type="curve" smooth="yes"/>
      <point x="317" y="-11"/>
      <point x="367" y="5"/>
      <point x="407" y="36" type="curve" smooth="yes"/>
      <point x="448" y="68"/>
      <point x="469" y="118"/>
    </contour>
    <contour>
      <point x="141" y="704" type="line"/>
      <point x="130" y="730"/>
      <point x="102" y="749"/>
      <point x="75" y="734" type="curve" smooth="yes"/>
      <point x="46" y="718"/>
      <point x="51" y="682"/>
      <point x="69" y="663" type="curve"/>
      <point x="127" y="587" type="line"/>
      <point x="171" y="587" type="line"/>
    </contour>
  </outline>
</glyph>
<glyph name="Udieresis" format="1">
  <advance width="546"/>
  <unicode hex="00DC"/>
  <outline>
    <contour>
      <point x="498" y="185" type="curve" smooth="yes"/>
      <point x="498" y="698" type="line"/>
      <point x="388" y="698" type="line"/>
      <point x="388" y="206" type="line" smooth="yes"/>
      <point x="388" y="172"/>
      <point x="377" y="144"/>
      <point x="358" y="127" type="curve"/>
      <point x="341" y="110"/>
      <point x="317" y="101"/>
      <point x="288" y="101" type="curve" smooth="yes"/>
      <point x="258" y="101"/>
      <point x="235" y="108"/>
      <point x="220" y="122" type="curve" smooth="yes"/>
      <point x="199" y="140"/>
      <point x="188" y="168"/>
      <point x="188" y="204" type="curve" smooth="yes"/>
      <point x="188" y="698" type="line"/>
      <point x="78" y="698" type="line"/>
      <point x="78" y="185" type="line" smooth="yes"/>
      <point x="78" y="118"/>
      <point x="100" y="68"/>
      <point x="140" y="36" type="curve" smooth="yes"/>
      <point x="182" y="5"/>
      <point x="232" y="-11"/>
      <point x="289" y="-11" type="curve" smooth="yes"/>
      <point x="346" y="-11"/>
      <point x="396" y="5"/>
      <point x="436" y="36" type="curve" smooth="yes"/>
      <point x="477" y="68"/>
      <point x="498" y="118"/>
    </contour>
    <contour>
      <point x="93" y="767" type="curve" smooth="yes"/>
      <point x="60" y="767"/>
      <point x="33" y="740"/>
      <point x="33" y="708" type="curve" smooth="yes"/>
      <point x="33" y="675"/>
      <point x="60" y="648"/>
      <point x="93" y="648" type="curve" smooth="yes"/>
      <point x="126" y="648"/>
      <point x="152" y="675"/>
      <point x="152" y="708" type="curve" smooth="yes"/>
      <point x="152" y="740"/>
      <point x="126" y="767"/>
    </contour>
    <contour>
      <point x="251" y="767" type="curve" smooth="yes"/>
      <point x="218" y="767"/>
      <point x="191" y="740"/>
      <point x="191" y="708" type="curve" smooth="yes"/>
      <point x="191" y="675"/>
      <point x="218" y="648"/>
      <point x="251" y="648" type="curve" smooth="yes"/>
      <point x="284" y="648"/>
      <point x="311" y="675"/>
      <point x="311" y="708" type="curve" smooth="yes"/>
      <point x="311" y="740"/>
      <point x="284" y="767"/>
    </contour>
  </outline>
</glyph>
<glyph name="Thorn" format="1">
  <advance width="482"/>
  <unicode hex="00DE"/>
  <outline>
    <contour>
      <point x="442" y="290" type="curve" smooth="yes"/>
      <point x="442" y="435" type="line" smooth="yes"/>
      <point x="440" y="479"/>
      <point x="433" y="510"/>
      <point x="414" y="543" type="curve" smooth="yes"/>
      <point x="379" y="601"/>
      <point x="318" y="626"/>
      <point x="257" y="626" type="curve" smooth="yes"/>
      <point x="224" y="626"/>
      <point x="191" y="619"/>
      <point x="159" y="608" type="curve"/>
      <point x="159" y="698" type="line"/>
      <point x="49" y="698" type="line"/>
      <point x="49" y="0" type="line"/>
      <point x="159" y="0" type="line"/>
      <point x="159" y="113" type="line"/>
      <point x="217" y="102"/>
      <point x="277" y="100"/>
      <point x="329" y="118" type="curve" smooth="yes"/>
      <point x="399" y="140"/>
      <point x="442" y="193"/>
    </contour>
    <contour>
      <point x="245" y="532" type="curve" smooth="yes"/>
      <point x="273" y="532"/>
      <point x="305" y="520"/>
      <point x="320" y="497" type="curve" smooth="yes"/>
      <point x="328" y="484"/>
      <point x="333" y="468"/>
      <point x="333" y="448" type="curve" smooth="yes"/>
      <point x="334" y="290" type="line" smooth="yes"/>
      <point x="334" y="249"/>
      <point x="321" y="220"/>
      <point x="281" y="208" type="curve" smooth="yes"/>
      <point x="246" y="196"/>
      <point x="196" y="197"/>
      <point x="159" y="206" type="curve"/>
      <point x="159" y="514" type="line"/>
      <point x="184" y="524"/>
      <point x="218" y="532"/>
    </contour>
  </outline>
</glyph>
<glyph name="acircumflex" format="1">
  <advance width="490"/>
  <unicode hex="00E2"/>
  <outline>
    <contour>
      <point x="338" y="334" type="curve"/>
      <point x="307" y="378"/>
      <point x="244" y="400"/>
      <point x="198" y="400" type="curve" smooth="yes"/>
      <point x="125" y="400"/>
      <point x="63" y="354"/>
      <point x="63" y="252" type="curve"/>
      <point x="63" y="252"/>
      <point x="63" y="155"/>
      <point x="63" y="155" type="curve"/>
      <point x="67" y="28"/>
      <point x="154" y="-11"/>
      <point x="268" y="-11" type="curve" smooth="yes"/>
      <point x="335" y="-11"/>
      <point x="393" y="-8"/>
      <point x="448" y="0" type="curve"/>
      <point x="448" y="0"/>
      <point x="448" y="194"/>
      <point x="448" y="306" type="curve" smooth="yes"/>
      <point x="448" y="398"/>
      <point x="425" y="442"/>
      <point x="401" y="464" type="curve" smooth="yes"/>
      <point x="357" y="504"/>
      <point x="293" y="508"/>
      <point x="240" y="508" type="curve"/>
      <point x="231" y="433" type="line"/>
      <point x="273" y="433"/>
      <point x="302" y="422"/>
      <point x="319" y="406" type="curve" smooth="yes"/>
      <point x="331" y="395"/>
      <point x="338" y="377"/>
    </contour>
    <contour>
      <point x="338" y="252" type="curve"/>
      <point x="338" y="252"/>
      <point x="338" y="94"/>
      <point x="338" y="94" type="curve"/>
      <point x="338" y="94"/>
      <point x="294" y="90"/>
      <point x="277" y="90" type="curve" smooth="yes"/>
      <point x="187" y="90"/>
      <point x="174" y="123"/>
      <point x="174" y="173" type="curve" smooth="yes"/>
      <point x="174" y="190"/>
      <point x="174" y="218"/>
      <point x="174" y="238" type="curve" smooth="yes"/>
      <point x="174" y="275"/>
      <point x="198" y="287"/>
      <point x="229" y="287" type="curve" smooth="yes"/>
      <point x="275" y="287"/>
      <point x="326" y="260"/>
    </contour>
    <contour>
      <point x="297" y="643" type="line"/>
      <point x="169" y="770" type="line"/>
      <point x="37" y="642" type="line"/>
      <point x="89" y="591" type="line"/>
      <point x="169" y="673" type="line"/>
      <point x="244" y="592" type="line"/>
    </contour>
  </outline>
</glyph>
<glyph name="adieresis" format="1">
  <advance width="496"/>
  <unicode hex="00E4"/>
  <outline>
    <contour>
      <point x="344" y="334" type="curve"/>
      <point x="313" y="378"/>
      <point x="250" y="400"/>
      <point x="204" y="400" type="curve" smooth="yes"/>
      <point x="131" y="400"/>
      <point x="69" y="354"/>
      <point x="69" y="252" type="curve"/>
      <point x="69" y="252"/>
      <point x="69" y="155"/>
      <point x="69" y="155" type="curve"/>
      <point x="73" y="28"/>
      <point x="160" y="-11"/>
      <point x="274" y="-11" type="curve" smooth="yes"/>
      <point x="341" y="-11"/>
      <point x="399" y="-8"/>
      <point x="454" y="0" type="curve"/>
      <point x="454" y="0"/>
      <point x="454" y="194"/>
      <point x="454" y="306" type="curve" smooth="yes"/>
      <point x="454" y="398"/>
      <point x="431" y="442"/>
      <point x="407" y="464" type="curve" smooth="yes"/>
      <point x="363" y="504"/>
      <point x="299" y="508"/>
      <point x="246" y="508" type="curve"/>
      <point x="237" y="433" type="line"/>
      <point x="279" y="433"/>
      <point x="308" y="422"/>
      <point x="325" y="406" type="curve" smooth="yes"/>
      <point x="337" y="395"/>
      <point x="344" y="377"/>
    </contour>
    <contour>
      <point x="344" y="252" type="curve"/>
      <point x="344" y="252"/>
      <point x="344" y="94"/>
      <point x="344" y="94" type="curve"/>
      <point x="344" y="94"/>
      <point x="300" y="90"/>
      <point x="283" y="90" type="curve" smooth="yes"/>
      <point x="193" y="90"/>
      <point x="180" y="123"/>
      <point x="180" y="173" type="curve" smooth="yes"/>
      <point x="180" y="190"/>
      <point x="180" y="218"/>
      <point x="180" y="238" type="curve" smooth="yes"/>
      <point x="180" y="275"/>
      <point x="204" y="287"/>
      <point x="235" y="287" type="curve" smooth="yes"/>
      <point x="281" y="287"/>
      <point x="332" y="260"/>
    </contour>
    <contour>
      <point x="94" y="767" type="curve" smooth="yes"/>
      <point x="61" y="767"/>
      <point x="34" y="740"/>
      <point x="34" y="708" type="curve" smooth="yes"/>
      <point x="34" y="675"/>
      <point x="61" y="648"/>
      <point x="94" y="648" type="curve" smooth="yes"/>
      <point x="127" y="648"/>
      <point x="153" y="675"/>
      <point x="153" y="708" type="curve" smooth="yes"/>
      <point x="153" y="740"/>
      <point x="127" y="767"/>
    </contour>
    <contour>
      <point x="252" y="767" type="curve" smooth="yes"/>
      <point x="219" y="767"/>
      <point x="192" y="740"/>
      <point x="192" y="708" type="curve" smooth="yes"/>
      <point x="192" y="675"/>
      <point x="219" y="648"/>
      <point x="252" y="648" type="curve" smooth="yes"/>
      <point x="285" y="648"/>
      <point x="312" y="675"/>
      <point x="312" y="708" type="curve" smooth="yes"/>
      <point x="312" y="740"/>
      <point x="285" y="767"/>
    </contour>
  </outline>
</glyph>
<glyph name="eacute" format="1">
  <advance width="441"/>
  <unicode hex="00E9"/>
  <outline>
    <contour>
      <point x="153" y="148" type="curve" smooth="yes"/>
      <point x="153" y="173" type="line"/>
      <point x="402" y="186" type="line"/>
      <point x="402" y="342" type="line" smooth="yes"/>
      <point x="402" y="402"/>
      <point x="380" y="449"/>
      <point x="341" y="477" type="curve" smooth="yes"/>
      <point x="312" y="498"/>
      <point x="273" y="509"/>
      <point x="226" y="509" type="curve" smooth="yes"/>
      <point x="175" y="509"/>
      <point x="133" y="496"/>
      <point x="102" y="472" type="curve" smooth="yes"/>
      <point x="64" y="442"/>
      <point x="42" y="397"/>
      <point x="42" y="339" type="curve" smooth="yes"/>
      <point x="42" y="134" type="line" smooth="yes"/>
      <point x="42" y="80"/>
      <point x="62" y="43"/>
      <point x="92" y="20" type="curve" smooth="yes"/>
      <point x="123" y="-3"/>
      <point x="163" y="-13"/>
      <point x="207" y="-13" type="curve" smooth="yes"/>
      <point x="267" y="-13"/>
      <point x="330" y="5"/>
      <point x="377" y="35" type="curve"/>
      <point x="337" y="130" type="line"/>
      <point x="294" y="108"/>
      <point x="246" y="90"/>
      <point x="210" y="90" type="curve" smooth="yes"/>
      <point x="191" y="90"/>
      <point x="178" y="95"/>
      <point x="168" y="106" type="curve" smooth="yes"/>
      <point x="158" y="116"/>
      <point x="153" y="129"/>
    </contour>
    <contour>
      <point x="291" y="312" type="curve" smooth="yes"/>
      <point x="291" y="305"/>
      <point x="291" y="289"/>
      <point x="291" y="283" type="curve"/>
      <point x="153" y="274" type="line"/>
      <point x="153" y="284"/>
      <point x="153" y="304"/>
      <point x="153" y="313" type="curve" smooth="yes"/>
      <point x="153" y="345"/>
      <point x="155" y="367"/>
      <point x="172" y="385" type="curve"/>
      <point x="183" y="395"/>
      <point x="201" y="403"/>
      <point x="225" y="404" type="curve" smooth="yes"/>
      <point x="246" y="404"/>
      <point x="260" y="397"/>
      <point x="270" y="388" type="curve" smooth="yes"/>
      <point x="289" y="371"/>
      <point x="291" y="348"/>
    </contour>
    <contour>
      <point x="216" y="671" type="line" smooth="yes"/>
      <point x="234" y="693"/>
      <point x="234" y="727"/>
      <point x="209" y="741" type="curve" smooth="yes"/>
      <point x="183" y="757"/>
      <point x="151" y="738"/>
      <point x="144" y="712" type="curve" smooth="yes"/>
      <point x="114" y="596" type="line"/>
      <point x="158" y="596" type="line"/>
    </contour>
  </outline>
</glyph>
<glyph name="ecircumflex" format="1">
  <advance width="466"/>
  <unicode hex="00EA"/>
  <outline>
    <contour>
      <point x="178" y="148" type="curve" smooth="yes"/>
      <point x="178" y="173" type="line"/>
      <point x="427" y="186" type="line"/>
      <point x="427" y="342" type="line" smooth="yes"/>
      <point x="427" y="402"/>
      <point x="405" y="449"/>
      <point x="366" y="477" type="curve" smooth="yes"/>
      <point x="337" y="498"/>
      <point x="298" y="509"/>
      <point x="251" y="509" type="curve" smooth="yes"/>
      <point x="200" y="509"/>
      <point x="158" y="496"/>
      <point x="127" y="472" type="curve" smooth="yes"/>
      <point x="89" y="442"/>
      <point x="67" y="397"/>
      <point x="67" y="339" type="curve" smooth="yes"/>
      <point x="67" y="134" type="line" smooth="yes"/>
      <point x="67" y="80"/>
      <point x="87" y="43"/>
      <point x="117" y="20" type="curve" smooth="yes"/>
      <point x="148" y="-3"/>
      <point x="188" y="-13"/>
      <point x="232" y="-13" type="curve" smooth="yes"/>
      <point x="292" y="-13"/>
      <point x="355" y="5"/>
      <point x="402" y="35" type="curve"/>
      <point x="362" y="130" type="line"/>
      <point x="319" y="108"/>
      <point x="271" y="90"/>
      <point x="235" y="90" type="curve" smooth="yes"/>
      <point x="216" y="90"/>
      <point x="203" y="95"/>
      <point x="193" y="106" type="curve" smooth="yes"/>
      <point x="183" y="116"/>
      <point x="178" y="129"/>
    </contour>
    <contour>
      <point x="316" y="312" type="curve" smooth="yes"/>
      <point x="316" y="305"/>
      <point x="316" y="289"/>
      <point x="316" y="283" type="curve"/>
      <point x="178" y="274" type="line"/>
      <point x="178" y="284"/>
      <point x="178" y="304"/>
      <point x="178" y="313" type="curve" smooth="yes"/>
      <point x="178" y="345"/>
      <point x="180" y="367"/>
      <point x="197" y="385" type="curve"/>
      <point x="208" y="395"/>
      <point x="226" y="403"/>
      <point x="250" y="404" type="curve" smooth="yes"/>
      <point x="271" y="404"/>
      <point x="285" y="397"/>
      <point x="295" y="388" type="curve" smooth="yes"/>
      <point x="314" y="371"/>
      <point x="316" y="348"/>
    </contour>
    <contour>
      <point x="297" y="643" type="line"/>
      <point x="169" y="770" type="line"/>
      <point x="37" y="642" type="line"/>
      <point x="89" y="591" type="line"/>
      <point x="169" y="673" type="line"/>
      <point x="244" y="592" type="line"/>
    </contour>
  </outline>
</glyph>
<glyph name="edieresis" format="1">
  <advance width="472"/>
  <unicode hex="00EB"/>
  <outline>
    <contour>
      <point x="184" y="148" type="curve" smooth="yes"/>
      <point x="184" y="173" type="line"/>
      <point x="433" y="186" type="line"/>
      <point x="433" y="342" type="line" smooth="yes"/>
      <point x="433" y="402"/>
      <point x="411" y="449"/>
      <point x="372" y="477" type="curve" smooth="yes"/>
      <point x="343" y="498"/>
      <point x="304" y="509"/>
      <point x="257" y="509" type="curve" smooth="yes"/>
      <point x="206" y="509"/>
      <point x="164" y="496"/>
      <point x="133" y="472" type="curve" smooth="yes"/>
      <point x="95" y="442"/>
      <point x="73" y="397"/>
      <point x="73" y="339" type="curve" smooth="yes"/>
      <point x="73" y="134" type="line" smooth="yes"/>
      <point x="73" y="80"/>
      <point x="93" y="43"/>
      <point x="123" y="20" type="curve" smooth="yes"/>
      <point x="154" y="-3"/>
      <point x="194" y="-13"/>
      <point x="238" y="-13" type="curve" smooth="yes"/>
      <point x="298" y="-13"/>
      <point x="361" y="5"/>
      <point x="408" y="35" type="curve"/>
      <point x="368" y="130" type="line"/>
      <point x="325" y="108"/>
      <point x="277" y="90"/>
      <point x="241" y="90" type="curve" smooth="yes"/>
      <point x="222" y="90"/>
      <point x="209" y="95"/>
      <point x="199" y="106" type="curve" smooth="yes"/>
      <point x="189" y="116"/>
      <point x="184" y="129"/>
    </contour>
    <contour>
      <point x="322" y="312" type="curve" smooth="yes"/>
      <point x="322" y="305"/>
      <point x="322" y="289"/>
      <point x="322" y="283" type="curve"/>
      <point x="184" y="274" type="line"/>
      <point x="184" y="284"/>
      <point x="184" y="304"/>
      <point x="184" y="313" type="curve" smooth="yes"/>
      <point x="184" y="345"/>
      <point x="186" y="367"/>
      <point x="203" y="385" type="curve"/>
      <point x="214" y="395"/>
      <point x="232" y="403"/>
      <point x="256" y="404" type="curve" smooth="yes"/>
      <point x="277" y="404"/>
      <point x="291" y="397"/>
      <point x="301" y="388" type="curve" smooth="yes"/>
      <point x="320" y="371"/>
      <point x="322" y="348"/>
    </contour>
    <contour>
      <point x="94" y="767" type="curve" smooth="yes"/>
      <point x="61" y="767"/>
      <point x="34" y="740"/>
      <point x="34" y="708" type="curve" smooth="yes"/>
      <point x="34" y="675"/>
      <point x="61" y="648"/>
      <point x="94" y="648" type="curve" smooth="yes"/>
      <point x="127" y="648"/>
      <point x="153" y="675"/>
      <point x="153" y="708" type="curve" smooth="yes"/>
      <point x="153" y="740"/>
      <point x="127" y="767"/>
    </contour>
    <contour>
      <point x="252" y="767" type="curve" smooth="yes"/>
      <point x="219" y="767"/>
      <point x="192" y="740"/>
      <point x="192" y="708" type="curve" smooth="yes"/>
      <point x="192" y="675"/>
      <point x="219" y="648"/>
      <point x="252" y="648" type="curve" smooth="yes"/>
      <point x="285" y="648"/>
      <point x="312" y="675"/>
      <point x="312" y="708" type="curve" smooth="yes"/>
      <point x="312" y="740"/>
      <point x="285" y="767"/>
    </contour>
  </outline>
</glyph>
<glyph name="igrave" format="1">
  <advance width="216"/>
  <unicode hex="00EC"/>
  <outline>
    <contour>
      <point x="50" y="0" type="line"/>
      <point x="160" y="0" type="line"/>
      <point x="160" y="499" type="line"/>
      <point x="50" y="499" type="line"/>
    </contour>
    <contour>
      <point x="142" y="704" type="line"/>
      <point x="131" y="730"/>
      <point x="103" y="749"/>
      <point x="76" y="734" type="curve" smooth="yes"/>
      <point x="47" y="718"/>
      <point x="52" y="682"/>
      <point x="70" y="663" type="curve"/>
      <point x="128" y="587" type="line"/>
      <point x="172" y="587" type="line"/>
    </contour>
  </outline>
</glyph>
<glyph name="icircumflex" format="1">
  <advance width="328"/>
  <unicode hex="00EE"/>
  <outline>
    <contour>
      <point x="73" y="0" type="line"/>
      <point x="183" y="0" type="line"/>
      <point x="183" y="499" type="line"/>
      <point x="73" y="499" type="line"/>
    </contour>
    <contour>
      <point x="297" y="643" type="line"/>
      <point x="169" y="770" type="line"/>
      <point x="37" y="642" type="line"/>
      <point x="89" y="591" type="line"/>
      <point x="169" y="673" type="line"/>
      <point x="244" y="592" type="line"/>
    </contour>
  </outline>
</glyph>
<glyph name="eth" format="1">
  <advance width="453"/>
  <unicode hex="00F0"/>
  <outline>
    <contour>
      <point x="173" y="630" type="line"/>
      <point x="173" y="630"/>
      <point x="298" y="593"/>
      <point x="298" y="479" type="curve" smooth="yes"/>
      <point x="298" y="408" type="line"/>
      <point x="275" y="423"/>
      <point x="241" y="432"/>
      <point x="208" y="432" type="curve" smooth="yes"/>
      <point x="97" y="432"/>
      <point x="39" y="367"/>
      <point x="39" y="245" type="curve" smooth="yes"/>
      <point x="39" y="186" type="line" smooth="yes"/>
      <point x="39" y="65"/>
      <point x="105" y="-9"/>
      <point x="220" y="-9" type="curve" smooth="yes"/>
      <point x="341" y="-9"/>
      <point x="408" y="59"/>
      <point x="408" y="186" type="curve" smooth="yes"/>
      <point x="408" y="479" type="line" smooth="yes"/>
      <point x="408" y="599"/>
      <point x="323" y="670"/>
      <point x="200" y="699" type="curve"/>
    </contour>
    <contour>
      <point x="149" y="260" type="line" smooth="yes"/>
      <point x="149" y="305"/>
      <point x="171" y="333"/>
      <point x="214" y="333" type="curve" smooth="yes"/>
      <point x="247" y="333"/>
      <point x="298" y="318"/>
      <point x="298" y="281" type="curve" smooth="yes"/>
      <point x="298" y="180" type="line" smooth="yes"/>
      <point x="298" y="130"/>
      <point x="271" y="101"/>
      <point x="224" y="101" type="curve" smooth="yes"/>
      <point x="176" y="101"/>
      <point x="149" y="132"/>
      <point x="149" y="180" type="curve" smooth="yes"/>
    </contour>
    <contour>
      <point x="397" y="658" type="line"/>
      <point x="347" y="709" type="line"/>
      <point x="168" y="530" type="line"/>
      <point x="219" y="479" type="line"/>
    </contour>
  </outline>
</glyph>
<glyph name="ntilde" format="1">
  <advance width="486"/>
  <unicode hex="00F1"/>
  <outline>
    <contour>
      <point x="335" y="342" type="curve" smooth="yes"/>
      <point x="335" y="-1" type="line"/>
      <point x="444" y="-1" type="line"/>
      <point x="444" y="345" type="line" smooth="yes"/>
      <point x="444" y="473"/>
      <point x="363" y="508"/>
      <point x="284" y="508" type="curve" smooth="yes"/>
      <point x="243" y="508"/>
      <point x="201" y="487"/>
      <point x="184" y="476" type="curve"/>
      <point x="184" y="499" type="line"/>
      <point x="75" y="499" type="line"/>
      <point x="75" y="-1" type="line"/>
      <point x="184" y="-1" type="line"/>
      <point x="184" y="385" type="line"/>
      <point x="216" y="402"/>
      <point x="241" y="409"/>
      <point x="264" y="409" type="curve" smooth="yes"/>
      <point x="306" y="409"/>
      <point x="335" y="380"/>
    </contour>
    <contour>
      <point x="232" y="708" type="line"/>
      <point x="232" y="700" type="line" smooth="yes"/>
      <point x="232" y="688"/>
      <point x="232" y="672"/>
      <point x="218" y="672" type="curve" smooth="yes"/>
      <point x="210" y="672"/>
      <point x="197" y="680"/>
      <point x="190" y="684" type="curve" smooth="yes"/>
      <point x="176" y="692"/>
      <point x="171" y="696"/>
      <point x="159" y="702" type="curve" smooth="yes"/>
      <point x="138" y="712"/>
      <point x="115" y="715"/>
      <point x="92" y="708" type="curve" smooth="yes"/>
      <point x="52" y="696"/>
      <point x="38" y="658"/>
      <point x="38" y="619" type="curve" smooth="yes"/>
      <point x="38" y="611" type="line"/>
      <point x="105" y="611" type="line"/>
      <point x="105" y="619" type="line" smooth="yes"/>
      <point x="105" y="632"/>
      <point x="104" y="645"/>
      <point x="120" y="645" type="curve" smooth="yes"/>
      <point x="127" y="645"/>
      <point x="137" y="641"/>
      <point x="146" y="635" type="curve" smooth="yes"/>
      <point x="152" y="631"/>
      <point x="173" y="618"/>
      <point x="179" y="615" type="curve"/>
      <point x="191" y="610"/>
      <point x="204" y="605"/>
      <point x="217" y="605" type="curve" smooth="yes"/>
      <point x="272" y="605"/>
      <point x="299" y="649"/>
      <point x="299" y="700" type="curve" smooth="yes"/>
      <point x="299" y="708" type="line"/>
    </contour>
  </outline>
</glyph>
<glyph name="ocircumflex" format="1">
  <advance width="473"/>
  <unicode hex="00F4"/>
  <outline>
    <contour>
      <point x="434" y="184" type="curve" smooth="yes"/>
      <point x="434" y="316" type="line" smooth="yes"/>
      <point x="434" y="437"/>
      <point x="368" y="510"/>
      <point x="252" y="510" type="curve" smooth="yes"/>
      <point x="131" y="510"/>
      <point x="65" y="443"/>
      <point x="65" y="316" type="curve" smooth="yes"/>
      <point x="65" y="184" type="line" smooth="yes"/>
      <point x="65" y="82"/>
      <point x="120" y="-10"/>
      <point x="252" y="-10" type="curve" smooth="yes"/>
      <point x="376" y="-10"/>
      <point x="434" y="71"/>
    </contour>
    <contour>
      <point x="321" y="322" type="curve" smooth="yes"/>
      <point x="321" y="176" type="line" smooth="yes"/>
      <point x="321" y="131"/>
      <point x="301" y="98"/>
      <point x="251" y="98" type="curve" smooth="yes"/>
      <point x="198" y="98"/>
      <point x="176" y="135"/>
      <point x="176" y="176" type="curve" smooth="yes"/>
      <point x="176" y="322" type="line" smooth="yes"/>
      <point x="176" y="373"/>
      <point x="203" y="400"/>
      <point x="251" y="400" type="curve" smooth="yes"/>
      <point x="298" y="400"/>
      <point x="321" y="370"/>
    </contour>
    <contour>
      <point x="297" y="643" type="line"/>
      <point x="169" y="770" type="line"/>
      <point x="37" y="642" type="line"/>
      <point x="89" y="591" type="line"/>
      <point x="169" y="673" type="line"/>
      <point x="244" y="592" type="line"/>
    </contour>
  </outline>
</glyph>
<glyph name="odieresis" format="1">
  <advance width="479"/>
  <unicode hex="00F6"/>
  <outline>
    <contour>
      <point x="440" y="184" type="curve" smooth="yes"/>
      <point x="440" y="316" type="line" smooth="yes"/>
      <point x="440" y="437"/>
      <point x="374" y="510"/>
      <point x="258" y="510" type="curve" smooth="yes"/>
      <point x="137" y="510"/>
      <point x="71" y="443"/>
      <point x="71" y="316" type="curve" smooth="yes"/>
      <point x="71" y="184" type="line" smooth="yes"/>
      <point x="71" y="82"/>
      <point x="126" y="-10"/>
      <point x="258" y="-10" type="curve" smooth="yes"/>
      <point x="382" y="-10"/>
      <point x="440" y="71"/>
    </contour>
    <contour>
      <point x="327" y="322" type="curve" smooth="yes"/>
      <point x="327" y="176" type="line" smooth="yes"/>
      <point x="327" y="131"/>
      <point x="307" y="98"/>
      <point x="257" y="98" type="curve" smooth="yes"/>
      <point x="204" y="98"/>
      <point x="182" y="135"/>
      <point x="182" y="176" type="curve" smooth="yes"/>
      <point x="182" y="322" type="line" smooth="yes"/>
      <point x="182" y="373"/>
      <point x="209" y="400"/>
      <point x="257" y="400" type="curve" smooth="yes"/>
      <point x="304" y="400"/>
      <point x="327" y="370"/>
    </contour>
    <contour>
      <point x="94" y="767" type="curve" smooth="yes"/>
      <point x="61" y="767"/>
      <point x="34" y="740"/>
      <point x="34" y="708" type="curve" smooth="yes"/>
      <point x="34" y="675"/>
      <point x="61" y="648"/>
      <point x="94" y="648" type="curve" smooth="yes"/>
      <point x="127" y="648"/>
      <point x="153" y="675"/>
      <point x="153" y="708" type="curve" smooth="yes"/>
      <point x="153" y="740"/>
      <point x="127" y="767"/>
    </contour>
    <contour>
      <point x="252" y="767" type="curve" smooth="yes"/>
      <point x="219" y="767"/>
      <point x="192" y="740"/>
      <point x="192" y="708" type="curve" smooth="yes"/>
      <point x="192" y="675"/>
      <point x="219" y="648"/>
      <point x="252" y="648" type="curve" smooth="yes"/>
      <point x="285" y="648"/>
      <point x="312" y="675"/>
      <point x="312" y="708" type="curve" smooth="yes"/>
      <point x="312" y="740"/>
      <point x="285" y="767"/>
    </contour>
  </outline>
</glyph>
<glyph name="divide" format="1">
  <advance width="395"/>
  <unicode hex="00F7"/>
  <outline>
    <contour>
      <point x="37" y="340" type="line"/>
      <point x="357" y="340" type="line"/>
      <point x="357" y="426" type="line"/>
      <point x="37" y="426" type="line"/>
    </contour>
    <contour>
      <point x="198" y="571" type="curve" smooth="yes"/>
      <point x="165" y="571"/>
      <point x="138" y="543"/>
      <point x="138" y="512" type="curve" smooth="yes"/>
      <point x="138" y="479"/>
      <point x="165" y="452"/>
      <point x="198" y="452" type="curve" smooth="yes"/>
      <point x="230" y="452"/>
      <point x="258" y="479"/>
      <point x="258" y="512" type="curve" smooth="yes"/>
      <point x="258" y="543"/>
      <point x="230" y="571"/>
    </contour>
    <contour>
      <point x="198" y="313" type="curve" smooth="yes"/>
      <point x="165" y="313"/>
      <point x="138" y="288"/>
      <point x="138" y="255" type="curve" smooth="yes"/>
      <point x="138" y="222"/>
      <point x="165" y="195"/>
      <point x="198" y="195" type="curve" smooth="yes"/>
      <point x="230" y="195"/>
      <point x="258" y="222"/>
      <point x="258" y="255" type="curve" smooth="yes"/>
      <point x="258" y="288"/>
      <point x="230" y="313"/>
    </contour>
  </outline>
</glyph>
<glyph name="oslash" format="1">
  <advance width="472"/>
  <unicode hex="00F8"/>
  <outline>
    <contour>
      <point x="432" y="586" type="line"/>
      <point x="324" y="586" type="line"/>
      <point x="43" y="-67" type="line"/>
      <point x="148" y="-67" type="line"/>
    </contour>
    <contour>
      <point x="411" y="184" type="curve" smooth="yes"/>
      <point x="411" y="316" type="line" smooth="yes"/>
      <point x="411" y="437"/>
      <point x="345" y="510"/>
      <point x="229" y="510" type="curve" smooth="yes"/>
      <point x="108" y="510"/>
      <point x="42" y="443"/>
      <point x="42" y="316" type="curve" smooth="yes"/>
      <point x="42" y="184" type="line" smooth="yes"/>
      <point x="42" y="82"/>
      <point x="97" y="-10"/>
      <point x="229" y="-10" type="curve" smooth="yes"/>
      <point x="353" y="-10"/>
      <point x="411" y="71"/>
    </contour>
    <contour>
      <point x="298" y="322" type="curve" smooth="yes"/>
      <point x="298" y="176" type="line" smooth="yes"/>
      <point x="298" y="131"/>
      <point x="278" y="98"/>
      <point x="228" y="98" type="curve" smooth="yes"/>
      <point x="175" y="98"/>
      <point x="153" y="135"/>
      <point x="153" y="176" type="curve" smooth="yes"/>
      <point x="153" y="322" type="line" smooth="yes"/>
      <point x="153" y="373"/>
      <point x="180" y="400"/>
      <point x="228" y="400" type="curve" smooth="yes"/>
      <point x="275" y="400"/>
      <point x="298" y="370"/>
    </contour>
  </outline>
</glyph>
<glyph name="ucircumflex" format="1">
  <advance width="484"/>
  <unicode hex="00FB"/>
  <outline>
    <contour>
      <point x="330" y="26" type="curve"/>
      <point x="330" y="0" type="line"/>
      <point x="440" y="0" type="line"/>
      <point x="440" y="501" type="line"/>
      <point x="330" y="501" type="line"/>
      <point x="330" y="175" type="line" smooth="yes"/>
      <point x="330" y="129"/>
      <point x="295" y="94"/>
      <point x="250" y="94" type="curve" smooth="yes"/>
      <point x="210" y="94"/>
      <point x="182" y="124"/>
      <point x="182" y="159" type="curve" smooth="yes"/>
      <point x="182" y="501" type="line"/>
      <point x="71" y="501" type="line"/>
      <point x="71" y="157" type="line" smooth="yes"/>
      <point x="71" y="29"/>
      <point x="153" y="-7"/>
      <point x="231" y="-7" type="curve" smooth="yes"/>
      <point x="273" y="-7"/>
      <point x="317" y="12"/>
    </contour>
    <contour>
      <point x="297" y="643" type="line"/>
      <point x="169" y="770" type="line"/>
      <point x="37" y="642" type="line"/>
      <point x="89" y="591" type="line"/>
      <point x="169" y="673" type="line"/>
      <point x="244" y="592" type="line"/>
    </contour>
  </outline>
</glyph>
<glyph name="udieresis" format="1">
  <advance width="490"/>
  <unicode hex="00FC"/>
  <outline>
    <contour>
      <point x="336" y="26" type="curve"/>
      <point x="336" y="0" type="line"/>
      <point x="446" y="0" type="line"/>
      <point x="446" y="501" type="line"/>
      <point x="336" y="501" type="line"/>
      <point x="336" y="175" type="line" smooth="yes"/>
      <point x="336" y="129"/>
      <point x="301" y="94"/>
      <point x="256" y="94" type="curve" smooth="yes"/>
      <point x="216" y="94"/>
      <point x="188" y="124"/>
      <point x="188" y="159" type="curve" smooth="yes"/>
      <point x="188" y="501" type="line"/>
      <point x="77" y="501" type="line"/>
      <point x="77" y="157" type="line" smooth="yes"/>
      <point x="77" y="29"/>
      <point x="159" y="-7"/>
      <point x="237" y="-7" type="curve" smooth="yes"/>
      <point x="279" y="-7"/>
      <point x="323" y="12"/>
    </contour>
    <contour>
      <point x="94" y="767" type="curve" smooth="yes"/>
      <point x="61" y="767"/>
      <point x="34" y="740"/>
      <point x="34" y="708" type="curve" smooth="yes"/>
      <point x="34" y="675"/>
      <point x="61" y="648"/>
      <point x="94" y="648" type="curve" smooth="yes"/>
      <point x="127" y="648"/>
      <point x="153" y="675"/>
      <point x="153" y="708" type="curve" smooth="yes"/>
      <point x="153" y="740"/>
      <point x="127" y="767"/>
    </contour>
    <contour>
      <point x="252" y="767" type="curve" smooth="yes"/>
      <point x="219" y="767"/>
      <point x="192" y="740"/>
      <point x="192" y="708" type="curve" smooth="yes"/>
      <point x="192" y="675"/>
      <point x="219" y="648"/>
      <point x="252" y="648" type="curve" smooth="yes"/>
      <point x="285" y="648"/>
      <point x="312" y="675"/>
      <point x="312" y="708" type="curve" smooth="yes"/>
      <point x="312" y="740"/>
      <point x="285" y="767"/>
    </contour>
  </outline>
</glyph>
<glyph name="yacute" format="1">
  <advance width="498"/>
  <unicode hex="00FD"/>
  <outline>
    <contour>
      <point x="461" y="433" type="curve"/>
      <point x="427" y="510" type="line"/>
      <point x="337" y="510"/>
      <point x="304" y="448"/>
      <point x="304" y="392" type="curve" smooth="yes"/>
      <point x="304" y="176" type="line" smooth="yes"/>
      <point x="304" y="130"/>
      <point x="269" y="94"/>
      <point x="224" y="94" type="curve" smooth="yes"/>
      <point x="183" y="94"/>
      <point x="155" y="123"/>
      <point x="155" y="161" type="curve" smooth="yes"/>
      <point x="155" y="501" type="line"/>
      <point x="44" y="501" type="line"/>
      <point x="44" y="158" type="line" smooth="yes"/>
      <point x="44" y="30"/>
      <point x="125" y="-6"/>
      <point x="204" y="-6" type="curve" smooth="yes"/>
      <point x="246" y="-6"/>
      <point x="291" y="13"/>
      <point x="304" y="28" type="curve"/>
      <point x="304" y="-48" type="line" smooth="yes"/>
      <point x="304" y="-72"/>
      <point x="297" y="-89"/>
      <point x="284" y="-101" type="curve" smooth="yes"/>
      <point x="270" y="-114"/>
      <point x="251" y="-124"/>
      <point x="234" y="-124" type="curve"/>
      <point x="263" y="-213" type="line"/>
      <point x="296" y="-213"/>
      <point x="339" y="-199"/>
      <point x="366" y="-179" type="curve" smooth="yes"/>
      <point x="399" y="-157"/>
      <point x="414" y="-116"/>
      <point x="414" y="-59" type="curve" smooth="yes"/>
      <point x="414" y="362" type="line" smooth="yes"/>
      <point x="414" y="395"/>
      <point x="422" y="425"/>
    </contour>
    <contour>
      <point x="215" y="671" type="line" smooth="yes"/>
      <point x="233" y="693"/>
      <point x="233" y="727"/>
      <point x="208" y="741" type="curve" smooth="yes"/>
      <point x="182" y="757"/>
      <point x="150" y="738"/>
      <point x="143" y="712" type="curve" smooth="yes"/>
      <point x="113" y="596" type="line"/>
      <point x="157" y="596" type="line"/>
    </contour>
  </outline>
</glyph>
<glyph name="ydieresis" format="1">
  <advance width="530"/>
  <unicode hex="00FF"/>
  <outline>
    <contour>
      <point x="493" y="433" type="curve"/>
      <point x="459" y="510" type="line"/>
      <point x="369" y="510"/>
      <point x="336" y="448"/>
      <point x="336" y="392" type="curve" smooth="yes"/>
      <point x="336" y="176" type="line" smooth="yes"/>
      <point x="336" y="130"/>
      <point x="301" y="94"/>
      <point x="256" y="94" type="curve" smooth="yes"/>
      <point x="215" y="94"/>
      <point x="187" y="123"/>
      <point x="187" y="161" type="curve" smooth="yes"/>
      <point x="187" y="501" type="line"/>
      <point x="76" y="501" type="line"/>
      <point x="76" y="158" type="line" smooth="yes"/>
      <point x="76" y="30"/>
      <point x="157" y="-6"/>
      <point x="236" y="-6" type="curve" smooth="yes"/>
      <point x="278" y="-6"/>
      <point x="323" y="13"/>
      <point x="336" y="28" type="curve"/>
      <point x="336" y="-48" type="line" smooth="yes"/>
      <point x="336" y="-72"/>
      <point x="329" y="-89"/>
      <point x="316" y="-101" type="curve" smooth="yes"/>
      <point x="302" y="-114"/>
      <point x="283" y="-124"/>
      <point x="266" y="-124" type="curve"/>
      <point x="295" y="-213" type="line"/>
      <point x="328" y="-213"/>
      <point x="371" y="-199"/>
      <point x="398" y="-179" type="curve" smooth="yes"/>
      <point x="431" y="-157"/>
      <point x="446" y="-116"/>
      <point x="446" y="-59" type="curve" smooth="yes"/>
      <point x="446" y="362" type="line" smooth="yes"/>
      <point x="446" y="395"/>
      <point x="454" y="425"/>
    </contour>
    <contour>
      <point x="94" y="767" type="curve" smooth="yes"/>
      <point x="61" y="767"/>
      <point x="34" y="740"/>
      <point x="34" y="708" type="curve" smooth="yes"/>
      <point x="34" y="675"/>
      <point x="61" y="648"/>
      <point x="94" y="648" type="curve" smooth="yes"/>
      <point x="127" y="648"/>
      <point x="153" y="675"/>
      <point x="153" y="708" type="curve" smooth="yes"/>
      <point x="153" y="740"/>
      <point x="127" y="767"/>
    </contour>
    <contour>
      <point x="252" y="767" type="curve" smooth="yes"/>
      <point x="219" y="767"/>
      <point x="192" y="740"/>
      <point x="192" y="708" type="curve" smooth="yes"/>
      <point x="192" y="675"/>
      <point x="219" y="648"/>
      <point x="252" y="648" type="curve" smooth="yes"/>
      <point x="285" y="648"/>
      <point x="312" y="675"/>
      <point x="312" y="708" type="curve" smooth="yes"/>
      <point x="312" y="740"/>
      <point x="285" y="767"/>
    </contour>
  </outline>
</glyph>
<glyph name="abreve" format="1">
  <advance width="479"/>
  <unicode hex="0103"/>
  <outline>
    <contour>
      <point x="327" y="334" type="curve"/>
      <point x="296" y="378"/>
      <point x="233" y="400"/>
      <point x="187" y="400" type="curve" smooth="yes"/>
      <point x="114" y="400"/>
      <point x="52" y="354"/>
      <point x="52" y="252" type="curve"/>
      <point x="52" y="252"/>
      <point x="52" y="155"/>
      <point x="52" y="155" type="curve"/>
      <point x="56" y="28"/>
      <point x="143" y="-11"/>
      <point x="257" y="-11" type="curve" smooth="yes"/>
      <point x="324" y="-11"/>
      <point x="382" y="-8"/>
      <point x="437" y="0" type="curve"/>
      <point x="437" y="0"/>
      <point x="437" y="194"/>
      <point x="437" y="306" type="curve" smooth="yes"/>
      <point x="437" y="398"/>
      <point x="414" y="442"/>
      <point x="390" y="464" type="curve" smooth="yes"/>
      <point x="346" y="504"/>
      <point x="282" y="508"/>
      <point x="229" y="508" type="curve"/>
      <point x="220" y="433" type="line"/>
      <point x="262" y="433"/>
      <point x="291" y="422"/>
      <point x="308" y="406" type="curve" smooth="yes"/>
      <point x="320" y="395"/>
      <point x="327" y="377"/>
    </contour>
    <contour>
      <point x="327" y="252" type="curve"/>
      <point x="327" y="252"/>
      <point x="327" y="94"/>
      <point x="327" y="94" type="curve"/>
      <point x="327" y="94"/>
      <point x="283" y="90"/>
      <point x="266" y="90" type="curve" smooth="yes"/>
      <point x="176" y="90"/>
      <point x="163" y="123"/>
      <point x="163" y="173" type="curve" smooth="yes"/>
      <point x="163" y="190"/>
      <point x="163" y="218"/>
      <point x="163" y="238" type="curve" smooth="yes"/>
      <point x="163" y="275"/>
      <point x="187" y="287"/>
      <point x="218" y="287" type="curve" smooth="yes"/>
      <point x="264" y="287"/>
      <point x="315" y="260"/>
    </contour>
    <contour>
      <point x="269" y="705" type="line"/>
      <point x="190" y="705" type="line"/>
      <point x="190" y="698" type="line" smooth="yes"/>
      <point x="190" y="680"/>
      <point x="175" y="664"/>
      <point x="156" y="664" type="curve" smooth="yes"/>
      <point x="137" y="664"/>
      <point x="122" y="680"/>
      <point x="122" y="698" type="curve" smooth="yes"/>
      <point x="122" y="705" type="line"/>
      <point x="42" y="705" type="line"/>
      <point x="42" y="698" type="line" smooth="yes"/>
      <point x="42" y="636"/>
      <point x="93" y="585"/>
      <point x="156" y="585" type="curve" smooth="yes"/>
      <point x="217" y="585"/>
      <point x="269" y="636"/>
      <point x="269" y="698" type="curve" smooth="yes"/>
    </contour>
  </outline>
</glyph>
<glyph name="Aogonek" format="1">
  <advance width="581"/>
  <unicode hex="0104"/>
  <outline>
    <contour>
      <point x="549" y="0" type="line"/>
      <point x="377" y="698" type="line"/>
      <point x="222" y="698" type="line"/>
      <point x="53" y="0" type="line"/>
      <point x="177" y="0" type="line"/>
      <point x="217" y="183" type="line"/>
      <point x="378" y="183" type="line"/>
      <point x="418" y="0" type="line"/>
    </contour>
    <contour>
      <point x="244" y="300" type="line"/>
      <point x="298" y="515" type="line"/>
      <point x="353" y="300" type="line"/>
    </contour>
    <contour>
      <point x="212" y="16" type="line"/>
      <point x="122" y="7" type="line"/>
      <point x="122" y="3" type="line"/>
      <point x="67" y="-87" type="line" smooth="yes"/>
      <point x="17" y="-175"/>
      <point x="85" y="-251"/>
      <point x="177" y="-224" type="curve" smooth="yes"/>
      <point x="199" y="-218"/>
      <point x="281" y="-190"/>
      <point x="282" y="-190" type="curve"/>
      <point x="257" y="-118" type="line"/>
      <point x="257" y="-118"/>
      <point x="182" y="-144"/>
      <point x="154" y="-154" type="curve"/>
      <point x="130" y="-164"/>
      <point x="119" y="-142"/>
      <point x="130" y="-123" type="curve"/>
      <point x="212" y="2" type="line"/>
    </contour>
  </outline>
</glyph>
<glyph name="Ccircumflex" format="1">
  <advance width="469"/>
  <unicode hex="0108"/>
  <outline>
    <contour>
      <point x="376" y="582" type="curve"/>
      <point x="406" y="675" type="line"/>
      <point x="359" y="698"/>
      <point x="310" y="710"/>
      <point x="262" y="710" type="curve" smooth="yes"/>
      <point x="151" y="710"/>
      <point x="70" y="640"/>
      <point x="70" y="509" type="curve" smooth="yes"/>
      <point x="70" y="183" type="line" smooth="yes"/>
      <point x="70" y="113"/>
      <point x="93" y="64"/>
      <point x="129" y="32" type="curve" smooth="yes"/>
      <point x="164" y="2"/>
      <point x="213" y="-12"/>
      <point x="267" y="-12" type="curve" smooth="yes"/>
      <point x="318" y="-11"/>
      <point x="373" y="1"/>
      <point x="430" y="23" type="curve"/>
      <point x="414" y="127" type="line"/>
      <point x="402" y="127"/>
      <point x="334" y="100"/>
      <point x="273" y="100" type="curve" smooth="yes"/>
      <point x="213" y="100"/>
      <point x="180" y="123"/>
      <point x="180" y="185" type="curve" smooth="yes"/>
      <point x="180" y="512" type="line" smooth="yes"/>
      <point x="180" y="575"/>
      <point x="216" y="599"/>
      <point x="282" y="599" type="curve" smooth="yes"/>
      <point x="312" y="599"/>
      <point x="349" y="592"/>
    </contour>
    <contour>
      <point x="297" y="643" type="line"/>
      <point x="169" y="770" type="line"/>
      <point x="37" y="642" type="line"/>
      <point x="89" y="591" type="line"/>
      <point x="169" y="673" type="line"/>
      <point x="244" y="592" type="line"/>
    </contour>
  </outline>
</glyph>
<glyph name="Cdotaccent" format="1">
  <advance width="445"/>
  <unicode hex="010A"/>
  <outline>
    <contour>
      <point x="352" y="582" type="curve"/>
      <point x="382" y="675" type="line"/>
      <point x="335" y="698"/>
      <point x="286" y="710"/>
      <point x="238" y="710" type="curve" smooth="yes"/>
      <point x="127" y="710"/>
      <point x="46" y="640"/>
      <point x="46" y="509" type="curve" smooth="yes"/>
      <point x="46" y="183" type="line" smooth="yes"/>
      <point x="46" y="113"/>
      <point x="69" y="64"/>
      <point x="105" y="32" type="curve" smooth="yes"/>
      <point x="140" y="2"/>
      <point x="189" y="-12"/>
      <point x="243" y="-12" type="curve" smooth="yes"/>
      <point x="294" y="-11"/>
      <point x="349" y="1"/>
      <point x="406" y="23" type="curve"/>
      <point x="390" y="127" type="line"/>
      <point x="378" y="127"/>
      <point x="310" y="100"/>
      <point x="249" y="100" type="curve" smooth="yes"/>
      <point x="189" y="100"/>
      <point x="156" y="123"/>
      <point x="156" y="185" type="curve" smooth="yes"/>
      <point x="156" y="512" type="line" smooth="yes"/>
      <point x="156" y="575"/>
      <point x="192" y="599"/>
      <point x="258" y="599" type="curve" smooth="yes"/>
      <point x="288" y="599"/>
      <point x="325" y="592"/>
    </contour>
    <contour>
      <point x="143" y="774" type="curve" smooth="yes"/>
      <point x="110" y="774"/>
      <point x="83" y="749"/>
      <point x="83" y="716" type="curve" smooth="yes"/>
      <point x="83" y="683"/>
      <point x="110" y="656"/>
      <point x="143" y="656" type="curve" smooth="yes"/>
      <point x="176" y="656"/>
      <point x="202" y="683"/>
      <point x="202" y="716" type="curve" smooth="yes"/>
      <point x="202" y="749"/>
      <point x="176" y="774"/>
    </contour>
  </outline>
</glyph>
<glyph name="cdotaccent" format="1">
  <advance width="404"/>
  <unicode hex="010B"/>
  <outline>
    <contour>
      <point x="338" y="392" type="curve"/>
      <point x="363" y="477" type="line"/>
      <point x="305" y="503"/>
      <point x="241" y="518"/>
      <point x="181" y="505" type="curve" smooth="yes"/>
      <point x="136" y="495"/>
      <point x="97" y="471"/>
      <point x="71" y="427" type="curve" smooth="yes"/>
      <point x="52" y="395"/>
      <point x="45" y="363"/>
      <point x="43" y="319" type="curve"/>
      <point x="43" y="173" type="line" smooth="yes"/>
      <point x="43" y="75"/>
      <point x="87" y="23"/>
      <point x="155" y="1" type="curve" smooth="yes"/>
      <point x="225" y="-20"/>
      <point x="299" y="-12"/>
      <point x="365" y="5" type="curve"/>
      <point x="345" y="94" type="line"/>
      <point x="345" y="94"/>
      <point x="299" y="84"/>
      <point x="256" y="84" type="curve" smooth="yes"/>
      <point x="194" y="84"/>
      <point x="152" y="113"/>
      <point x="152" y="174" type="curve" smooth="yes"/>
      <point x="152" y="331" type="line" smooth="yes"/>
      <point x="152" y="351"/>
      <point x="158" y="367"/>
      <point x="165" y="380" type="curve"/>
      <point x="177" y="398"/>
      <point x="198" y="409"/>
      <point x="221" y="413" type="curve" smooth="yes"/>
      <point x="260" y="420"/>
      <point x="303" y="408"/>
    </contour>
    <contour>
      <point x="145" y="774" type="curve" smooth="yes"/>
      <point x="112" y="774"/>
      <point x="85" y="749"/>
      <point x="85" y="716" type="curve" smooth="yes"/>
      <point x="85" y="683"/>
      <point x="112" y="656"/>
      <point x="145" y="656" type="curve" smooth="yes"/>
      <point x="178" y="656"/>
      <point x="204" y="683"/>
      <point x="204" y="716" type="curve" smooth="yes"/>
      <point x="204" y="749"/>
      <point x="178" y="774"/>
    </contour>
  </outline>
</glyph>
<glyph name="ccaron" format="1">
  <advance width="426"/>
  <unicode hex="010D"/>
  <outline>
    <contour>
      <point x="360" y="392" type="curve"/>
      <point x="385" y="477" type="line"/>
      <point x="327" y="503"/>
      <point x="263" y="518"/>
      <point x="203" y="505" type="curve" smooth="yes"/>
      <point x="158" y="495"/>
      <point x="119" y="471"/>
      <point x="93" y="427" type="curve" smooth="yes"/>
      <point x="74" y="395"/>
      <point x="67" y="363"/>
      <point x="65" y="319" type="curve"/>
      <point x="65" y="173" type="line" smooth="yes"/>
      <point x="65" y="75"/>
      <point x="109" y="23"/>
      <point x="177" y="1" type="curve" smooth="yes"/>
      <point x="247" y="-20"/>
      <point x="321" y="-12"/>
      <point x="387" y="5" type="curve"/>
      <point x="367" y="94" type="line"/>
      <point x="367" y="94"/>
      <point x="321" y="84"/>
      <point x="278" y="84" type="curve" smooth="yes"/>
      <point x="216" y="84"/>
      <point x="174" y="113"/>
      <point x="174" y="174" type="curve" smooth="yes"/>
      <point x="174" y="331" type="line" smooth="yes"/>
      <point x="174" y="351"/>
      <point x="180" y="367"/>
      <point x="187" y="380" type="curve"/>
      <point x="199" y="398"/>
      <point x="220" y="409"/>
      <point x="243" y="413" type="curve" smooth="yes"/>
      <point x="282" y="420"/>
      <point x="325" y="408"/>
    </contour>
    <contour>
      <point x="297" y="716" type="line"/>
      <point x="245" y="768" type="line"/>
      <point x="165" y="686" type="line"/>
      <point x="90" y="767" type="line"/>
      <point x="37" y="715" type="line"/>
      <point x="165" y="588" type="line"/>
    </contour>
  </outline>
</glyph>
<glyph name="Dcaron" format="1">
  <advance width="537"/>
  <unicode hex="010E"/>
  <outline>
    <contour>
      <point x="262" y="700" type="curve" smooth="yes"/>
      <point x="74" y="700" type="line"/>
      <point x="74" y="0" type="line"/>
      <point x="282" y="0" type="line" smooth="yes"/>
      <point x="423" y="0"/>
      <point x="494" y="74"/>
      <point x="494" y="206" type="curve" smooth="yes"/>
      <point x="494" y="473" type="line" smooth="yes"/>
      <point x="494" y="609"/>
      <point x="413" y="700"/>
    </contour>
    <contour>
      <point x="267" y="101" type="curve" smooth="yes"/>
      <point x="184" y="101" type="line"/>
      <point x="184" y="588" type="line"/>
      <point x="272" y="588" type="line" smooth="yes"/>
      <point x="348" y="588"/>
      <point x="384" y="555"/>
      <point x="384" y="483" type="curve" smooth="yes"/>
      <point x="384" y="196" type="line" smooth="yes"/>
      <point x="384" y="156"/>
      <point x="378" y="101"/>
    </contour>
    <contour>
      <point x="296" y="716" type="line"/>
      <point x="244" y="768" type="line"/>
      <point x="164" y="686" type="line"/>
      <point x="89" y="767" type="line"/>
      <point x="36" y="715" type="line"/>
      <point x="164" y="588" type="line"/>
    </contour>
  </outline>
</glyph>
<glyph name="emacron" format="1">
  <advance width="453"/>
  <unicode hex="0113"/>
  <outline>
    <contour>
      <point x="165" y="148" type="curve" smooth="yes"/>
      <point x="165" y="173" type="line"/>
      <point x="414" y="186" type="line"/>
      <point x="414" y="342" type="line" smooth="yes"/>
      <point x="414" y="402"/>
      <point x="392" y="449"/>
      <point x="353" y="477" type="curve" smooth="yes"/>
      <point x="324" y="498"/>
      <point x="285" y="509"/>
      <point x="238" y="509" type="curve" smooth="yes"/>
      <point x="187" y="509"/>
      <point x="145" y="496"/>
      <point x="114" y="472" type="curve" smooth="yes"/>
      <point x="76" y="442"/>
      <point x="54" y="397"/>
      <point x="54" y="339" type="curve" smooth="yes"/>
      <point x="54" y="134" type="line" smooth="yes"/>
      <point x="54" y="80"/>
      <point x="74" y="43"/>
      <point x="104" y="20" type="curve" smooth="yes"/>
      <point x="135" y="-3"/>
      <point x="175" y="-13"/>
      <point x="219" y="-13" type="curve" smooth="yes"/>
      <point x="279" y="-13"/>
      <point x="342" y="5"/>
      <point x="389" y="35" type="curve"/>
      <point x="349" y="130" type="line"/>
      <point x="306" y="108"/>
      <point x="258" y="90"/>
      <point x="222" y="90" type="curve" smooth="yes"/>
      <point x="203" y="90"/>
      <point x="190" y="95"/>
      <point x="180" y="106" type="curve" smooth="yes"/>
      <point x="170" y="116"/>
      <point x="165" y="129"/>
    </contour>
    <contour>
      <point x="303" y="312" type="curve" smooth="yes"/>
      <point x="303" y="305"/>
      <point x="303" y="289"/>
      <point x="303" y="283" type="curve"/>
      <point x="165" y="274" type="line"/>
      <point x="165" y="284"/>
      <point x="165" y="304"/>
      <point x="165" y="313" type="curve" smooth="yes"/>
      <point x="165" y="345"/>
      <point x="167" y="367"/>
      <point x="184" y="385" type="curve"/>
      <point x="195" y="395"/>
      <point x="213" y="403"/>
      <point x="237" y="404" type="curve" smooth="yes"/>
      <point x="258" y="404"/>
      <point x="272" y="397"/>
      <point x="282" y="388" type="curve" smooth="yes"/>
      <point x="301" y="371"/>
      <point x="303" y="348"/>
    </contour>
    <contour>
      <point x="264" y="708" type="line"/>
      <point x="43" y="708" type="line"/>
      <point x="43" y="618" type="line"/>
      <point x="264" y="618" type="line"/>
    </contour>
  </outline>
</glyph>
<glyph name="edotaccent" format="1">
  <advance width="443"/>
  <unicode hex="0117"/>
  <outline>
    <contour>
      <point x="155" y="148" type="curve" smooth="yes"/>
      <point x="155" y="173" type="line"/>
      <point x="404" y="186" type="line"/>
      <point x="404" y="342" type="line" smooth="yes"/>
      <point x="404" y="402"/>
      <point x="382" y="449"/>
      <point x="343" y="477" type="curve" smooth="yes"/>
      <point x="314" y="498"/>
      <point x="275" y="509"/>
      <point x="228" y="509" type="curve" smooth="yes"/>
      <point x="177" y="509"/>
      <point x="135" y="496"/>
      <point x="104" y="472" type="curve" smooth="yes"/>
      <point x="66" y="442"/>
      <point x="44" y="397"/>
      <point x="44" y="339" type="curve" smooth="yes"/>
      <point x="44" y="134" type="line" smooth="yes"/>
      <point x="44" y="80"/>
      <point x="64" y="43"/>
      <point x="94" y="20" type="curve" smooth="yes"/>
      <point x="125" y="-3"/>
      <point x="165" y="-13"/>
      <point x="209" y="-13" type="curve" smooth="yes"/>
      <point x="269" y="-13"/>
      <point x="332" y="5"/>
      <point x="379" y="35" type="curve"/>
      <point x="339" y="130" type="line"/>
      <point x="296" y="108"/>
      <point x="248" y="90"/>
      <point x="212" y="90" type="curve" smooth="yes"/>
      <point x="193" y="90"/>
      <point x="180" y="95"/>
      <point x="170" y="106" type="curve" smooth="yes"/>
      <point x="160" y="116"/>
      <point x="155" y="129"/>
    </contour>
    <contour>
      <point x="293" y="312" type="curve" smooth="yes"/>
      <point x="293" y="305"/>
      <point x="293" y="289"/>
      <point x="293" y="283" type="curve"/>
      <point x="155" y="274" type="line"/>
      <point x="155" y="284"/>
      <point x="155" y="304"/>
      <point x="155" y="313" type="curve" smooth="yes"/>
      <point x="155" y="345"/>
      <point x="157" y="367"/>
      <point x="174" y="385" type="curve"/>
      <point x="185" y="395"/>
      <point x="203" y="403"/>
      <point x="227" y="404" type="curve" smooth="yes"/>
      <point x="248" y="404"/>
      <point x="262" y="397"/>
      <point x="272" y="388" type="curve" smooth="yes"/>
      <point x="291" y="371"/>
      <point x="293" y="348"/>
    </contour>
    <contour>
      <point x="144" y="774" type="curve" smooth="yes"/>
      <point x="111" y="774"/>
      <point x="84" y="749"/>
      <point x="84" y="716" type="curve" smooth="yes"/>
      <point x="84" y="683"/>
      <point x="111" y="656"/>
      <point x="144" y="656" type="curve" smooth="yes"/>
      <point x="177" y="656"/>
      <point x="203" y="683"/>
      <point x="203" y="716" type="curve" smooth="yes"/>
      <point x="203" y="749"/>
      <point x="177" y="774"/>
    </contour>
  </outline>
</glyph>
<glyph name="eogonek" format="1">
  <advance width="466"/>
  <unicode hex="0119"/>
  <outline>
    <contour>
      <point x="177" y="148" type="curve" smooth="yes"/>
      <point x="177" y="173" type="line"/>
      <point x="426" y="186" type="line"/>
      <point x="426" y="342" type="line" smooth="yes"/>
      <point x="426" y="402"/>
      <point x="404" y="449"/>
      <point x="365" y="477" type="curve" smooth="yes"/>
      <point x="336" y="498"/>
      <point x="297" y="509"/>
      <point x="250" y="509" type="curve" smooth="yes"/>
      <point x="199" y="509"/>
      <point x="157" y="496"/>
      <point x="126" y="472" type="curve" smooth="yes"/>
      <point x="88" y="442"/>
      <point x="66" y="397"/>
      <point x="66" y="339" type="curve" smooth="yes"/>
      <point x="66" y="134" type="line" smooth="yes"/>
      <point x="66" y="80"/>
      <point x="86" y="43"/>
      <point x="116" y="20" type="curve" smooth="yes"/>
      <point x="147" y="-3"/>
      <point x="187" y="-13"/>
      <point x="231" y="-13" type="curve" smooth="yes"/>
      <point x="291" y="-13"/>
      <point x="354" y="5"/>
      <point x="401" y="35" type="curve"/>
      <point x="361" y="130" type="line"/>
      <point x="318" y="108"/>
      <point x="270" y="90"/>
      <point x="234" y="90" type="curve" smooth="yes"/>
      <point x="215" y="90"/>
      <point x="202" y="95"/>
      <point x="192" y="106" type="curve" smooth="yes"/>
      <point x="182" y="116"/>
      <point x="177" y="129"/>
    </contour>
    <contour>
      <point x="315" y="312" type="curve" smooth="yes"/>
      <point x="315" y="305"/>
      <point x="315" y="289"/>
      <point x="315" y="283" type="curve"/>
      <point x="177" y="274" type="line"/>
      <point x="177" y="284"/>
      <point x="177" y="304"/>
      <point x="177" y="313" type="curve" smooth="yes"/>
      <point x="177" y="345"/>
      <point x="179" y="367"/>
      <point x="196" y="385" type="curve"/>
      <point x="207" y="395"/>
      <point x="225" y="403"/>
      <point x="249" y="404" type="curve" smooth="yes"/>
      <point x="270" y="404"/>
      <point x="284" y="397"/>
      <point x="294" y="388" type="curve" smooth="yes"/>
      <point x="313" y="371"/>
      <point x="315" y="348"/>
    </contour>
    <contour>
      <point x="216" y="16" type="line"/>
      <point x="126" y="7" type="line"/>
      <point x="126" y="3" type="line"/>
      <point x="71" y="-87" type="line" smooth="yes"/>
      <point x="21" y="-175"/>
      <point x="89" y="-251"/>
      <point x="181" y="-224" type="curve" smooth="yes"/>
      <point x="203" y="-218"/>
      <point x="285" y="-190"/>
      <point x="286" y="-190" type="curve"/>
      <point x="261" y="-118" type="line"/>
      <point x="261" y="-118"/>
      <point x="186" y="-144"/>
      <point x="158" y="-154" type="curve"/>
      <point x="134" y="-164"/>
      <point x="123" y="-142"/>
      <point x="134" y="-123" type="curve"/>
      <point x="216" y="2" type="line"/>
    </contour>
  </outline>
</glyph>
<glyph name="Ecaron" format="1">
  <advance width="454"/>
  <unicode hex="011A"/>
  <outline>
    <contour>
      <point x="74" y="0" type="line"/>
      <point x="406" y="0" type="line"/>
      <point x="406" y="100" type="line"/>
      <point x="184" y="100" type="line"/>
      <point x="184" y="308" type="line"/>
      <point x="290" y="308" type="line"/>
      <point x="321" y="413" type="line"/>
      <point x="184" y="413" type="line"/>
      <point x="184" y="588" type="line"/>
      <point x="408" y="588" type="line"/>
      <point x="408" y="698" type="line"/>
      <point x="74" y="698" type="line"/>
    </contour>
    <contour>
      <point x="296" y="716" type="line"/>
      <point x="244" y="768" type="line"/>
      <point x="164" y="686" type="line"/>
      <point x="89" y="767" type="line"/>
      <point x="36" y="715" type="line"/>
      <point x="164" y="588" type="line"/>
    </contour>
  </outline>
</glyph>
<glyph name="gcircumflex" format="1">
  <advance width="480"/>
  <unicode hex="011D"/>
  <outline>
    <contour>
      <point x="436" y="-64" type="curve" smooth="yes"/>
      <point x="436" y="499" type="line"/>
      <point x="326" y="499" type="line"/>
      <point x="326" y="477" type="line"/>
      <point x="295" y="498"/>
      <point x="261" y="509"/>
      <point x="224" y="509" type="curve" smooth="yes"/>
      <point x="121" y="509"/>
      <point x="66" y="446"/>
      <point x="66" y="345" type="curve" smooth="yes"/>
      <point x="66" y="176" type="line" smooth="yes"/>
      <point x="66" y="53"/>
      <point x="125" y="-12"/>
      <point x="236" y="-12" type="curve" smooth="yes"/>
      <point x="269" y="-12"/>
      <point x="303" y="-3"/>
      <point x="326" y="12" type="curve"/>
      <point x="326" y="-53" type="line" smooth="yes"/>
      <point x="326" y="-106"/>
      <point x="286" y="-124"/>
      <point x="253" y="-124" type="curve"/>
      <point x="280" y="-210" type="line"/>
      <point x="375" y="-210"/>
      <point x="436" y="-169"/>
    </contour>
    <contour>
      <point x="326" y="386" type="curve"/>
      <point x="326" y="139" type="line" smooth="yes"/>
      <point x="326" y="116"/>
      <point x="300" y="92"/>
      <point x="245" y="88" type="curve"/>
      <point x="198" y="88"/>
      <point x="176" y="120"/>
      <point x="176" y="159" type="curve" smooth="yes"/>
      <point x="176" y="337" type="line" smooth="yes"/>
      <point x="176" y="393"/>
      <point x="211" y="410"/>
      <point x="250" y="410" type="curve" smooth="yes"/>
      <point x="284" y="410"/>
      <point x="326" y="386"/>
    </contour>
    <contour>
      <point x="297" y="643" type="line"/>
      <point x="169" y="770" type="line"/>
      <point x="37" y="642" type="line"/>
      <point x="89" y="591" type="line"/>
      <point x="169" y="673" type="line"/>
      <point x="244" y="592" type="line"/>
    </contour>
  </outline>
</glyph>
<glyph name="Gbreve" format="1">
  <advance width="511"/>
  <unicode hex="011E"/>
  <outline>
    <contour>
      <point x="362" y="576" type="curve"/>
      <point x="395" y="675" type="line"/>
      <point x="356" y="695"/>
      <point x="313" y="706"/>
      <point x="265" y="708" type="curve" smooth="yes"/>
      <point x="211" y="708"/>
      <point x="176" y="700"/>
      <point x="146" y="683" type="curve" smooth="yes"/>
      <point x="88" y="648"/>
      <point x="59" y="587"/>
      <point x="59" y="502" type="curve" smooth="yes"/>
      <point x="59" y="189" type="line" smooth="yes"/>
      <point x="59" y="123"/>
      <point x="78" y="73"/>
      <point x="120" y="40" type="curve" smooth="yes"/>
      <point x="161" y="7"/>
      <point x="210" y="-10"/>
      <point x="270" y="-10" type="curve" smooth="yes"/>
      <point x="295" y="-10"/>
      <point x="325" y="-4"/>
      <point x="360" y="8" type="curve"/>
      <point x="365" y="0" type="line"/>
      <point x="470" y="0" type="line"/>
      <point x="470" y="300" type="line"/>
      <point x="268" y="300" type="line"/>
      <point x="303" y="195" type="line"/>
      <point x="360" y="195" type="line"/>
      <point x="360" y="186" type="line" smooth="yes"/>
      <point x="360" y="159"/>
      <point x="352" y="139"/>
      <point x="340" y="125" type="curve" smooth="yes"/>
      <point x="325" y="109"/>
      <point x="301" y="101"/>
      <point x="269" y="101" type="curve" smooth="yes"/>
      <point x="204" y="101"/>
      <point x="169" y="123"/>
      <point x="169" y="187" type="curve" smooth="yes"/>
      <point x="169" y="510" type="line" smooth="yes"/>
      <point x="169" y="549"/>
      <point x="182" y="571"/>
      <point x="206" y="583" type="curve" smooth="yes"/>
      <point x="223" y="591"/>
      <point x="245" y="594"/>
      <point x="271" y="594" type="curve" smooth="yes"/>
      <point x="299" y="594"/>
      <point x="330" y="587"/>
    </contour>
    <contour>
      <point x="269" y="705" type="line"/>
      <point x="190" y="705" type="line"/>
      <point x="190" y="698" type="line" smooth="yes"/>
      <point x="190" y="680"/>
      <point x="175" y="664"/>
      <point x="156" y="664" type="curve" smooth="yes"/>
      <point x="137" y="664"/>
      <point x="122" y="680"/>
      <point x="122" y="698" type="curve" smooth="yes"/>
      <point x="122" y="705" type="line"/>
      <point x="42" y="705" type="line"/>
      <point x="42" y="698" type="line" smooth="yes"/>
      <point x="42" y="636"/>
      <point x="93" y="585"/>
      <point x="156" y="585" type="curve" smooth="yes"/>
      <point x="217" y="585"/>
      <point x="269" y="636"/>
      <point x="269" y="698" type="curve" smooth="yes"/>
    </contour>
  </outline>
</glyph>
<glyph name="gdotaccent" format="1">
  <advance width="457"/>
  <unicode hex="0121"/>
  <outline>
    <contour>
      <point x="413" y="-64" type="curve" smooth="yes"/>
      <point x="413" y="499" type="line"/>
      <point x="303" y="499" type="line"/>
      <point x="303" y="477" type="line"/>
      <point x="272" y="498"/>
      <point x="238" y="509"/>
      <point x="201" y="509" type="curve" smooth="yes"/>
      <point x="98" y="509"/>
      <point x="43" y="446"/>
      <point x="43" y="345" type="curve" smooth="yes"/>
      <point x="43" y="176" type="line" smooth="yes"/>
      <point x="43" y="53"/>
      <point x="102" y="-12"/>
      <point x="213" y="-12" type="curve" smooth="yes"/>
      <point x="246" y="-12"/>
      <point x="280" y="-3"/>
      <point x="303" y="12" type="curve"/>
      <point x="303" y="-53" type="line" smooth="yes"/>
      <point x="303" y="-106"/>
      <point x="263" y="-124"/>
      <point x="230" y="-124" type="curve"/>
      <point x="257" y="-210" type="line"/>
      <point x="352" y="-210"/>
      <point x="413" y="-169"/>
    </contour>
    <contour>
      <point x="303" y="386" type="curve"/>
      <point x="303" y="139" type="line" smooth="yes"/>
      <point x="303" y="116"/>
      <point x="277" y="92"/>
      <point x="222" y="88" type="curve"/>
      <point x="175" y="88"/>
      <point x="153" y="120"/>
      <point x="153" y="159" type="curve" smooth="yes"/>
      <point x="153" y="337" type="line" smooth="yes"/>
      <point x="153" y="393"/>
      <point x="188" y="410"/>
      <point x="227" y="410" type="curve" smooth="yes"/>
      <point x="261" y="410"/>
      <point x="303" y="386"/>
    </contour>
    <contour>
      <point x="144" y="774" type="curve" smooth="yes"/>
      <point x="111" y="774"/>
      <point x="84" y="749"/>
      <point x="84" y="716" type="curve" smooth="yes"/>
      <point x="84" y="683"/>
      <point x="111" y="656"/>
      <point x="144" y="656" type="curve" smooth="yes"/>
      <point x="177" y="656"/>
      <point x="203" y="683"/>
      <point x="203" y="716" type="curve" smooth="yes"/>
      <point x="203" y="749"/>
      <point x="177" y="774"/>
    </contour>
  </outline>
</glyph>
<glyph name="gcommaaccent" format="1">
  <advance width="457"/>
  <unicode hex="0123"/>
  <outline>
    <contour>
      <point x="413" y="-64" type="curve" smooth="yes"/>
      <point x="413" y="499" type="line"/>
      <point x="303" y="499" type="line"/>
      <point x="303" y="477" type="line"/>
      <point x="272" y="498"/>
      <point x="238" y="509"/>
      <point x="201" y="509" type="curve" smooth="yes"/>
      <point x="98" y="509"/>
      <point x="43" y="446"/>
      <point x="43" y="345" type="curve" smooth="yes"/>
      <point x="43" y="176" type="line" smooth="yes"/>
      <point x="43" y="53"/>
      <point x="102" y="-12"/>
      <point x="213" y="-12" type="curve" smooth="yes"/>
      <point x="246" y="-12"/>
      <point x="280" y="-3"/>
      <point x="303" y="12" type="curve"/>
      <point x="303" y="-53" type="line" smooth="yes"/>
      <point x="303" y="-106"/>
      <point x="263" y="-124"/>
      <point x="230" y="-124" type="curve"/>
      <point x="257" y="-210" type="line"/>
      <point x="352" y="-210"/>
      <point x="413" y="-169"/>
    </contour>
    <contour>
      <point x="303" y="386" type="curve"/>
      <point x="303" y="139" type="line" smooth="yes"/>
      <point x="303" y="116"/>
      <point x="277" y="92"/>
      <point x="222" y="88" type="curve"/>
      <point x="175" y="88"/>
      <point x="153" y="120"/>
      <point x="153" y="159" type="curve" smooth="yes"/>
      <point x="153" y="337" type="line" smooth="yes"/>
      <point x="153" y="393"/>
      <point x="188" y="410"/>
      <point x="227" y="410" type="curve" smooth="yes"/>
      <point x="261" y="410"/>
      <point x="303" y="386"/>
    </contour>
    <contour>
      <point x="176" y="726" type="curve"/>
      <point x="151" y="741" type="line"/>
      <point x="151" y="741"/>
      <point x="84" y="700"/>
      <point x="84" y="609" type="curve" smooth="yes"/>
      <point x="84" y="576"/>
      <point x="111" y="550"/>
      <point x="144" y="550" type="curve" smooth="yes"/>
      <point x="177" y="550"/>
      <point x="204" y="576"/>
      <point x="204" y="609" type="curve" smooth="yes"/>
      <point x="204" y="637"/>
      <point x="184" y="661"/>
      <point x="160" y="667" type="curve"/>
      <point x="161" y="686"/>
      <point x="166" y="708"/>
    </contour>
  </outline>
</glyph>
<glyph name="Hcircumflex" format="1">
  <advance width="554"/>
  <unicode hex="0124"/>
  <outline>
    <contour>
      <point x="396" y="413" type="line"/>
      <point x="185" y="413" type="line"/>
      <point x="185" y="698" type="line"/>
      <point x="75" y="698" type="line"/>
      <point x="75" y="0" type="line"/>
      <point x="185" y="0" type="line"/>
      <point x="185" y="308" type="line"/>
      <point x="396" y="308" type="line"/>
      <point x="396" y="0" type="line"/>
      <point x="505" y="0" type="line"/>
      <point x="505" y="698" type="line"/>
      <point x="396" y="698" type="line"/>
    </contour>
    <contour>
      <point x="297" y="643" type="line"/>
      <point x="169" y="770" type="line"/>
      <point x="37" y="642" type="line"/>
      <point x="89" y="591" type="line"/>
      <point x="169" y="673" type="line"/>
      <point x="244" y="592" type="line"/>
    </contour>
  </outline>
</glyph>
<glyph name="hcircumflex" format="1">
  <advance width="487"/>
  <unicode hex="0125"/>
  <outline>
    <contour>
      <point x="184" y="476" type="curve"/>
      <point x="184" y="698" type="line"/>
      <point x="75" y="698" type="line"/>
      <point x="75" y="0" type="line"/>
      <point x="184" y="0" type="line"/>
      <point x="184" y="386" type="line"/>
      <point x="216" y="402"/>
      <point x="241" y="409"/>
      <point x="264" y="409" type="curve" smooth="yes"/>
      <point x="306" y="409"/>
      <point x="336" y="381"/>
      <point x="336" y="343" type="curve" smooth="yes"/>
      <point x="336" y="0" type="line"/>
      <point x="445" y="0" type="line"/>
      <point x="445" y="345" type="line" smooth="yes"/>
      <point x="445" y="473"/>
      <point x="363" y="509"/>
      <point x="284" y="509" type="curve" smooth="yes"/>
      <point x="243" y="509"/>
      <point x="201" y="488"/>
    </contour>
    <contour>
      <point x="297" y="643" type="line"/>
      <point x="169" y="770" type="line"/>
      <point x="37" y="642" type="line"/>
      <point x="89" y="591" type="line"/>
      <point x="169" y="673" type="line"/>
      <point x="244" y="592" type="line"/>
    </contour>
  </outline>
</glyph>
<glyph name="Itilde" format="1">
  <advance width="323"/>
  <unicode hex="0128"/>
  <outline>
    <contour>
      <point x="48" y="593" type="line"/>
      <point x="111" y="591" type="line"/>
      <point x="111" y="0" type="line"/>
      <point x="221" y="0" type="line"/>
      <point x="221" y="698" type="line"/>
      <point x="48" y="698" type="line"/>
    </contour>
    <contour>
      <point x="221" y="708" type="line"/>
      <point x="221" y="700" type="line" smooth="yes"/>
      <point x="221" y="688"/>
      <point x="221" y="672"/>
      <point x="207" y="672" type="curve" smooth="yes"/>
      <point x="199" y="672"/>
      <point x="186" y="680"/>
      <point x="179" y="684" type="curve" smooth="yes"/>
      <point x="165" y="692"/>
      <point x="160" y="696"/>
      <point x="148" y="702" type="curve" smooth="yes"/>
      <point x="127" y="712"/>
      <point x="104" y="715"/>
      <point x="81" y="708" type="curve" smooth="yes"/>
      <point x="41" y="696"/>
      <point x="27" y="658"/>
      <point x="27" y="619" type="curve" smooth="yes"/>
      <point x="27" y="611" type="line"/>
      <point x="94" y="611" type="line"/>
      <point x="94" y="619" type="line" smooth="yes"/>
      <point x="94" y="632"/>
      <point x="93" y="645"/>
      <point x="109" y="645" type="curve" smooth="yes"/>
      <point x="116" y="645"/>
      <point x="126" y="641"/>
      <point x="135" y="635" type="curve" smooth="yes"/>
      <point x="141" y="631"/>
      <point x="162" y="618"/>
      <point x="168" y="615" type="curve"/>
      <point x="180" y="610"/>
      <point x="193" y="605"/>
      <point x="206" y="605" type="curve" smooth="yes"/>
      <point x="261" y="605"/>
      <point x="288" y="649"/>
      <point x="288" y="700" type="curve" smooth="yes"/>
      <point x="288" y="708" type="line"/>
    </contour>
  </outline>
</glyph>
<glyph name="itilde" format="1">
  <advance width="330"/>
  <unicode hex="0129"/>
  <outline>
    <contour>
      <point x="75" y="0" type="line"/>
      <point x="185" y="0" type="line"/>
      <point x="185" y="499" type="line"/>
      <point x="75" y="499" type="line"/>
    </contour>
    <contour>
      <point x="232" y="708" type="line"/>
      <point x="232" y="700" type="line" smooth="yes"/>
      <point x="232" y="688"/>
      <point x="232" y="672"/>
      <point x="218" y="672" type="curve" smooth="yes"/>
      <point x="210" y="672"/>
      <point x="197" y="680"/>
      <point x="190" y="684" type="curve" smooth="yes"/>
      <point x="176" y="692"/>
      <point x="171" y="696"/>
      <point x="159" y="702" type="curve" smooth="yes"/>
      <point x="138" y="712"/>
      <point x="115" y="715"/>
      <point x="92" y="708" type="curve" smooth="yes"/>
      <point x="52" y="696"/>
      <point x="38" y="658"/>
      <point x="38" y="619" type="curve" smooth="yes"/>
      <point x="38" y="611" type="line"/>
      <point x="105" y="611" type="line"/>
      <point x="105" y="619" type="line" smooth="yes"/>
      <point x="105" y="632"/>
      <point x="104" y="645"/>
      <point x="120" y="645" type="curve" smooth="yes"/>
      <point x="127" y="645"/>
      <point x="137" y="641"/>
      <point x="146" y="635" type="curve" smooth="yes"/>
      <point x="152" y="631"/>
      <point x="173" y="618"/>
      <point x="179" y="615" type="curve"/>
      <point x="191" y="610"/>
      <point x="204" y="605"/>
      <point x="217" y="605" type="curve" smooth="yes"/>
      <point x="272" y="605"/>
      <point x="299" y="649"/>
      <point x="299" y="700" type="curve" smooth="yes"/>
      <point x="299" y="708" type="line"/>
    </contour>
  </outline>
</glyph>
<glyph name="Imacron" format="1">
  <advance width="294"/>
  <unicode hex="012A"/>
  <outline>
    <contour>
      <point x="34" y="593" type="line"/>
      <point x="97" y="591" type="line"/>
      <point x="97" y="0" type="line"/>
      <point x="207" y="0" type="line"/>
      <point x="207" y="698" type="line"/>
      <point x="34" y="698" type="line"/>
    </contour>
    <contour>
      <point x="254" y="708" type="line"/>
      <point x="33" y="708" type="line"/>
      <point x="33" y="618" type="line"/>
      <point x="254" y="618" type="line"/>
    </contour>
  </outline>
</glyph>
<glyph name="imacron" format="1">
  <advance width="299"/>
  <unicode hex="012B"/>
  <outline>
    <contour>
      <point x="61" y="0" type="line"/>
      <point x="171" y="0" type="line"/>
      <point x="171" y="499" type="line"/>
      <point x="61" y="499" type="line"/>
    </contour>
    <contour>
      <point x="265" y="708" type="line"/>
      <point x="44" y="708" type="line"/>
      <point x="44" y="618" type="line"/>
      <point x="265" y="618" type="line"/>
    </contour>
  </outline>
</glyph>
<glyph name="iogonek" format="1">
  <advance width="296"/>
  <unicode hex="012F"/>
  <outline>
    <contour>
      <point x="73" y="0" type="line"/>
      <point x="183" y="0" type="line"/>
      <point x="183" y="499" type="line"/>
      <point x="73" y="499" type="line"/>
    </contour>
    <contour>
      <point x="217" y="16" type="line"/>
      <point x="127" y="7" type="line"/>
      <point x="127" y="3" type="line"/>
      <point x="72" y="-87" type="line" smooth="yes"/>
      <point x="22" y="-175"/>
      <point x="90" y="-251"/>
      <point x="182" y="-224" type="curve" smooth="yes"/>
      <point x="204" y="-218"/>
      <point x="286" y="-190"/>
      <point x="287" y="-190" type="curve"/>
      <point x="262" y="-118" type="line"/>
      <point x="262" y="-118"/>
      <point x="187" y="-144"/>
      <point x="159" y="-154" type="curve"/>
      <point x="135" y="-164"/>
      <point x="124" y="-142"/>
      <point x="135" y="-123" type="curve"/>
      <point x="217" y="2" type="line"/>
    </contour>
  </outline>
</glyph>
<glyph name="IJ" format="1">
  <advance width="564"/>
  <unicode hex="0132"/>
  <outline>
    <contour>
      <point x="516" y="698" type="line"/>
      <point x="347" y="698" type="line"/>
      <point x="347" y="593" type="line"/>
      <point x="406" y="592" type="line"/>
      <point x="406" y="206" type="line" smooth="yes"/>
      <point x="406" y="172"/>
      <point x="395" y="144"/>
      <point x="376" y="127" type="curve"/>
      <point x="359" y="110"/>
      <point x="335" y="101"/>
      <point x="306" y="101" type="curve" smooth="yes"/>
      <point x="276" y="101"/>
      <point x="253" y="108"/>
      <point x="238" y="122" type="curve" smooth="yes"/>
      <point x="217" y="140"/>
      <point x="206" y="168"/>
      <point x="206" y="204" type="curve" smooth="yes"/>
      <point x="206" y="223" type="line"/>
      <point x="96" y="223" type="line"/>
      <point x="96" y="185" type="line" smooth="yes"/>
      <point x="96" y="118"/>
      <point x="118" y="68"/>
      <point x="158" y="36" type="curve" smooth="yes"/>
      <point x="200" y="5"/>
      <point x="250" y="-11"/>
      <point x="307" y="-11" type="curve" smooth="yes"/>
      <point x="364" y="-11"/>
      <point x="414" y="5"/>
      <point x="454" y="36" type="curve" smooth="yes"/>
      <point x="495" y="68"/>
      <point x="516" y="118"/>
      <point x="516" y="185" type="curve" smooth="yes"/>
    </contour>
    <contour>
      <point x="206" y="698" type="line"/>
      <point x="32" y="698" type="line"/>
      <point x="32" y="593" type="line"/>
      <point x="96" y="591" type="line"/>
      <point x="96" y="320" type="line"/>
      <point x="206" y="320" type="line"/>
    </contour>
  </outline>
</glyph>
<glyph name="ij" format="1">
  <advance width="473"/>
  <unicode hex="0133"/>
  <outline>
    <contour>
      <point x="105" y="708" type="curve" smooth="yes"/>
      <point x="72" y="708"/>
      <point x="46" y="683"/>
      <point x="46" y="650" type="curve" smooth="yes"/>
      <point x="46" y="617"/>
      <point x="72" y="590"/>
      <point x="105" y="590" type="curve" smooth="yes"/>
      <point x="138" y="590"/>
      <point x="165" y="617"/>
      <point x="165" y="650" type="curve" smooth="yes"/>
      <point x="165" y="683"/>
      <point x="138" y="708"/>
    </contour>
    <contour>
      <point x="426" y="649" type="curve" smooth="yes"/>
      <point x="426" y="682"/>
      <point x="398" y="708"/>
      <point x="365" y="708" type="curve" smooth="yes"/>
      <point x="332" y="708"/>
      <point x="306" y="682"/>
      <point x="306" y="649" type="curve" smooth="yes"/>
      <point x="306" y="617"/>
      <point x="332" y="590"/>
      <point x="365" y="590" type="curve" smooth="yes"/>
      <point x="398" y="590"/>
      <point x="426" y="617"/>
    </contour>
    <contour>
      <point x="309" y="501" type="line"/>
      <point x="309" y="176" type="line" smooth="yes"/>
      <point x="309" y="130"/>
      <point x="274" y="94"/>
      <point x="229" y="94" type="curve" smooth="yes"/>
      <point x="188" y="94"/>
      <point x="160" y="123"/>
      <point x="160" y="161" type="curve" smooth="yes"/>
      <point x="160" y="501" type="line"/>
      <point x="49" y="501" type="line"/>
      <point x="49" y="158" type="line" smooth="yes"/>
      <point x="49" y="30"/>
      <point x="130" y="-6"/>
      <point x="209" y="-6" type="curve" smooth="yes"/>
      <point x="251" y="-6"/>
      <point x="296" y="13"/>
      <point x="309" y="28" type="curve"/>
      <point x="309" y="-48" type="line" smooth="yes"/>
      <point x="309" y="-72"/>
      <point x="302" y="-89"/>
      <point x="289" y="-101" type="curve" smooth="yes"/>
      <point x="275" y="-114"/>
      <point x="256" y="-124"/>
      <point x="239" y="-124" type="curve"/>
      <point x="268" y="-213" type="line"/>
      <point x="301" y="-213"/>
      <point x="344" y="-199"/>
      <point x="371" y="-179" type="curve" smooth="yes"/>
      <point x="404" y="-157"/>
      <point x="419" y="-116"/>
      <point x="419" y="-59" type="curve" smooth="yes"/>
      <point x="419" y="501" type="line"/>
    </contour>
  </outline>
</glyph>
<glyph name="jcircumflex" format="1">
  <advance width="332"/>
  <unicode hex="0135"/>
  <outline>
    <contour>
      <point x="241" y="-61" type="curve" smooth="yes"/>
      <point x="241" y="499" type="line"/>
      <point x="60" y="499" type="line"/>
      <point x="60" y="410" type="line"/>
      <point x="131" y="400" type="line"/>
      <point x="131" y="-50" type="line" smooth="yes"/>
      <point x="131" y="-74"/>
      <point x="124" y="-91"/>
      <point x="112" y="-102" type="curve" smooth="yes"/>
      <point x="97" y="-116"/>
      <point x="83" y="-120"/>
      <point x="61" y="-125" type="curve"/>
      <point x="91" y="-215" type="line"/>
      <point x="118" y="-215"/>
      <point x="167" y="-202"/>
      <point x="195" y="-177" type="curve" smooth="yes"/>
      <point x="223" y="-151"/>
      <point x="241" y="-116"/>
    </contour>
    <contour>
      <point x="295" y="643" type="line"/>
      <point x="167" y="770" type="line"/>
      <point x="35" y="642" type="line"/>
      <point x="87" y="591" type="line"/>
      <point x="167" y="673" type="line"/>
      <point x="242" y="592" type="line"/>
    </contour>
  </outline>
</glyph>
<glyph name="Kcommaaccent" format="1">
  <advance width="534"/>
  <unicode hex="0136"/>
  <outline>
    <contour>
      <point x="168" y="459" type="line"/>
      <point x="168" y="700" type="line"/>
      <point x="50" y="700" type="line"/>
      <point x="50" y="0" type="line"/>
      <point x="168" y="0" type="line"/>
      <point x="168" y="268" type="line"/>
      <point x="175" y="278" type="line"/>
      <point x="363" y="0" type="line"/>
      <point x="501" y="0" type="line"/>
      <point x="240" y="376" type="line"/>
      <point x="461" y="700" type="line"/>
      <point x="329" y="700" type="line"/>
    </contour>
    <contour>
      <point x="110" y="-236" type="curve"/>
      <point x="134" y="-253" type="line"/>
      <point x="134" y="-253"/>
      <point x="201" y="-211"/>
      <point x="201" y="-120" type="curve" smooth="yes"/>
      <point x="201" y="-88"/>
      <point x="175" y="-61"/>
      <point x="143" y="-61" type="curve" smooth="yes"/>
      <point x="110" y="-61"/>
      <point x="83" y="-88"/>
      <point x="83" y="-120" type="curve" smooth="yes"/>
      <point x="83" y="-148"/>
      <point x="101" y="-171"/>
      <point x="128" y="-178" type="curve"/>
      <point x="124" y="-198"/>
      <point x="120" y="-218"/>
    </contour>
  </outline>
</glyph>
<glyph name="kcommaaccent" format="1">
  <advance width="492"/>
  <unicode hex="0137"/>
  <outline>
    <contour>
      <point x="259" y="332" type="curve"/>
      <point x="390" y="443" type="line"/>
      <point x="310" y="519" type="line"/>
      <point x="160" y="382" type="line"/>
      <point x="160" y="698" type="line"/>
      <point x="50" y="698" type="line"/>
      <point x="50" y="0" type="line"/>
      <point x="160" y="0" type="line"/>
      <point x="160" y="240" type="line"/>
      <point x="174" y="254" type="line"/>
      <point x="324" y="0" type="line"/>
      <point x="463" y="0" type="line"/>
      <point x="424" y="61"/>
      <point x="356" y="170"/>
    </contour>
    <contour>
      <point x="110" y="-236" type="curve"/>
      <point x="134" y="-253" type="line"/>
      <point x="134" y="-253"/>
      <point x="201" y="-211"/>
      <point x="201" y="-120" type="curve" smooth="yes"/>
      <point x="201" y="-88"/>
      <point x="175" y="-61"/>
      <point x="143" y="-61" type="curve" smooth="yes"/>
      <point x="110" y="-61"/>
      <point x="83" y="-88"/>
      <point x="83" y="-120" type="curve" smooth="yes"/>
      <point x="83" y="-148"/>
      <point x="101" y="-171"/>
      <point x="128" y="-178" type="curve"/>
      <point x="124" y="-198"/>
      <point x="120" y="-218"/>
    </contour>
  </outline>
</glyph>
<glyph name="kgreenlandic" format="1">
  <advance width="489"/>
  <unicode hex="0138"/>
  <outline>
    <contour>
      <point x="363" y="159" type="curve" smooth="yes"/>
      <point x="264" y="300" type="line"/>
      <point x="446" y="499" type="line"/>
      <point x="310" y="499" type="line"/>
      <point x="156" y="333" type="line"/>
      <point x="156" y="498" type="line"/>
      <point x="46" y="510" type="line"/>
      <point x="46" y="0" type="line"/>
      <point x="156" y="0" type="line"/>
      <point x="156" y="195" type="line"/>
      <point x="183" y="219" type="line"/>
      <point x="261" y="110" type="line"/>
      <point x="281" y="85"/>
      <point x="294" y="66"/>
      <point x="304" y="54" type="curve" smooth="yes"/>
      <point x="315" y="42"/>
      <point x="331" y="29"/>
      <point x="350" y="16" type="curve"/>
      <point x="370" y="5"/>
      <point x="392" y="-1"/>
      <point x="415" y="-1" type="curve"/>
      <point x="448" y="96" type="line"/>
      <point x="422" y="97"/>
      <point x="400" y="109"/>
    </contour>
  </outline>
</glyph>
<glyph name="ncaron" format="1">
  <advance width="484"/>
  <unicode hex="0148"/>
  <outline>
    <contour>
      <point x="333" y="342" type="curve" smooth="yes"/>
      <point x="333" y="-1" type="line"/>
      <point x="442" y="-1" type="line"/>
      <point x="442" y="345" type="line" smooth="yes"/>
      <point x="442" y="473"/>
      <point x="361" y="508"/>
      <point x="282" y="508" type="curve" smooth="yes"/>
      <point x="241" y="508"/>
      <point x="199" y="487"/>
      <point x="182" y="476" type="curve"/>
      <point x="182" y="499" type="line"/>
      <point x="73" y="499" type="line"/>
      <point x="73" y="-1" type="line"/>
      <point x="182" y="-1" type="line"/>
      <point x="182" y="385" type="line"/>
      <point x="214" y="402"/>
      <point x="239" y="409"/>
      <point x="262" y="409" type="curve" smooth="yes"/>
      <point x="304" y="409"/>
      <point x="333" y="380"/>
    </contour>
    <contour>
      <point x="297" y="716" type="line"/>
      <point x="245" y="768" type="line"/>
      <point x="165" y="686" type="line"/>
      <point x="90" y="767" type="line"/>
      <point x="37" y="715" type="line"/>
      <point x="165" y="588" type="line"/>
    </contour>
  </outline>
</glyph>
<glyph name="Eng" format="1">
  <advance width="591"/>
  <unicode hex="014A"/>
  <outline>
    <contour>
      <point x="542" y="-59" type="curve" smooth="yes"/>
      <point x="542" y="698" type="line"/>
      <point x="432" y="698" type="line"/>
      <point x="432" y="230" type="line"/>
      <point x="160" y="698" type="line"/>
      <point x="49" y="698" type="line"/>
      <point x="49" y="0" type="line"/>
      <point x="159" y="0" type="line"/>
      <point x="159" y="472" type="line"/>
      <point x="432" y="0" type="line"/>
      <point x="432" y="-48" type="line" smooth="yes"/>
      <point x="432" y="-73"/>
      <point x="424" y="-90"/>
      <point x="412" y="-101" type="curve"/>
      <point x="398" y="-116"/>
      <point x="383" y="-119"/>
      <point x="361" y="-124" type="curve"/>
      <point x="391" y="-213" type="line"/>
      <point x="419" y="-213"/>
      <point x="467" y="-201"/>
      <point x="496" y="-176" type="curve"/>
      <point x="523" y="-150"/>
      <point x="542" y="-116"/>
    </contour>
  </outline>
</glyph>
<glyph name="eng" format="1">
  <advance width="457"/>
  <unicode hex="014B"/>
  <outline>
    <contour>
      <point x="415" y="-44" type="curve" smooth="yes"/>
      <point x="415" y="345" type="line" smooth="yes"/>
      <point x="415" y="473"/>
      <point x="334" y="509"/>
      <point x="255" y="509" type="curve" smooth="yes"/>
      <point x="214" y="509"/>
      <point x="172" y="488"/>
      <point x="155" y="476" type="curve"/>
      <point x="155" y="499" type="line"/>
      <point x="46" y="499" type="line"/>
      <point x="46" y="0" type="line"/>
      <point x="155" y="0" type="line"/>
      <point x="155" y="386" type="line"/>
      <point x="189" y="400"/>
      <point x="213" y="409"/>
      <point x="239" y="409" type="curve" smooth="yes"/>
      <point x="282" y="408"/>
      <point x="305" y="380"/>
      <point x="305" y="343" type="curve" smooth="yes"/>
      <point x="305" y="-33" type="line" smooth="yes"/>
      <point x="305" y="-57"/>
      <point x="297" y="-74"/>
      <point x="286" y="-86" type="curve"/>
      <point x="271" y="-100"/>
      <point x="256" y="-105"/>
      <point x="234" y="-109" type="curve"/>
      <point x="264" y="-198" type="line"/>
      <point x="292" y="-198"/>
      <point x="341" y="-186"/>
      <point x="368" y="-160" type="curve"/>
      <point x="397" y="-135"/>
      <point x="415" y="-100"/>
    </contour>
  </outline>
</glyph>
<glyph name="ohungarumlaut" format="1">
  <advance width="451"/>
  <unicode hex="0151"/>
  <outline>
    <contour>
      <point x="412" y="184" type="curve" smooth="yes"/>
      <point x="412" y="316" type="line" smooth="yes"/>
      <point x="412" y="437"/>
      <point x="346" y="510"/>
      <point x="230" y="510" type="curve" smooth="yes"/>
      <point x="109" y="510"/>
      <point x="43" y="443"/>
      <point x="43" y="316" type="curve" smooth="yes"/>
      <point x="43" y="184" type="line" smooth="yes"/>
      <point x="43" y="82"/>
      <point x="98" y="-10"/>
      <point x="230" y="-10" type="curve" smooth="yes"/>
      <point x="354" y="-10"/>
      <point x="412" y="71"/>
    </contour>
    <contour>
      <point x="299" y="322" type="curve" smooth="yes"/>
      <point x="299" y="176" type="line" smooth="yes"/>
      <point x="299" y="131"/>
      <point x="279" y="98"/>
      <point x="229" y="98" type="curve" smooth="yes"/>
      <point x="176" y="98"/>
      <point x="154" y="135"/>
      <point x="154" y="176" type="curve" smooth="yes"/>
      <point x="154" y="322" type="line" smooth="yes"/>
      <point x="154" y="373"/>
      <point x="181" y="400"/>
      <point x="229" y="400" type="curve" smooth="yes"/>
      <point x="276" y="400"/>
      <point x="299" y="370"/>
    </contour>
    <contour>
      <point x="169" y="645" type="line"/>
      <point x="188" y="667"/>
      <point x="188" y="702"/>
      <point x="162" y="716" type="curve" smooth="yes"/>
      <point x="137" y="730"/>
      <point x="103" y="710"/>
      <point x="97" y="685" type="curve" smooth="yes"/>
      <point x="67" y="569" type="line"/>
      <point x="111" y="569" type="line"/>
    </contour>
    <contour>
      <point x="282" y="645" type="line" smooth="yes"/>
      <point x="300" y="667"/>
      <point x="300" y="702"/>
      <point x="274" y="716" type="curve" smooth="yes"/>
      <point x="246" y="730"/>
      <point x="216" y="711"/>
      <point x="209" y="685" type="curve" smooth="yes"/>
      <point x="179" y="569" type="line"/>
      <point x="223" y="569" type="line"/>
    </contour>
  </outline>
</glyph>
<glyph name="oe" format="1">
  <advance width="704"/>
  <unicode hex="0153"/>
  <outline>
    <contour>
      <point x="414" y="148" type="curve" smooth="yes"/>
      <point x="414" y="173" type="line"/>
      <point x="664" y="186" type="line"/>
      <point x="664" y="342" type="line" smooth="yes"/>
      <point x="664" y="402"/>
      <point x="642" y="449"/>
      <point x="602" y="477" type="curve" smooth="yes"/>
      <point x="574" y="498"/>
      <point x="535" y="509"/>
      <point x="488" y="509" type="curve" smooth="yes"/>
      <point x="436" y="509"/>
      <point x="393" y="496"/>
      <point x="362" y="471" type="curve"/>
      <point x="359" y="469"/>
      <point x="357" y="466"/>
      <point x="355" y="464" type="curve"/>
      <point x="324" y="493"/>
      <point x="281" y="509"/>
      <point x="227" y="509" type="curve" smooth="yes"/>
      <point x="107" y="509"/>
      <point x="40" y="441"/>
      <point x="40" y="313" type="curve" smooth="yes"/>
      <point x="40" y="182" type="line" smooth="yes"/>
      <point x="40" y="81"/>
      <point x="96" y="-12"/>
      <point x="227" y="-12" type="curve" smooth="yes"/>
      <point x="278" y="-12"/>
      <point x="317" y="1"/>
      <point x="347" y="25" type="curve"/>
      <point x="349" y="23"/>
      <point x="351" y="22"/>
      <point x="354" y="20" type="curve"/>
      <point x="383" y="-3"/>
      <point x="425" y="-13"/>
      <point x="469" y="-13" type="curve" smooth="yes"/>
      <point x="528" y="-13"/>
      <point x="591" y="5"/>
      <point x="639" y="35" type="curve"/>
      <point x="599" y="130" type="line"/>
      <point x="557" y="108"/>
      <point x="509" y="90"/>
      <point x="474" y="90" type="curve" smooth="yes"/>
      <point x="453" y="90"/>
      <point x="438" y="95"/>
      <point x="429" y="106" type="curve" smooth="yes"/>
      <point x="420" y="116"/>
      <point x="414" y="129"/>
    </contour>
    <contour>
      <point x="298" y="320" type="curve" smooth="yes"/>
      <point x="298" y="174" type="line" smooth="yes"/>
      <point x="298" y="129"/>
      <point x="277" y="96"/>
      <point x="227" y="96" type="curve" smooth="yes"/>
      <point x="173" y="96"/>
      <point x="151" y="133"/>
      <point x="151" y="174" type="curve" smooth="yes"/>
      <point x="151" y="320" type="line" smooth="yes"/>
      <point x="151" y="371"/>
      <point x="178" y="399"/>
      <point x="227" y="399" type="curve" smooth="yes"/>
      <point x="272" y="399"/>
      <point x="298" y="367"/>
    </contour>
    <contour>
      <point x="553" y="312" type="curve" smooth="yes"/>
      <point x="553" y="283" type="line"/>
      <point x="414" y="274" type="line"/>
      <point x="414" y="313" type="line" smooth="yes"/>
      <point x="414" y="345"/>
      <point x="415" y="367"/>
      <point x="435" y="385" type="curve"/>
      <point x="445" y="395"/>
      <point x="460" y="403"/>
      <point x="487" y="404" type="curve" smooth="yes"/>
      <point x="508" y="404"/>
      <point x="522" y="397"/>
      <point x="532" y="388" type="curve" smooth="yes"/>
      <point x="551" y="371"/>
      <point x="553" y="348"/>
    </contour>
  </outline>
</glyph>
<glyph name="Rcommaaccent" format="1">
  <advance width="528"/>
  <unicode hex="0156"/>
  <outline>
    <contour>
      <point x="267" y="698" type="curve" smooth="yes"/>
      <point x="50" y="698" type="line"/>
      <point x="50" y="0" type="line"/>
      <point x="160" y="0" type="line"/>
      <point x="160" y="195" type="line"/>
      <point x="267" y="195" type="line" smooth="yes"/>
      <point x="279" y="195"/>
      <point x="291" y="195"/>
      <point x="303" y="196" type="curve"/>
      <point x="373" y="0" type="line"/>
      <point x="485" y="0" type="line"/>
      <point x="404" y="232" type="line"/>
      <point x="452" y="267"/>
      <point x="485" y="333"/>
      <point x="485" y="451" type="curve" smooth="yes"/>
      <point x="485" y="648"/>
      <point x="372" y="698"/>
    </contour>
    <contour>
      <point x="226" y="300" type="curve" smooth="yes"/>
      <point x="160" y="300" type="line"/>
      <point x="160" y="588" type="line"/>
      <point x="226" y="588" type="line" smooth="yes"/>
      <point x="328" y="588"/>
      <point x="374" y="576"/>
      <point x="374" y="451" type="curve" smooth="yes"/>
      <point x="374" y="317"/>
      <point x="329" y="300"/>
    </contour>
    <contour>
      <point x="110" y="-236" type="curve"/>
      <point x="134" y="-253" type="line"/>
      <point x="134" y="-253"/>
      <point x="201" y="-211"/>
      <point x="201" y="-120" type="curve" smooth="yes"/>
      <point x="201" y="-88"/>
      <point x="175" y="-61"/>
      <point x="143" y="-61" type="curve" smooth="yes"/>
      <point x="110" y="-61"/>
      <point x="83" y="-88"/>
      <point x="83" y="-120" type="curve" smooth="yes"/>
      <point x="83" y="-148"/>
      <point x="101" y="-171"/>
      <point x="128" y="-178" type="curve"/>
      <point x="124" y="-198"/>
      <point x="120" y="-218"/>
    </contour>
  </outline>
</glyph>
<glyph name="rcommaaccent" format="1">
  <advance width="389"/>
  <unicode hex="0157"/>
  <outline>
    <contour>
      <point x="338" y="409" type="curve"/>
      <point x="354" y="499" type="line"/>
      <point x="333" y="507"/>
      <point x="305" y="514"/>
      <point x="275" y="514" type="curve" smooth="yes"/>
      <point x="232" y="514"/>
      <point x="189" y="501"/>
      <point x="156" y="479" type="curve"/>
      <point x="156" y="499" type="line"/>
      <point x="46" y="499" type="line"/>
      <point x="46" y="0" type="line"/>
      <point x="156" y="0" type="line"/>
      <point x="156" y="388" type="line"/>
      <point x="198" y="407"/>
      <point x="241" y="416"/>
      <point x="286" y="416" type="curve" smooth="yes"/>
      <point x="322" y="416"/>
      <point x="338" y="409"/>
    </contour>
    <contour>
      <point x="108" y="-236" type="curve"/>
      <point x="132" y="-253" type="line"/>
      <point x="132" y="-253"/>
      <point x="199" y="-211"/>
      <point x="199" y="-120" type="curve" smooth="yes"/>
      <point x="199" y="-88"/>
      <point x="173" y="-61"/>
      <point x="141" y="-61" type="curve" smooth="yes"/>
      <point x="108" y="-61"/>
      <point x="81" y="-88"/>
      <point x="81" y="-120" type="curve" smooth="yes"/>
      <point x="81" y="-148"/>
      <point x="99" y="-171"/>
      <point x="126" y="-178" type="curve"/>
      <point x="122" y="-198"/>
      <point x="118" y="-218"/>
    </contour>
  </outline>
</glyph>
<glyph name="Rcaron" format="1">
  <advance width="552"/>
  <unicode hex="0158"/>
  <outline>
    <contour>
      <point x="291" y="698" type="curve" smooth="yes"/>
      <point x="74" y="698" type="line"/>
      <point x="74" y="0" type="line"/>
      <point x="184" y="0" type="line"/>
      <point x="184" y="195" type="line"/>
      <point x="291" y="195" type="line" smooth="yes"/>
      <point x="303" y="195"/>
      <point x="315" y="195"/>
      <point x="327" y="196" type="curve"/>
      <point x="397" y="0" type="line"/>
      <point x="509" y="0" type="line"/>
      <point x="428" y="232" type="line"/>
      <point x="476" y="267"/>
      <point x="509" y="333"/>
      <point x="509" y="451" type="curve" smooth="yes"/>
      <point x="509" y="648"/>
      <point x="396" y="698"/>
    </contour>
    <contour>
      <point x="250" y="300" type="curve" smooth="yes"/>
      <point x="184" y="300" type="line"/>
      <point x="184" y="588" type="line"/>
      <point x="250" y="588" type="line" smooth="yes"/>
      <point x="352" y="588"/>
      <point x="398" y="576"/>
      <point x="398" y="451" type="curve" smooth="yes"/>
      <point x="398" y="317"/>
      <point x="353" y="300"/>
    </contour>
    <contour>
      <point x="296" y="716" type="line"/>
      <point x="244" y="768" type="line"/>
      <point x="164" y="686" type="line"/>
      <point x="89" y="767" type="line"/>
      <point x="36" y="715" type="line"/>
      <point x="164" y="588" type="line"/>
    </contour>
  </outline>
</glyph>
<glyph name="Scircumflex" format="1">
  <advance width="586"/>
  <unicode hex="015C"/>
  <outline>
    <contour>
      <point x="450" y="574" type="curve"/>
      <point x="483" y="671" type="line"/>
      <point x="437" y="695"/>
      <point x="379" y="708"/>
      <point x="323" y="708" type="curve" smooth="yes"/>
      <point x="265" y="708"/>
      <point x="208" y="697"/>
      <point x="163" y="667" type="curve" smooth="yes"/>
      <point x="115" y="635"/>
      <point x="95" y="586"/>
      <point x="95" y="537" type="curve" smooth="yes"/>
      <point x="95" y="428"/>
      <point x="183" y="387"/>
      <point x="268" y="346" type="curve"/>
      <point x="291" y="337"/>
      <point x="314" y="326"/>
      <point x="335" y="313" type="curve"/>
      <point x="385" y="286"/>
      <point x="425" y="252"/>
      <point x="425" y="198" type="curve" smooth="yes"/>
      <point x="425" y="167"/>
      <point x="411" y="137"/>
      <point x="388" y="121" type="curve" smooth="yes"/>
      <point x="363" y="102"/>
      <point x="328" y="96"/>
      <point x="299" y="96" type="curve" smooth="yes"/>
      <point x="279" y="96"/>
      <point x="243" y="99"/>
      <point x="205" y="122" type="curve" smooth="yes"/>
      <point x="184" y="135"/>
      <point x="164" y="155"/>
      <point x="147" y="183" type="curve"/>
      <point x="62" y="127" type="line"/>
      <point x="92" y="81"/>
      <point x="116" y="55"/>
      <point x="150" y="31" type="curve" smooth="yes"/>
      <point x="196" y="-2"/>
      <point x="250" y="-12"/>
      <point x="296" y="-12" type="curve" smooth="yes"/>
      <point x="355" y="-12"/>
      <point x="415" y="-1"/>
      <point x="461" y="29" type="curve" smooth="yes"/>
      <point x="523" y="69"/>
      <point x="548" y="136"/>
      <point x="548" y="199" type="curve" smooth="yes"/>
      <point x="548" y="297"/>
      <point x="481" y="360"/>
      <point x="406" y="404" type="curve" smooth="yes"/>
      <point x="377" y="422"/>
      <point x="346" y="437"/>
      <point x="318" y="449" type="curve" smooth="yes"/>
      <point x="260" y="475"/>
      <point x="218" y="496"/>
      <point x="217" y="537" type="curve" smooth="yes"/>
      <point x="217" y="559"/>
      <point x="227" y="575"/>
      <point x="243" y="586" type="curve" smooth="yes"/>
      <point x="259" y="598"/>
      <point x="287" y="606"/>
      <point x="321" y="606" type="curve" smooth="yes"/>
      <point x="357" y="606"/>
      <point x="402" y="597"/>
    </contour>
    <contour>
      <point x="296" y="643" type="line"/>
      <point x="168" y="770" type="line"/>
      <point x="36" y="642" type="line"/>
      <point x="88" y="591" type="line"/>
      <point x="168" y="673" type="line"/>
      <point x="243" y="592" type="line"/>
    </contour>
  </outline>
</glyph>
<glyph name="Scedilla" format="1">
  <advance width="564"/>
  <unicode hex="015E"/>
  <outline>
    <contour>
      <point x="428" y="574" type="curve"/>
      <point x="461" y="671" type="line"/>
      <point x="415" y="695"/>
      <point x="357" y="708"/>
      <point x="301" y="708" type="curve" smooth="yes"/>
      <point x="243" y="708"/>
      <point x="186" y="697"/>
      <point x="141" y="667" type="curve" smooth="yes"/>
      <point x="93" y="635"/>
      <point x="73" y="586"/>
      <point x="73" y="537" type="curve" smooth="yes"/>
      <point x="73" y="428"/>
      <point x="161" y="387"/>
      <point x="246" y="346" type="curve"/>
      <point x="269" y="337"/>
      <point x="292" y="326"/>
      <point x="313" y="313" type="curve"/>
      <point x="363" y="286"/>
      <point x="403" y="252"/>
      <point x="403" y="198" type="curve" smooth="yes"/>
      <point x="403" y="167"/>
      <point x="389" y="137"/>
      <point x="366" y="121" type="curve" smooth="yes"/>
      <point x="341" y="102"/>
      <point x="306" y="96"/>
      <point x="277" y="96" type="curve" smooth="yes"/>
      <point x="257" y="96"/>
      <point x="221" y="99"/>
      <point x="183" y="122" type="curve" smooth="yes"/>
      <point x="162" y="135"/>
      <point x="142" y="155"/>
      <point x="125" y="183" type="curve"/>
      <point x="40" y="127" type="line"/>
      <point x="70" y="81"/>
      <point x="94" y="55"/>
      <point x="128" y="31" type="curve" smooth="yes"/>
      <point x="174" y="-2"/>
      <point x="228" y="-12"/>
      <point x="274" y="-12" type="curve" smooth="yes"/>
      <point x="333" y="-12"/>
      <point x="393" y="-1"/>
      <point x="439" y="29" type="curve" smooth="yes"/>
      <point x="501" y="69"/>
      <point x="526" y="136"/>
      <point x="526" y="199" type="curve" smooth="yes"/>
      <point x="526" y="297"/>
      <point x="459" y="360"/>
      <point x="384" y="404" type="curve" smooth="yes"/>
      <point x="355" y="422"/>
      <point x="324" y="437"/>
      <point x="296" y="449" type="curve" smooth="yes"/>
      <point x="238" y="475"/>
      <point x="196" y="496"/>
      <point x="195" y="537" type="curve" smooth="yes"/>
      <point x="195" y="559"/>
      <point x="205" y="575"/>
      <point x="221" y="586" type="curve" smooth="yes"/>
      <point x="237" y="598"/>
      <point x="265" y="606"/>
      <point x="299" y="606" type="curve" smooth="yes"/>
      <point x="335" y="606"/>
      <point x="380" y="597"/>
    </contour>
    <contour>
      <point x="183" y="0" type="line"/>
      <point x="117" y="0" type="line"/>
      <point x="71" y="-75" type="line"/>
      <point x="89" y="-114" type="line"/>
      <point x="130" y="-111"/>
      <point x="159" y="-107"/>
      <point x="179" y="-107" type="curve" smooth="yes"/>
      <point x="204" y="-107"/>
      <point x="214" y="-120"/>
      <point x="214" y="-138" type="curve" smooth="yes"/>
      <point x="214" y="-155"/>
      <point x="203" y="-168"/>
      <point x="175" y="-168" type="curve" smooth="yes"/>
      <point x="132" y="-168"/>
      <point x="76" y="-158"/>
      <point x="75" y="-158" type="curve"/>
      <point x="70" y="-187"/>
      <point x="67" y="-196"/>
      <point x="62" y="-223" type="curve"/>
      <point x="64" y="-224"/>
      <point x="116" y="-235"/>
      <point x="164" y="-235" type="curve" smooth="yes"/>
      <point x="246" y="-235"/>
      <point x="281" y="-193"/>
      <point x="281" y="-133" type="curve" smooth="yes"/>
      <point x="281" y="-86"/>
      <point x="247" y="-40"/>
      <point x="186" y="-40" type="curve" smooth="yes"/>
      <point x="182" y="-40"/>
      <point x="177" y="-41"/>
      <point x="159" y="-42" type="curve"/>
    </contour>
  </outline>
</glyph>
<glyph name="Tcedilla" format="1">
  <advance width="471"/>
  <unicode hex="0162"/>
  <outline>
    <contour>
      <point x="286" y="587" type="line"/>
      <point x="434" y="587" type="line"/>
      <point x="434" y="698" type="line"/>
      <point x="31" y="698" type="line"/>
      <point x="31" y="587" type="line"/>
      <point x="176" y="587" type="line"/>
      <point x="176" y="0" type="line"/>
      <point x="286" y="0" type="line"/>
    </contour>
    <contour>
      <point x="190" y="0" type="line"/>
      <point x="124" y="0" type="line"/>
      <point x="78" y="-75" type="line"/>
      <point x="96" y="-114" type="line"/>
      <point x="137" y="-111"/>
      <point x="166" y="-107"/>
      <point x="186" y="-107" type="curve" smooth="yes"/>
      <point x="211" y="-107"/>
      <point x="221" y="-120"/>
      <point x="221" y="-138" type="curve" smooth="yes"/>
      <point x="221" y="-155"/>
      <point x="210" y="-168"/>
      <point x="182" y="-168" type="curve" smooth="yes"/>
      <point x="139" y="-168"/>
      <point x="83" y="-158"/>
      <point x="82" y="-158" type="curve"/>
      <point x="77" y="-187"/>
      <point x="74" y="-196"/>
      <point x="69" y="-223" type="curve"/>
      <point x="71" y="-224"/>
      <point x="123" y="-235"/>
      <point x="171" y="-235" type="curve" smooth="yes"/>
      <point x="253" y="-235"/>
      <point x="288" y="-193"/>
      <point x="288" y="-133" type="curve" smooth="yes"/>
      <point x="288" y="-86"/>
      <point x="254" y="-40"/>
      <point x="193" y="-40" type="curve" smooth="yes"/>
      <point x="189" y="-40"/>
      <point x="184" y="-41"/>
      <point x="166" y="-42" type="curve"/>
    </contour>
  </outline>
</glyph>
<glyph name="tcedilla" format="1">
  <advance width="308"/>
  <unicode hex="0163"/>
  <outline>
    <contour>
      <point x="161" y="132" type="curve" smooth="yes"/>
      <point x="161" y="398" type="line"/>
      <point x="233" y="398" type="line"/>
      <point x="256" y="499" type="line"/>
      <point x="161" y="499" type="line"/>
      <point x="161" y="698" type="line"/>
      <point x="49" y="698" type="line"/>
      <point x="49" y="132" type="line" smooth="yes"/>
      <point x="49" y="37"/>
      <point x="100" y="-11"/>
      <point x="201" y="-13" type="curve"/>
      <point x="234" y="75" type="line"/>
      <point x="187" y="75"/>
      <point x="161" y="87"/>
    </contour>
    <contour>
      <point x="181" y="0" type="line"/>
      <point x="115" y="0" type="line"/>
      <point x="69" y="-75" type="line"/>
      <point x="87" y="-114" type="line"/>
      <point x="128" y="-111"/>
      <point x="157" y="-107"/>
      <point x="177" y="-107" type="curve" smooth="yes"/>
      <point x="202" y="-107"/>
      <point x="212" y="-120"/>
      <point x="212" y="-138" type="curve" smooth="yes"/>
      <point x="212" y="-155"/>
      <point x="201" y="-168"/>
      <point x="173" y="-168" type="curve" smooth="yes"/>
      <point x="130" y="-168"/>
      <point x="74" y="-158"/>
      <point x="73" y="-158" type="curve"/>
      <point x="68" y="-187"/>
      <point x="65" y="-196"/>
      <point x="60" y="-223" type="curve"/>
      <point x="62" y="-224"/>
      <point x="114" y="-235"/>
      <point x="162" y="-235" type="curve" smooth="yes"/>
      <point x="244" y="-235"/>
      <point x="279" y="-193"/>
      <point x="279" y="-133" type="curve" smooth="yes"/>
      <point x="279" y="-86"/>
      <point x="245" y="-40"/>
      <point x="184" y="-40" type="curve" smooth="yes"/>
      <point x="180" y="-40"/>
      <point x="175" y="-41"/>
      <point x="157" y="-42" type="curve"/>
    </contour>
  </outline>
</glyph>
<glyph name="Tcaron" format="1">
  <advance width="477"/>
  <unicode hex="0164"/>
  <outline>
    <contour>
      <point x="292" y="587" type="line"/>
      <point x="440" y="587" type="line"/>
      <point x="440" y="698" type="line"/>
      <point x="37" y="698" type="line"/>
      <point x="37" y="587" type="line"/>
      <point x="182" y="587" type="line"/>
      <point x="182" y="0" type="line"/>
      <point x="292" y="0" type="line"/>
    </contour>
    <contour>
      <point x="287" y="716" type="line"/>
      <point x="235" y="768" type="line"/>
      <point x="155" y="686" type="line"/>
      <point x="80" y="767" type="line"/>
      <point x="27" y="715" type="line"/>
      <point x="155" y="588" type="line"/>
    </contour>
  </outline>
</glyph>
<glyph name="tbar" format="1">
  <advance width="337"/>
  <unicode hex="0167"/>
  <outline>
    <contour>
      <point x="204" y="132" type="curve" smooth="yes"/>
      <point x="204" y="253" type="line"/>
      <point x="267" y="253" type="line"/>
      <point x="267" y="356" type="line"/>
      <point x="204" y="356" type="line"/>
      <point x="204" y="398" type="line"/>
      <point x="275" y="398" type="line"/>
      <point x="299" y="499" type="line"/>
      <point x="204" y="499" type="line"/>
      <point x="204" y="698" type="line"/>
      <point x="92" y="698" type="line"/>
      <point x="92" y="356" type="line"/>
      <point x="38" y="356" type="line"/>
      <point x="38" y="253" type="line"/>
      <point x="92" y="253" type="line"/>
      <point x="92" y="132" type="line" smooth="yes"/>
      <point x="92" y="37"/>
      <point x="143" y="-11"/>
      <point x="244" y="-13" type="curve"/>
      <point x="277" y="75" type="line"/>
      <point x="229" y="75"/>
      <point x="204" y="87"/>
    </contour>
  </outline>
</glyph>
<glyph name="utilde" format="1">
  <advance width="485"/>
  <unicode hex="0169"/>
  <outline>
    <contour>
      <point x="331" y="26" type="curve"/>
      <point x="331" y="0" type="line"/>
      <point x="441" y="0" type="line"/>
      <point x="441" y="501" type="line"/>
      <point x="331" y="501" type="line"/>
      <point x="331" y="175" type="line" smooth="yes"/>
      <point x="331" y="129"/>
      <point x="296" y="94"/>
      <point x="251" y="94" type="curve" smooth="yes"/>
      <point x="211" y="94"/>
      <point x="183" y="124"/>
      <point x="183" y="159" type="curve" smooth="yes"/>
      <point x="183" y="501" type="line"/>
      <point x="72" y="501" type="line"/>
      <point x="72" y="157" type="line" smooth="yes"/>
      <point x="72" y="29"/>
      <point x="154" y="-7"/>
      <point x="232" y="-7" type="curve" smooth="yes"/>
      <point x="274" y="-7"/>
      <point x="318" y="12"/>
    </contour>
    <contour>
      <point x="231" y="708" type="line"/>
      <point x="231" y="700" type="line" smooth="yes"/>
      <point x="231" y="688"/>
      <point x="231" y="672"/>
      <point x="217" y="672" type="curve" smooth="yes"/>
      <point x="209" y="672"/>
      <point x="196" y="680"/>
      <point x="189" y="684" type="curve" smooth="yes"/>
      <point x="175" y="692"/>
      <point x="170" y="696"/>
      <point x="158" y="702" type="curve" smooth="yes"/>
      <point x="137" y="712"/>
      <point x="114" y="715"/>
      <point x="91" y="708" type="curve" smooth="yes"/>
      <point x="51" y="696"/>
      <point x="37" y="658"/>
      <point x="37" y="619" type="curve" smooth="yes"/>
      <point x="37" y="611" type="line"/>
      <point x="104" y="611" type="line"/>
      <point x="104" y="619" type="line" smooth="yes"/>
      <point x="104" y="632"/>
      <point x="103" y="645"/>
      <point x="119" y="645" type="curve" smooth="yes"/>
      <point x="126" y="645"/>
      <point x="136" y="641"/>
      <point x="145" y="635" type="curve" smooth="yes"/>
      <point x="151" y="631"/>
      <point x="172" y="618"/>
      <point x="178" y="615" type="curve"/>
      <point x="190" y="610"/>
      <point x="203" y="605"/>
      <point x="216" y="605" type="curve" smooth="yes"/>
      <point x="271" y="605"/>
      <point x="298" y="649"/>
      <point x="298" y="700" type="curve" smooth="yes"/>
      <point x="298" y="708" type="line"/>
    </contour>
  </outline>
</glyph>
<glyph name="Uring" format="1">
  <advance width="529"/>
  <unicode hex="016E"/>
  <outline>
    <contour>
      <point x="481" y="185" type="curve" smooth="yes"/>
      <point x="481" y="698" type="line"/>
      <point x="371" y="698" type="line"/>
      <point x="371" y="206" type="line" smooth="yes"/>
      <point x="371" y="172"/>
      <point x="360" y="144"/>
      <point x="341" y="127" type="curve"/>
      <point x="324" y="110"/>
      <point x="300" y="101"/>
      <point x="271" y="101" type="curve" smooth="yes"/>
      <point x="241" y="101"/>
      <point x="218" y="108"/>
      <point x="203" y="122" type="curve" smooth="yes"/>
      <point x="182" y="140"/>
      <point x="171" y="168"/>
      <point x="171" y="204" type="curve" smooth="yes"/>
      <point x="171" y="698" type="line"/>
      <point x="61" y="698" type="line"/>
      <point x="61" y="185" type="line" smooth="yes"/>
      <point x="61" y="118"/>
      <point x="83" y="68"/>
      <point x="123" y="36" type="curve" smooth="yes"/>
      <point x="165" y="5"/>
      <point x="215" y="-11"/>
      <point x="272" y="-11" type="curve" smooth="yes"/>
      <point x="329" y="-11"/>
      <point x="379" y="5"/>
      <point x="419" y="36" type="curve" smooth="yes"/>
      <point x="460" y="68"/>
      <point x="481" y="118"/>
    </contour>
    <contour>
      <point x="155" y="774" type="curve" smooth="yes"/>
      <point x="92" y="774"/>
      <point x="41" y="724"/>
      <point x="41" y="661" type="curve" smooth="yes"/>
      <point x="41" y="598"/>
      <point x="92" y="547"/>
      <point x="155" y="547" type="curve" smooth="yes"/>
      <point x="218" y="547"/>
      <point x="269" y="598"/>
      <point x="269" y="661" type="curve" smooth="yes"/>
      <point x="269" y="724"/>
      <point x="218" y="774"/>
    </contour>
    <contour>
      <point x="155" y="692" type="curve" smooth="yes"/>
      <point x="172" y="692"/>
      <point x="186" y="678"/>
      <point x="186" y="661" type="curve" smooth="yes"/>
      <point x="186" y="642"/>
      <point x="172" y="629"/>
      <point x="155" y="629" type="curve" smooth="yes"/>
      <point x="139" y="629"/>
      <point x="124" y="642"/>
      <point x="124" y="661" type="curve" smooth="yes"/>
      <point x="124" y="678"/>
      <point x="139" y="692"/>
    </contour>
  </outline>
</glyph>
<glyph name="wcircumflex" format="1">
  <advance width="766"/>
  <unicode hex="0175"/>
  <outline>
    <contour>
      <point x="448" y="499" type="line"/>
      <point x="344" y="499" type="line"/>
      <point x="264" y="194" type="line"/>
      <point x="172" y="499" type="line"/>
      <point x="52" y="499" type="line"/>
      <point x="213" y="0" type="line"/>
      <point x="321" y="0" type="line"/>
      <point x="393" y="267" type="line"/>
      <point x="465" y="0" type="line"/>
      <point x="570" y="0" type="line"/>
      <point x="732" y="499" type="line"/>
      <point x="614" y="499" type="line"/>
      <point x="532" y="194" type="line"/>
    </contour>
    <contour>
      <point x="294" y="643" type="line"/>
      <point x="166" y="770" type="line"/>
      <point x="34" y="642" type="line"/>
      <point x="86" y="591" type="line"/>
      <point x="166" y="673" type="line"/>
      <point x="241" y="592" type="line"/>
    </contour>
  </outline>
</glyph>
<glyph name="Ycircumflex" format="1">
  <advance width="557"/>
  <unicode hex="0176"/>
  <outline>
    <contour>
      <point x="509" y="156" type="curve" smooth="yes"/>
      <point x="509" y="698" type="line"/>
      <point x="399" y="698" type="line"/>
      <point x="399" y="405" type="line" smooth="yes"/>
      <point x="399" y="375"/>
      <point x="385" y="346"/>
      <point x="366" y="328" type="curve" smooth="yes"/>
      <point x="346" y="310"/>
      <point x="322" y="300"/>
      <point x="294" y="300" type="curve" smooth="yes"/>
      <point x="258" y="300"/>
      <point x="227" y="309"/>
      <point x="208" y="327" type="curve" smooth="yes"/>
      <point x="185" y="348"/>
      <point x="174" y="380"/>
      <point x="174" y="422" type="curve" smooth="yes"/>
      <point x="174" y="698" type="line"/>
      <point x="64" y="698" type="line"/>
      <point x="64" y="413" type="line" smooth="yes"/>
      <point x="64" y="345"/>
      <point x="85" y="293"/>
      <point x="127" y="254" type="curve" smooth="yes"/>
      <point x="173" y="210"/>
      <point x="228" y="198"/>
      <point x="287" y="198" type="curve" smooth="yes"/>
      <point x="354" y="201"/>
      <point x="399" y="237"/>
      <point x="399" y="237" type="curve"/>
      <point x="399" y="164" type="line" smooth="yes"/>
      <point x="399" y="94"/>
      <point x="367" y="70"/>
      <point x="323" y="65" type="curve"/>
      <point x="358" y="-19" type="line"/>
      <point x="467" y="-8"/>
      <point x="509" y="51"/>
    </contour>
    <contour>
      <point x="295" y="643" type="line"/>
      <point x="167" y="770" type="line"/>
      <point x="35" y="642" type="line"/>
      <point x="87" y="591" type="line"/>
      <point x="167" y="673" type="line"/>
      <point x="242" y="592" type="line"/>
    </contour>
  </outline>
</glyph>
<glyph name="Ydieresis" format="1">
  <advance width="564"/>
  <unicode hex="0178"/>
  <outline>
    <contour>
      <point x="516" y="156" type="curve" smooth="yes"/>
      <point x="516" y="698" type="line"/>
      <point x="406" y="698" type="line"/>
      <point x="406" y="405" type="line" smooth="yes"/>
      <point x="406" y="375"/>
      <point x="392" y="346"/>
      <point x="373" y="328" type="curve" smooth="yes"/>
      <point x="353" y="310"/>
      <point x="329" y="300"/>
      <point x="301" y="300" type="curve" smooth="yes"/>
      <point x="265" y="300"/>
      <point x="234" y="309"/>
      <point x="215" y="327" type="curve" smooth="yes"/>
      <point x="192" y="348"/>
      <point x="181" y="380"/>
      <point x="181" y="422" type="curve" smooth="yes"/>
      <point x="181" y="698" type="line"/>
      <point x="71" y="698" type="line"/>
      <point x="71" y="413" type="line" smooth="yes"/>
      <point x="71" y="345"/>
      <point x="92" y="293"/>
      <point x="134" y="254" type="curve" smooth="yes"/>
      <point x="180" y="210"/>
      <point x="235" y="198"/>
      <point x="294" y="198" type="curve" smooth="yes"/>
      <point x="361" y="201"/>
      <point x="406" y="237"/>
      <point x="406" y="237" type="curve"/>
      <point x="406" y="164" type="line" smooth="yes"/>
      <point x="406" y="94"/>
      <point x="374" y="70"/>
      <point x="330" y="65" type="curve"/>
      <point x="365" y="-19" type="line"/>
      <point x="474" y="-8"/>
      <point x="516" y="51"/>
    </contour>
    <contour>
      <point x="93" y="767" type="curve" smooth="yes"/>
      <point x="60" y="767"/>
      <point x="33" y="740"/>
      <point x="33" y="708" type="curve" smooth="yes"/>
      <point x="33" y="675"/>
      <point x="60" y="648"/>
      <point x="93" y="648" type="curve" smooth="yes"/>
      <point x="126" y="648"/>
      <point x="152" y="675"/>
      <point x="152" y="708" type="curve" smooth="yes"/>
      <point x="152" y="740"/>
      <point x="126" y="767"/>
    </contour>
    <contour>
      <point x="251" y="767" type="curve" smooth="yes"/>
      <point x="218" y="767"/>
      <point x="191" y="740"/>
      <point x="191" y="708" type="curve" smooth="yes"/>
      <point x="191" y="675"/>
      <point x="218" y="648"/>
      <point x="251" y="648" type="curve" smooth="yes"/>
      <point x="284" y="648"/>
      <point x="311" y="675"/>
      <point x="311" y="708" type="curve" smooth="yes"/>
      <point x="311" y="740"/>
      <point x="284" y="767"/>
    </contour>
  </outline>
</glyph>
<glyph name="zacute" format="1">
  <advance width="454"/>
  <unicode hex="017A"/>
  <outline>
    <contour>
      <point x="402" y="499" type="line"/>
      <point x="53" y="499" type="line"/>
      <point x="53" y="397" type="line"/>
      <point x="253" y="397" type="line"/>
      <point x="44" y="105" type="line"/>
      <point x="44" y="0" type="line"/>
      <point x="412" y="0" type="line"/>
      <point x="412" y="105" type="line"/>
      <point x="192" y="105" type="line"/>
      <point x="402" y="400" type="line"/>
    </contour>
    <contour>
      <point x="218" y="671" type="line" smooth="yes"/>
      <point x="236" y="693"/>
      <point x="236" y="727"/>
      <point x="211" y="741" type="curve" smooth="yes"/>
      <point x="185" y="757"/>
      <point x="153" y="738"/>
      <point x="146" y="712" type="curve" smooth="yes"/>
      <point x="116" y="596" type="line"/>
      <point x="160" y="596" type="line"/>
    </contour>
  </outline>
</glyph>
<glyph name="Zdotaccent" format="1">
  <advance width="577"/>
  <unicode hex="017B"/>
  <outline>
    <contour>
      <point x="526" y="698" type="line"/>
      <point x="58" y="698" type="line"/>
      <point x="58" y="588" type="line"/>
      <point x="387" y="588" type="line"/>
      <point x="44" y="101" type="line"/>
      <point x="44" y="0" type="line"/>
      <point x="532" y="0" type="line"/>
      <point x="532" y="105" type="line"/>
      <point x="182" y="105" type="line"/>
      <point x="526" y="588" type="line"/>
    </contour>
    <contour>
      <point x="145" y="774" type="curve" smooth="yes"/>
      <point x="112" y="774"/>
      <point x="85" y="749"/>
      <point x="85" y="716" type="curve" smooth="yes"/>
      <point x="85" y="683"/>
      <point x="112" y="656"/>
      <point x="145" y="656" type="curve" smooth="yes"/>
      <point x="178" y="656"/>
      <point x="204" y="683"/>
      <point x="204" y="716" type="curve" smooth="yes"/>
      <point x="204" y="749"/>
      <point x="178" y="774"/>
    </contour>
  </outline>
</glyph>
<glyph name="zcaron" format="1">
  <advance width="477"/>
  <unicode hex="017E"/>
  <outline>
    <contour>
      <point x="425" y="499" type="line"/>
      <point x="76" y="499" type="line"/>
      <point x="76" y="397" type="line"/>
      <point x="276" y="397" type="line"/>
      <point x="67" y="105" type="line"/>
      <point x="67" y="0" type="line"/>
      <point x="435" y="0" type="line"/>
      <point x="435" y="105" type="line"/>
      <point x="215" y="105" type="line"/>
      <point x="425" y="400" type="line"/>
    </contour>
    <contour>
      <point x="297" y="716" type="line"/>
      <point x="245" y="768" type="line"/>
      <point x="165" y="686" type="line"/>
      <point x="90" y="767" type="line"/>
      <point x="37" y="715" type="line"/>
      <point x="165" y="588" type="line"/>
    </contour>
  </outline>
</glyph>
<glyph name="uni021A" format="1">
  <advance width="469"/>
  <unicode hex="021A"/>
  <outline>
    <contour>
      <point x="284" y="587" type="line"/>
      <point x="432" y="587" type="line"/>
      <point x="432" y="698" type="line"/>
      <point x="29" y="698" type="line"/>
      <point x="29" y="587" type="line"/>
      <point x="174" y="587" type="line"/>
      <point x="174" y="0" type="line"/>
      <point x="284" y="0" type="line"/>
    </contour>
    <contour>
      <point x="117" y="-236" type="curve"/>
      <point x="141" y="-253" type="line"/>
      <point x="141" y="-253"/>
      <point x="208" y="-211"/>
      <point x="208" y="-120" type="curve" smooth="yes"/>
      <point x="208" y="-88"/>
      <point x="182" y="-61"/>
      <point x="150" y="-61" type="curve" smooth="yes"/>
      <point x="117" y="-61"/>
      <point x="90" y="-88"/>
      <point x="90" y="-120" type="curve" smooth="yes"/>
      <point x="90" y="-148"/>
      <point x="108" y="-171"/>
      <point x="135" y="-178" type="curve"/>
      <point x="131" y="-198"/>
      <point x="127" y="-218"/>
    </contour>
  </outline>
</glyph>
<glyph name="uni021B" format="1">
  <advance width="294"/>
  <unicode hex="021B"/>
  <outline>
    <contour>
      <point x="161" y="132" type="curve" smooth="yes"/>
      <point x="161" y="398" type="line"/>
      <point x="233" y="398" type="line"/>
      <point x="256" y="499" type="line"/>
      <point x="161" y="499" type="line"/>
      <point x="161" y="698" type="line"/>
      <point x="49" y="698" type="line"/>
      <point x="49" y="132" type="line" smooth="yes"/>
      <point x="49" y="37"/>
      <point x="100" y="-11"/>
      <point x="201" y="-13" type="curve"/>
      <point x="234" y="75" type="line"/>
      <point x="187" y="75"/>
      <point x="161" y="87"/>
    </contour>
    <contour>
      <point x="110" y="-236" type="curve"/>
      <point x="134" y="-253" type="line"/>
      <point x="134" y="-253"/>
      <point x="201" y="-211"/>
      <point x="201" y="-120" type="curve" smooth="yes"/>
      <point x="201" y="-88"/>
      <point x="175" y="-61"/>
      <point x="143" y="-61" type="curve" smooth="yes"/>
      <point x="110" y="-61"/>
      <point x="83" y="-88"/>
      <point x="83" y="-120" type="curve" smooth="yes"/>
      <point x="83" y="-148"/>
      <point x="101" y="-171"/>
      <point x="128" y="-178" type="curve"/>
      <point x="124" y="-198"/>
      <point x="120" y="-218"/>
    </contour>
  </outline>
</glyph>
<glyph name="dotlessj" format="1">
  <advance width="263"/>
  <unicode hex="0237"/>
  <outline>
    <contour>
      <point x="219" y="-61" type="curve" smooth="yes"/>
      <point x="219" y="499" type="line"/>
      <point x="38" y="499" type="line"/>
      <point x="38" y="410" type="line"/>
      <point x="109" y="400" type="line"/>
      <point x="109" y="-50" type="line" smooth="yes"/>
      <point x="109" y="-74"/>
      <point x="102" y="-91"/>
      <point x="90" y="-102" type="curve" smooth="yes"/>
      <point x="75" y="-116"/>
      <point x="61" y="-120"/>
      <point x="39" y="-125" type="curve"/>
      <point x="69" y="-215" type="line"/>
      <point x="96" y="-215"/>
      <point x="145" y="-202"/>
      <point x="173" y="-177" type="curve" smooth="yes"/>
      <point x="201" y="-151"/>
      <point x="219" y="-116"/>
    </contour>
  </outline>
</glyph>
<glyph name="caron" format="1">
  <advance width="266"/>
  <unicode hex="02C7"/>
  <outline>
    <contour>
      <point x="263" y="716" type="line"/>
      <point x="211" y="768" type="line"/>
      <point x="131" y="686" type="line"/>
      <point x="56" y="767" type="line"/>
      <point x="3" y="715" type="line"/>
      <point x="131" y="588" type="line"/>
    </contour>
  </outline>
</glyph>
<glyph name="Iotatonos" format="1">
  <advance width="275"/>
  <unicode hex="038A"/>
  <outline>
    <contour>
      <point x="33" y="593" type="line"/>
      <point x="96" y="591" type="line"/>
      <point x="96" y="0" type="line"/>
      <point x="206" y="0" type="line"/>
      <point x="206" y="698" type="line"/>
      <point x="33" y="698" type="line"/>
    </contour>
    <contour>
      <point x="217" y="671" type="line" smooth="yes"/>
      <point x="235" y="693"/>
      <point x="235" y="727"/>
      <point x="210" y="741" type="curve" smooth="yes"/>
      <point x="184" y="757"/>
      <point x="152" y="738"/>
      <point x="145" y="712" type="curve" smooth="yes"/>
      <point x="115" y="596" type="line"/>
      <point x="159" y="596" type="line"/>
    </contour>
  </outline>
</glyph>
